<?xml version="1.0" encoding="utf-8" standalone="no"?>
<!DOCTYPE svg PUBLIC "-//W3C//DTD SVG 1.1//EN"
  "http://www.w3.org/Graphics/SVG/1.1/DTD/svg11.dtd">
<svg xmlns:xlink="http://www.w3.org/1999/xlink" width="856.8pt" height="856.8pt" viewBox="0 0 856.8 856.8" xmlns="http://www.w3.org/2000/svg" version="1.1">
 <metadata>
  <rdf:RDF xmlns:dc="http://purl.org/dc/elements/1.1/" xmlns:cc="http://creativecommons.org/ns#" xmlns:rdf="http://www.w3.org/1999/02/22-rdf-syntax-ns#">
   <cc:Work>
    <dc:type rdf:resource="http://purl.org/dc/dcmitype/StillImage"/>
    <dc:date>2026-05-22T13:54:10.876797</dc:date>
    <dc:format>image/svg+xml</dc:format>
    <dc:creator>
     <cc:Agent>
      <dc:title>Matplotlib v3.10.8, https://matplotlib.org/</dc:title>
     </cc:Agent>
    </dc:creator>
   </cc:Work>
  </rdf:RDF>
 </metadata>
 <defs>
  <style type="text/css">*{stroke-linejoin: round; stroke-linecap: butt}</style>
 </defs>
 <g id="figure_1">
  <g id="patch_1">
   <path d="M 0 856.8 
L 856.8 856.8 
L 856.8 0 
L 0 0 
z
" style="fill: #ffffff"/>
  </g>
  <g id="axes_1">
   <g id="patch_2">
    <path d="M 683.73893 280.98 
C 657.863242 236.161993 620.638007 198.936758 575.82 173.06107 
C 531.001993 147.185382 480.151377 133.56 428.4 133.56 
L 428.4 327.312 
C 446.143329 327.312 463.577826 331.983559 478.944 340.855224 
C 494.310174 349.726889 507.073111 362.489826 515.944776 377.856 
z
" clip-path="url(#p91e87ae949)" style="fill: #3498db; stroke: #ffffff; stroke-width: 3; stroke-linejoin: miter"/>
   </g>
   <g id="patch_3">
    <path d="M 683.73893 575.82 
C 709.614618 531.001993 723.24 480.151377 723.24 428.4 
C 723.24 376.648623 709.614618 325.798007 683.73893 280.98 
L 515.944776 377.856 
C 524.816441 393.222174 529.488 410.656671 529.488 428.4 
C 529.488 446.143329 524.816441 463.577826 515.944776 478.944 
z
" clip-path="url(#p91e87ae949)" style="fill: #2ecc71; stroke: #ffffff; stroke-width: 3; stroke-linejoin: miter"/>
   </g>
   <g id="patch_4">
    <path d="M 428.4 723.24 
C 480.151377 723.24 531.001993 709.614618 575.82 683.73893 
C 620.638007 657.863242 657.863242 620.638007 683.73893 575.82 
L 515.944776 478.944 
C 507.073111 494.310174 494.310174 507.073111 478.944 515.944776 
C 463.577826 524.816441 446.143329 529.488 428.4 529.488 
z
" clip-path="url(#p91e87ae949)" style="fill: #f39c12; stroke: #ffffff; stroke-width: 3; stroke-linejoin: miter"/>
   </g>
   <g id="patch_5">
    <path d="M 173.06107 575.82 
C 198.936758 620.638007 236.161993 657.863242 280.98 683.73893 
C 325.798007 709.614618 376.648623 723.24 428.4 723.24 
L 428.4 529.488 
C 410.656671 529.488 393.222174 524.816441 377.856 515.944776 
C 362.489826 507.073111 349.726889 494.310174 340.855224 478.944 
z
" clip-path="url(#p91e87ae949)" style="fill: #e74c3c; stroke: #ffffff; stroke-width: 3; stroke-linejoin: miter"/>
   </g>
   <g id="patch_6">
    <path d="M 173.06107 280.98 
C 147.185382 325.798007 133.56 376.648623 133.56 428.4 
C 133.56 480.151377 147.185382 531.001993 173.06107 575.82 
L 340.855224 478.944 
C 331.983559 463.577826 327.312 446.143329 327.312 428.4 
C 327.312 410.656671 331.983559 393.222174 340.855224 377.856 
z
" clip-path="url(#p91e87ae949)" style="fill: #9b59b6; stroke: #ffffff; stroke-width: 3; stroke-linejoin: miter"/>
   </g>
   <g id="patch_7">
    <path d="M 428.4 133.56 
C 376.648623 133.56 325.798007 147.185382 280.98 173.06107 
C 236.161993 198.936758 198.936758 236.161993 173.06107 280.98 
L 340.855224 377.856 
C 349.726889 362.489826 362.489826 349.726889 377.856 340.855224 
C 393.222174 331.983559 410.656671 327.312 428.4 327.312 
z
" clip-path="url(#p91e87ae949)" style="fill: #1abc9c; stroke: #ffffff; stroke-width: 3; stroke-linejoin: miter"/>
   </g>
   <g id="text_1">
    <g id="patch_8">
     <path d="M 468.881688 275.825991 
L 585.882313 275.825991 
Q 590.082313 275.825991 590.082313 271.625991 
L 590.082313 242.399678 
Q 590.082313 238.199678 585.882313 238.199678 
L 468.881688 238.199678 
Q 464.681688 238.199678 464.681688 242.399678 
L 464.681688 271.625991 
Q 464.681688 275.825991 468.881688 275.825991 
z
" style="fill: #3498db; opacity: 0.8"/>
    </g>
    <!-- Business -->
    <g style="fill: #ffffff" transform="translate(492.4345 252.928116) scale(0.14 -0.14)">
     <defs>
      <path id="DejaVuSans-Bold-42" d="M 2456 2859 
Q 2741 2859 2887 2984 
Q 3034 3109 3034 3353 
Q 3034 3594 2887 3720 
Q 2741 3847 2456 3847 
L 1791 3847 
L 1791 2859 
L 2456 2859 
z
M 2497 819 
Q 2859 819 3042 972 
Q 3225 1125 3225 1434 
Q 3225 1738 3044 1889 
Q 2863 2041 2497 2041 
L 1791 2041 
L 1791 819 
L 2497 819 
z
M 3616 2497 
Q 4003 2384 4215 2081 
Q 4428 1778 4428 1338 
Q 4428 663 3972 331 
Q 3516 0 2584 0 
L 588 0 
L 588 4666 
L 2394 4666 
Q 3366 4666 3802 4372 
Q 4238 4078 4238 3431 
Q 4238 3091 4078 2852 
Q 3919 2613 3616 2497 
z
" transform="scale(0.015625)"/>
      <path id="DejaVuSans-Bold-75" d="M 500 1363 
L 500 3500 
L 1625 3500 
L 1625 3150 
Q 1625 2866 1622 2436 
Q 1619 2006 1619 1863 
Q 1619 1441 1641 1255 
Q 1663 1069 1716 984 
Q 1784 875 1895 815 
Q 2006 756 2150 756 
Q 2500 756 2700 1025 
Q 2900 1294 2900 1772 
L 2900 3500 
L 4019 3500 
L 4019 0 
L 2900 0 
L 2900 506 
Q 2647 200 2364 54 
Q 2081 -91 1741 -91 
Q 1134 -91 817 281 
Q 500 653 500 1363 
z
" transform="scale(0.015625)"/>
      <path id="DejaVuSans-Bold-73" d="M 3272 3391 
L 3272 2541 
Q 2913 2691 2578 2766 
Q 2244 2841 1947 2841 
Q 1628 2841 1473 2761 
Q 1319 2681 1319 2516 
Q 1319 2381 1436 2309 
Q 1553 2238 1856 2203 
L 2053 2175 
Q 2913 2066 3209 1816 
Q 3506 1566 3506 1031 
Q 3506 472 3093 190 
Q 2681 -91 1863 -91 
Q 1516 -91 1145 -36 
Q 775 19 384 128 
L 384 978 
Q 719 816 1070 734 
Q 1422 653 1784 653 
Q 2113 653 2278 743 
Q 2444 834 2444 1013 
Q 2444 1163 2330 1236 
Q 2216 1309 1875 1350 
L 1678 1375 
Q 931 1469 631 1722 
Q 331 1975 331 2491 
Q 331 3047 712 3315 
Q 1094 3584 1881 3584 
Q 2191 3584 2531 3537 
Q 2872 3491 3272 3391 
z
" transform="scale(0.015625)"/>
      <path id="DejaVuSans-Bold-69" d="M 538 3500 
L 1656 3500 
L 1656 0 
L 538 0 
L 538 3500 
z
M 538 4863 
L 1656 4863 
L 1656 3950 
L 538 3950 
L 538 4863 
z
" transform="scale(0.015625)"/>
      <path id="DejaVuSans-Bold-6e" d="M 4056 2131 
L 4056 0 
L 2931 0 
L 2931 347 
L 2931 1631 
Q 2931 2084 2911 2256 
Q 2891 2428 2841 2509 
Q 2775 2619 2662 2680 
Q 2550 2741 2406 2741 
Q 2056 2741 1856 2470 
Q 1656 2200 1656 1722 
L 1656 0 
L 538 0 
L 538 3500 
L 1656 3500 
L 1656 2988 
Q 1909 3294 2193 3439 
Q 2478 3584 2822 3584 
Q 3428 3584 3742 3212 
Q 4056 2841 4056 2131 
z
" transform="scale(0.015625)"/>
      <path id="DejaVuSans-Bold-65" d="M 4031 1759 
L 4031 1441 
L 1416 1441 
Q 1456 1047 1700 850 
Q 1944 653 2381 653 
Q 2734 653 3104 758 
Q 3475 863 3866 1075 
L 3866 213 
Q 3469 63 3072 -14 
Q 2675 -91 2278 -91 
Q 1328 -91 801 392 
Q 275 875 275 1747 
Q 275 2603 792 3093 
Q 1309 3584 2216 3584 
Q 3041 3584 3536 3087 
Q 4031 2591 4031 1759 
z
M 2881 2131 
Q 2881 2450 2695 2645 
Q 2509 2841 2209 2841 
Q 1884 2841 1681 2658 
Q 1478 2475 1428 2131 
L 2881 2131 
z
" transform="scale(0.015625)"/>
     </defs>
     <use xlink:href="#DejaVuSans-Bold-42"/>
     <use xlink:href="#DejaVuSans-Bold-75" transform="translate(76.220703 0)"/>
     <use xlink:href="#DejaVuSans-Bold-73" transform="translate(147.412109 0)"/>
     <use xlink:href="#DejaVuSans-Bold-69" transform="translate(206.933594 0)"/>
     <use xlink:href="#DejaVuSans-Bold-6e" transform="translate(241.210938 0)"/>
     <use xlink:href="#DejaVuSans-Bold-65" transform="translate(312.402344 0)"/>
     <use xlink:href="#DejaVuSans-Bold-73" transform="translate(380.224609 0)"/>
     <use xlink:href="#DejaVuSans-Bold-73" transform="translate(439.746094 0)"/>
    </g>
    <!-- Understanding -->
    <g style="fill: #ffffff" transform="translate(468.881688 268.605053) scale(0.14 -0.14)">
     <defs>
      <path id="DejaVuSans-Bold-55" d="M 588 4666 
L 1791 4666 
L 1791 1869 
Q 1791 1291 1980 1042 
Q 2169 794 2597 794 
Q 3028 794 3217 1042 
Q 3406 1291 3406 1869 
L 3406 4666 
L 4609 4666 
L 4609 1869 
Q 4609 878 4112 393 
Q 3616 -91 2597 -91 
Q 1581 -91 1084 393 
Q 588 878 588 1869 
L 588 4666 
z
" transform="scale(0.015625)"/>
      <path id="DejaVuSans-Bold-64" d="M 2919 2988 
L 2919 4863 
L 4044 4863 
L 4044 0 
L 2919 0 
L 2919 506 
Q 2688 197 2409 53 
Q 2131 -91 1766 -91 
Q 1119 -91 703 423 
Q 288 938 288 1747 
Q 288 2556 703 3070 
Q 1119 3584 1766 3584 
Q 2128 3584 2408 3439 
Q 2688 3294 2919 2988 
z
M 2181 722 
Q 2541 722 2730 984 
Q 2919 1247 2919 1747 
Q 2919 2247 2730 2509 
Q 2541 2772 2181 2772 
Q 1825 2772 1636 2509 
Q 1447 2247 1447 1747 
Q 1447 1247 1636 984 
Q 1825 722 2181 722 
z
" transform="scale(0.015625)"/>
      <path id="DejaVuSans-Bold-72" d="M 3138 2547 
Q 2991 2616 2845 2648 
Q 2700 2681 2553 2681 
Q 2122 2681 1889 2404 
Q 1656 2128 1656 1613 
L 1656 0 
L 538 0 
L 538 3500 
L 1656 3500 
L 1656 2925 
Q 1872 3269 2151 3426 
Q 2431 3584 2822 3584 
Q 2878 3584 2943 3579 
Q 3009 3575 3134 3559 
L 3138 2547 
z
" transform="scale(0.015625)"/>
      <path id="DejaVuSans-Bold-74" d="M 1759 4494 
L 1759 3500 
L 2913 3500 
L 2913 2700 
L 1759 2700 
L 1759 1216 
Q 1759 972 1856 886 
Q 1953 800 2241 800 
L 2816 800 
L 2816 0 
L 1856 0 
Q 1194 0 917 276 
Q 641 553 641 1216 
L 641 2700 
L 84 2700 
L 84 3500 
L 641 3500 
L 641 4494 
L 1759 4494 
z
" transform="scale(0.015625)"/>
      <path id="DejaVuSans-Bold-61" d="M 2106 1575 
Q 1756 1575 1579 1456 
Q 1403 1338 1403 1106 
Q 1403 894 1545 773 
Q 1688 653 1941 653 
Q 2256 653 2472 879 
Q 2688 1106 2688 1447 
L 2688 1575 
L 2106 1575 
z
M 3816 1997 
L 3816 0 
L 2688 0 
L 2688 519 
Q 2463 200 2181 54 
Q 1900 -91 1497 -91 
Q 953 -91 614 226 
Q 275 544 275 1050 
Q 275 1666 698 1953 
Q 1122 2241 2028 2241 
L 2688 2241 
L 2688 2328 
Q 2688 2594 2478 2717 
Q 2269 2841 1825 2841 
Q 1466 2841 1156 2769 
Q 847 2697 581 2553 
L 581 3406 
Q 941 3494 1303 3539 
Q 1666 3584 2028 3584 
Q 2975 3584 3395 3211 
Q 3816 2838 3816 1997 
z
" transform="scale(0.015625)"/>
      <path id="DejaVuSans-Bold-67" d="M 2919 594 
Q 2688 288 2409 144 
Q 2131 0 1766 0 
Q 1125 0 706 504 
Q 288 1009 288 1791 
Q 288 2575 706 3076 
Q 1125 3578 1766 3578 
Q 2131 3578 2409 3434 
Q 2688 3291 2919 2981 
L 2919 3500 
L 4044 3500 
L 4044 353 
Q 4044 -491 3511 -936 
Q 2978 -1381 1966 -1381 
Q 1638 -1381 1331 -1331 
Q 1025 -1281 716 -1178 
L 716 -306 
Q 1009 -475 1290 -558 
Q 1572 -641 1856 -641 
Q 2406 -641 2662 -400 
Q 2919 -159 2919 353 
L 2919 594 
z
M 2181 2772 
Q 1834 2772 1640 2515 
Q 1447 2259 1447 1791 
Q 1447 1309 1634 1061 
Q 1822 813 2181 813 
Q 2531 813 2725 1069 
Q 2919 1325 2919 1791 
Q 2919 2259 2725 2515 
Q 2531 2772 2181 2772 
z
" transform="scale(0.015625)"/>
     </defs>
     <use xlink:href="#DejaVuSans-Bold-55"/>
     <use xlink:href="#DejaVuSans-Bold-6e" transform="translate(81.201172 0)"/>
     <use xlink:href="#DejaVuSans-Bold-64" transform="translate(152.392578 0)"/>
     <use xlink:href="#DejaVuSans-Bold-65" transform="translate(223.974609 0)"/>
     <use xlink:href="#DejaVuSans-Bold-72" transform="translate(291.796875 0)"/>
     <use xlink:href="#DejaVuSans-Bold-73" transform="translate(341.113281 0)"/>
     <use xlink:href="#DejaVuSans-Bold-74" transform="translate(400.634766 0)"/>
     <use xlink:href="#DejaVuSans-Bold-61" transform="translate(448.4375 0)"/>
     <use xlink:href="#DejaVuSans-Bold-6e" transform="translate(515.917969 0)"/>
     <use xlink:href="#DejaVuSans-Bold-64" transform="translate(587.109375 0)"/>
     <use xlink:href="#DejaVuSans-Bold-69" transform="translate(658.691406 0)"/>
     <use xlink:href="#DejaVuSans-Bold-6e" transform="translate(692.96875 0)"/>
     <use xlink:href="#DejaVuSans-Bold-67" transform="translate(764.160156 0)"/>
    </g>
   </g>
   <g id="text_2">
    <g id="patch_9">
     <path d="M 567.863687 447.267844 
L 684.864312 447.267844 
Q 689.064313 447.267844 689.064313 443.067844 
L 689.064313 413.841531 
Q 689.064313 409.641531 684.864312 409.641531 
L 567.863687 409.641531 
Q 563.663687 409.641531 563.663687 413.841531 
L 563.663687 443.067844 
Q 563.663687 447.267844 567.863687 447.267844 
z
" style="fill: #2ecc71; opacity: 0.8"/>
    </g>
    <!-- Data -->
    <g style="fill: #ffffff" transform="translate(607.759313 424.369969) scale(0.14 -0.14)">
     <defs>
      <path id="DejaVuSans-Bold-44" d="M 1791 3756 
L 1791 909 
L 2222 909 
Q 2959 909 3348 1275 
Q 3738 1641 3738 2338 
Q 3738 3031 3350 3393 
Q 2963 3756 2222 3756 
L 1791 3756 
z
M 588 4666 
L 1856 4666 
Q 2919 4666 3439 4514 
Q 3959 4363 4331 4000 
Q 4659 3684 4818 3271 
Q 4978 2859 4978 2338 
Q 4978 1809 4818 1395 
Q 4659 981 4331 666 
Q 3956 303 3431 151 
Q 2906 0 1856 0 
L 588 0 
L 588 4666 
z
" transform="scale(0.015625)"/>
     </defs>
     <use xlink:href="#DejaVuSans-Bold-44"/>
     <use xlink:href="#DejaVuSans-Bold-61" transform="translate(83.007812 0)"/>
     <use xlink:href="#DejaVuSans-Bold-74" transform="translate(150.488281 0)"/>
     <use xlink:href="#DejaVuSans-Bold-61" transform="translate(198.291016 0)"/>
    </g>
    <!-- Understanding -->
    <g style="fill: #ffffff" transform="translate(567.863687 440.046906) scale(0.14 -0.14)">
     <use xlink:href="#DejaVuSans-Bold-55"/>
     <use xlink:href="#DejaVuSans-Bold-6e" transform="translate(81.201172 0)"/>
     <use xlink:href="#DejaVuSans-Bold-64" transform="translate(152.392578 0)"/>
     <use xlink:href="#DejaVuSans-Bold-65" transform="translate(223.974609 0)"/>
     <use xlink:href="#DejaVuSans-Bold-72" transform="translate(291.796875 0)"/>
     <use xlink:href="#DejaVuSans-Bold-73" transform="translate(341.113281 0)"/>
     <use xlink:href="#DejaVuSans-Bold-74" transform="translate(400.634766 0)"/>
     <use xlink:href="#DejaVuSans-Bold-61" transform="translate(448.4375 0)"/>
     <use xlink:href="#DejaVuSans-Bold-6e" transform="translate(515.917969 0)"/>
     <use xlink:href="#DejaVuSans-Bold-64" transform="translate(587.109375 0)"/>
     <use xlink:href="#DejaVuSans-Bold-69" transform="translate(658.691406 0)"/>
     <use xlink:href="#DejaVuSans-Bold-6e" transform="translate(692.96875 0)"/>
     <use xlink:href="#DejaVuSans-Bold-67" transform="translate(764.160156 0)"/>
    </g>
   </g>
   <g id="text_3">
    <g id="patch_10">
     <path d="M 480.603406 618.655009 
L 574.160594 618.655009 
Q 578.360594 618.655009 578.360594 614.455009 
L 578.360594 585.228697 
Q 578.360594 581.028697 574.160594 581.028697 
L 480.603406 581.028697 
Q 476.403406 581.028697 476.403406 585.228697 
L 476.403406 614.455009 
Q 476.403406 618.655009 480.603406 618.655009 
z
" style="fill: #f39c12; opacity: 0.8"/>
    </g>
    <!-- Data -->
    <g style="fill: #ffffff" transform="translate(508.777313 595.866509) scale(0.14 -0.14)">
     <use xlink:href="#DejaVuSans-Bold-44"/>
     <use xlink:href="#DejaVuSans-Bold-61" transform="translate(83.007812 0)"/>
     <use xlink:href="#DejaVuSans-Bold-74" transform="translate(150.488281 0)"/>
     <use xlink:href="#DejaVuSans-Bold-61" transform="translate(198.291016 0)"/>
    </g>
    <!-- Preparation -->
    <g style="fill: #ffffff" transform="translate(480.603406 611.543447) scale(0.14 -0.14)">
     <defs>
      <path id="DejaVuSans-Bold-50" d="M 588 4666 
L 2584 4666 
Q 3475 4666 3951 4270 
Q 4428 3875 4428 3144 
Q 4428 2409 3951 2014 
Q 3475 1619 2584 1619 
L 1791 1619 
L 1791 0 
L 588 0 
L 588 4666 
z
M 1791 3794 
L 1791 2491 
L 2456 2491 
Q 2806 2491 2997 2661 
Q 3188 2831 3188 3144 
Q 3188 3456 2997 3625 
Q 2806 3794 2456 3794 
L 1791 3794 
z
" transform="scale(0.015625)"/>
      <path id="DejaVuSans-Bold-70" d="M 1656 506 
L 1656 -1331 
L 538 -1331 
L 538 3500 
L 1656 3500 
L 1656 2988 
Q 1888 3294 2169 3439 
Q 2450 3584 2816 3584 
Q 3463 3584 3878 3070 
Q 4294 2556 4294 1747 
Q 4294 938 3878 423 
Q 3463 -91 2816 -91 
Q 2450 -91 2169 54 
Q 1888 200 1656 506 
z
M 2400 2772 
Q 2041 2772 1848 2508 
Q 1656 2244 1656 1747 
Q 1656 1250 1848 986 
Q 2041 722 2400 722 
Q 2759 722 2948 984 
Q 3138 1247 3138 1747 
Q 3138 2247 2948 2509 
Q 2759 2772 2400 2772 
z
" transform="scale(0.015625)"/>
      <path id="DejaVuSans-Bold-6f" d="M 2203 2784 
Q 1831 2784 1636 2517 
Q 1441 2250 1441 1747 
Q 1441 1244 1636 976 
Q 1831 709 2203 709 
Q 2569 709 2762 976 
Q 2956 1244 2956 1747 
Q 2956 2250 2762 2517 
Q 2569 2784 2203 2784 
z
M 2203 3584 
Q 3106 3584 3614 3096 
Q 4122 2609 4122 1747 
Q 4122 884 3614 396 
Q 3106 -91 2203 -91 
Q 1297 -91 786 396 
Q 275 884 275 1747 
Q 275 2609 786 3096 
Q 1297 3584 2203 3584 
z
" transform="scale(0.015625)"/>
     </defs>
     <use xlink:href="#DejaVuSans-Bold-50"/>
     <use xlink:href="#DejaVuSans-Bold-72" transform="translate(73.291016 0)"/>
     <use xlink:href="#DejaVuSans-Bold-65" transform="translate(122.607422 0)"/>
     <use xlink:href="#DejaVuSans-Bold-70" transform="translate(190.429688 0)"/>
     <use xlink:href="#DejaVuSans-Bold-61" transform="translate(262.011719 0)"/>
     <use xlink:href="#DejaVuSans-Bold-72" transform="translate(329.492188 0)"/>
     <use xlink:href="#DejaVuSans-Bold-61" transform="translate(378.808594 0)"/>
     <use xlink:href="#DejaVuSans-Bold-74" transform="translate(446.289062 0)"/>
     <use xlink:href="#DejaVuSans-Bold-69" transform="translate(494.091797 0)"/>
     <use xlink:href="#DejaVuSans-Bold-6f" transform="translate(528.369141 0)"/>
     <use xlink:href="#DejaVuSans-Bold-6e" transform="translate(597.070312 0)"/>
    </g>
   </g>
   <g id="text_4">
    <g id="patch_11">
     <path d="M 293.091281 610.871228 
L 365.744719 610.871228 
Q 369.944719 610.871228 369.944719 606.671228 
L 369.944719 593.012478 
Q 369.944719 588.812478 365.744719 588.812478 
L 293.091281 588.812478 
Q 288.891281 588.812478 288.891281 593.012478 
L 288.891281 606.671228 
Q 288.891281 610.871228 293.091281 610.871228 
z
" style="fill: #e74c3c; opacity: 0.8"/>
    </g>
    <!-- Modeling -->
    <g style="fill: #ffffff" transform="translate(293.091281 603.650291) scale(0.14 -0.14)">
     <defs>
      <path id="DejaVuSans-Bold-4d" d="M 588 4666 
L 2119 4666 
L 3181 2169 
L 4250 4666 
L 5778 4666 
L 5778 0 
L 4641 0 
L 4641 3413 
L 3566 897 
L 2803 897 
L 1728 3413 
L 1728 0 
L 588 0 
L 588 4666 
z
" transform="scale(0.015625)"/>
      <path id="DejaVuSans-Bold-6c" d="M 538 4863 
L 1656 4863 
L 1656 0 
L 538 0 
L 538 4863 
z
" transform="scale(0.015625)"/>
     </defs>
     <use xlink:href="#DejaVuSans-Bold-4d"/>
     <use xlink:href="#DejaVuSans-Bold-6f" transform="translate(99.511719 0)"/>
     <use xlink:href="#DejaVuSans-Bold-64" transform="translate(168.212891 0)"/>
     <use xlink:href="#DejaVuSans-Bold-65" transform="translate(239.794922 0)"/>
     <use xlink:href="#DejaVuSans-Bold-6c" transform="translate(307.617188 0)"/>
     <use xlink:href="#DejaVuSans-Bold-69" transform="translate(341.894531 0)"/>
     <use xlink:href="#DejaVuSans-Bold-6e" transform="translate(376.171875 0)"/>
     <use xlink:href="#DejaVuSans-Bold-67" transform="translate(447.363281 0)"/>
    </g>
   </g>
   <g id="text_5">
    <g id="patch_12">
     <path d="M 188.722562 439.374688 
L 272.149437 439.374688 
Q 276.349437 439.374688 276.349437 435.174688 
L 276.349437 421.625313 
Q 276.349437 417.425313 272.149437 417.425313 
L 188.722562 417.425313 
Q 184.522562 417.425313 184.522562 421.625313 
L 184.522562 435.174688 
Q 184.522562 439.374688 188.722562 439.374688 
z
" style="fill: #9b59b6; opacity: 0.8"/>
    </g>
    <!-- Evaluation -->
    <g style="fill: #ffffff" transform="translate(188.722562 432.263125) scale(0.14 -0.14)">
     <defs>
      <path id="DejaVuSans-Bold-45" d="M 588 4666 
L 3834 4666 
L 3834 3756 
L 1791 3756 
L 1791 2888 
L 3713 2888 
L 3713 1978 
L 1791 1978 
L 1791 909 
L 3903 909 
L 3903 0 
L 588 0 
L 588 4666 
z
" transform="scale(0.015625)"/>
      <path id="DejaVuSans-Bold-76" d="M 97 3500 
L 1216 3500 
L 2088 1081 
L 2956 3500 
L 4078 3500 
L 2700 0 
L 1472 0 
L 97 3500 
z
" transform="scale(0.015625)"/>
     </defs>
     <use xlink:href="#DejaVuSans-Bold-45"/>
     <use xlink:href="#DejaVuSans-Bold-76" transform="translate(68.310547 0)"/>
     <use xlink:href="#DejaVuSans-Bold-61" transform="translate(133.496094 0)"/>
     <use xlink:href="#DejaVuSans-Bold-6c" transform="translate(200.976562 0)"/>
     <use xlink:href="#DejaVuSans-Bold-75" transform="translate(235.253906 0)"/>
     <use xlink:href="#DejaVuSans-Bold-61" transform="translate(306.445312 0)"/>
     <use xlink:href="#DejaVuSans-Bold-74" transform="translate(373.925781 0)"/>
     <use xlink:href="#DejaVuSans-Bold-69" transform="translate(421.728516 0)"/>
     <use xlink:href="#DejaVuSans-Bold-6f" transform="translate(456.005859 0)"/>
     <use xlink:href="#DejaVuSans-Bold-6e" transform="translate(524.707031 0)"/>
    </g>
   </g>
   <g id="text_6">
    <g id="patch_13">
     <path d="M 281.705344 267.987522 
L 377.130656 267.987522 
Q 381.330656 267.987522 381.330656 263.787522 
L 381.330656 250.128772 
Q 381.330656 245.928772 377.130656 245.928772 
L 281.705344 245.928772 
Q 277.505344 245.928772 277.505344 250.128772 
L 277.505344 263.787522 
Q 277.505344 267.987522 281.705344 267.987522 
z
" style="fill: #1abc9c; opacity: 0.8"/>
    </g>
    <!-- Deployment -->
    <g style="fill: #ffffff" transform="translate(281.705344 260.766584) scale(0.14 -0.14)">
     <defs>
      <path id="DejaVuSans-Bold-79" d="M 78 3500 
L 1197 3500 
L 2138 1125 
L 2938 3500 
L 4056 3500 
L 2584 -331 
Q 2363 -916 2067 -1148 
Q 1772 -1381 1288 -1381 
L 641 -1381 
L 641 -647 
L 991 -647 
Q 1275 -647 1404 -556 
Q 1534 -466 1606 -231 
L 1638 -134 
L 78 3500 
z
" transform="scale(0.015625)"/>
      <path id="DejaVuSans-Bold-6d" d="M 3781 2919 
Q 3994 3244 4286 3414 
Q 4578 3584 4928 3584 
Q 5531 3584 5847 3212 
Q 6163 2841 6163 2131 
L 6163 0 
L 5038 0 
L 5038 1825 
Q 5041 1866 5042 1909 
Q 5044 1953 5044 2034 
Q 5044 2406 4934 2573 
Q 4825 2741 4581 2741 
Q 4263 2741 4089 2478 
Q 3916 2216 3909 1719 
L 3909 0 
L 2784 0 
L 2784 1825 
Q 2784 2406 2684 2573 
Q 2584 2741 2328 2741 
Q 2006 2741 1831 2477 
Q 1656 2213 1656 1722 
L 1656 0 
L 531 0 
L 531 3500 
L 1656 3500 
L 1656 2988 
Q 1863 3284 2130 3434 
Q 2397 3584 2719 3584 
Q 3081 3584 3359 3409 
Q 3638 3234 3781 2919 
z
" transform="scale(0.015625)"/>
     </defs>
     <use xlink:href="#DejaVuSans-Bold-44"/>
     <use xlink:href="#DejaVuSans-Bold-65" transform="translate(83.007812 0)"/>
     <use xlink:href="#DejaVuSans-Bold-70" transform="translate(150.830078 0)"/>
     <use xlink:href="#DejaVuSans-Bold-6c" transform="translate(222.412109 0)"/>
     <use xlink:href="#DejaVuSans-Bold-6f" transform="translate(256.689453 0)"/>
     <use xlink:href="#DejaVuSans-Bold-79" transform="translate(325.390625 0)"/>
     <use xlink:href="#DejaVuSans-Bold-6d" transform="translate(390.576172 0)"/>
     <use xlink:href="#DejaVuSans-Bold-65" transform="translate(494.775391 0)"/>
     <use xlink:href="#DejaVuSans-Bold-6e" transform="translate(562.597656 0)"/>
     <use xlink:href="#DejaVuSans-Bold-74" transform="translate(633.789062 0)"/>
    </g>
   </g>
   <g id="patch_14">
    <path d="M 428.4 529.488 
C 455.208851 529.488 480.92329 518.836731 499.88001 499.88001 
C 518.836731 480.92329 529.488 455.208851 529.488 428.4 
C 529.488 401.591149 518.836731 375.87671 499.88001 356.91999 
C 480.92329 337.963269 455.208851 327.312 428.4 327.312 
C 401.591149 327.312 375.87671 337.963269 356.91999 356.91999 
C 337.963269 375.87671 327.312 401.591149 327.312 428.4 
C 327.312 455.208851 337.963269 480.92329 356.91999 499.88001 
C 375.87671 518.836731 401.591149 529.488 428.4 529.488 
z
" clip-path="url(#p91e87ae949)" style="fill: #ffffff; stroke: #2c3e50; stroke-width: 3; stroke-linejoin: miter"/>
   </g>
   <g id="text_7">
    <!-- CRISP-DM -->
    <g style="fill: #2c3e50" transform="translate(372.88125 422.720938) scale(0.2 -0.2)">
     <defs>
      <path id="DejaVuSans-Bold-43" d="M 4288 256 
Q 3956 84 3597 -3 
Q 3238 -91 2847 -91 
Q 1681 -91 1000 561 
Q 319 1213 319 2328 
Q 319 3447 1000 4098 
Q 1681 4750 2847 4750 
Q 3238 4750 3597 4662 
Q 3956 4575 4288 4403 
L 4288 3438 
Q 3953 3666 3628 3772 
Q 3303 3878 2944 3878 
Q 2300 3878 1931 3465 
Q 1563 3053 1563 2328 
Q 1563 1606 1931 1193 
Q 2300 781 2944 781 
Q 3303 781 3628 887 
Q 3953 994 4288 1222 
L 4288 256 
z
" transform="scale(0.015625)"/>
      <path id="DejaVuSans-Bold-52" d="M 2297 2597 
Q 2675 2597 2839 2737 
Q 3003 2878 3003 3200 
Q 3003 3519 2839 3656 
Q 2675 3794 2297 3794 
L 1791 3794 
L 1791 2597 
L 2297 2597 
z
M 1791 1766 
L 1791 0 
L 588 0 
L 588 4666 
L 2425 4666 
Q 3347 4666 3776 4356 
Q 4206 4047 4206 3378 
Q 4206 2916 3982 2619 
Q 3759 2322 3309 2181 
Q 3556 2125 3751 1926 
Q 3947 1728 4147 1325 
L 4800 0 
L 3519 0 
L 2950 1159 
Q 2778 1509 2601 1637 
Q 2425 1766 2131 1766 
L 1791 1766 
z
" transform="scale(0.015625)"/>
      <path id="DejaVuSans-Bold-49" d="M 588 4666 
L 1791 4666 
L 1791 0 
L 588 0 
L 588 4666 
z
" transform="scale(0.015625)"/>
      <path id="DejaVuSans-Bold-53" d="M 3834 4519 
L 3834 3531 
Q 3450 3703 3084 3790 
Q 2719 3878 2394 3878 
Q 1963 3878 1756 3759 
Q 1550 3641 1550 3391 
Q 1550 3203 1689 3098 
Q 1828 2994 2194 2919 
L 2706 2816 
Q 3484 2659 3812 2340 
Q 4141 2022 4141 1434 
Q 4141 663 3683 286 
Q 3225 -91 2284 -91 
Q 1841 -91 1394 -6 
Q 947 78 500 244 
L 500 1259 
Q 947 1022 1364 901 
Q 1781 781 2169 781 
Q 2563 781 2772 912 
Q 2981 1044 2981 1288 
Q 2981 1506 2839 1625 
Q 2697 1744 2272 1838 
L 1806 1941 
Q 1106 2091 782 2419 
Q 459 2747 459 3303 
Q 459 4000 909 4375 
Q 1359 4750 2203 4750 
Q 2588 4750 2994 4692 
Q 3400 4634 3834 4519 
z
" transform="scale(0.015625)"/>
      <path id="DejaVuSans-Bold-2d" d="M 347 2297 
L 2309 2297 
L 2309 1388 
L 347 1388 
L 347 2297 
z
" transform="scale(0.015625)"/>
     </defs>
     <use xlink:href="#DejaVuSans-Bold-43"/>
     <use xlink:href="#DejaVuSans-Bold-52" transform="translate(73.388672 0)"/>
     <use xlink:href="#DejaVuSans-Bold-49" transform="translate(150.390625 0)"/>
     <use xlink:href="#DejaVuSans-Bold-53" transform="translate(187.597656 0)"/>
     <use xlink:href="#DejaVuSans-Bold-50" transform="translate(259.619141 0)"/>
     <use xlink:href="#DejaVuSans-Bold-2d" transform="translate(331.160156 0)"/>
     <use xlink:href="#DejaVuSans-Bold-44" transform="translate(372.664062 0)"/>
     <use xlink:href="#DejaVuSans-Bold-4d" transform="translate(455.671875 0)"/>
    </g>
    <!-- Method -->
    <g style="fill: #2c3e50" transform="translate(385.739062 445.116563) scale(0.2 -0.2)">
     <defs>
      <path id="DejaVuSans-Bold-68" d="M 4056 2131 
L 4056 0 
L 2931 0 
L 2931 347 
L 2931 1625 
Q 2931 2084 2911 2256 
Q 2891 2428 2841 2509 
Q 2775 2619 2662 2680 
Q 2550 2741 2406 2741 
Q 2056 2741 1856 2470 
Q 1656 2200 1656 1722 
L 1656 0 
L 538 0 
L 538 4863 
L 1656 4863 
L 1656 2988 
Q 1909 3294 2193 3439 
Q 2478 3584 2822 3584 
Q 3428 3584 3742 3212 
Q 4056 2841 4056 2131 
z
" transform="scale(0.015625)"/>
     </defs>
     <use xlink:href="#DejaVuSans-Bold-4d"/>
     <use xlink:href="#DejaVuSans-Bold-65" transform="translate(99.511719 0)"/>
     <use xlink:href="#DejaVuSans-Bold-74" transform="translate(167.333984 0)"/>
     <use xlink:href="#DejaVuSans-Bold-68" transform="translate(215.136719 0)"/>
     <use xlink:href="#DejaVuSans-Bold-6f" transform="translate(286.328125 0)"/>
     <use xlink:href="#DejaVuSans-Bold-64" transform="translate(355.029297 0)"/>
    </g>
   </g>
  </g>
 </g>
 <defs>
  <clipPath id="p91e87ae949">
   <rect x="7.2" y="7.2" width="842.4" height="842.4"/>
  </clipPath>
 </defs>
</svg>
