<?xml version="1.0" encoding="utf-8" standalone="no"?>
<!DOCTYPE svg PUBLIC "-//W3C//DTD SVG 1.1//EN"
  "http://www.w3.org/Graphics/SVG/1.1/DTD/svg11.dtd">
<svg xmlns:xlink="http://www.w3.org/1999/xlink" width="572.4pt" height="457.92pt" viewBox="0 0 572.4 457.92" xmlns="http://www.w3.org/2000/svg" version="1.1">
 <metadata>
  <rdf:RDF xmlns:dc="http://purl.org/dc/elements/1.1/" xmlns:cc="http://creativecommons.org/ns#" xmlns:rdf="http://www.w3.org/1999/02/22-rdf-syntax-ns#">
   <cc:Work>
    <dc:type rdf:resource="http://purl.org/dc/dcmitype/StillImage"/>
    <dc:date>2026-05-25T19:36:48.691231</dc:date>
    <dc:format>image/svg+xml</dc:format>
    <dc:creator>
     <cc:Agent>
      <dc:title>Matplotlib v3.10.8, https://matplotlib.org/</dc:title>
     </cc:Agent>
    </dc:creator>
   </cc:Work>
  </rdf:RDF>
 </metadata>
 <defs>
  <style type="text/css">*{stroke-linejoin: round; stroke-linecap: butt}</style>
 </defs>
 <g id="figure_1">
  <g id="patch_1">
   <path d="M 0 457.92 
L 572.4 457.92 
L 572.4 0 
L 0 0 
z
" style="fill: #ffffff"/>
  </g>
  <g id="axes_1">
   <g id="patch_2">
    <path d="M 118.8 108.989248 
Q 118.8 138.03751 118.8 164.849704 
" clip-path="url(#p2b436a93cc)" style="fill: none; stroke: #333333; stroke-width: 2; stroke-linecap: round"/>
    <path d="M 122.8 156.849704 
L 118.8 164.849704 
L 114.8 156.849704 
" clip-path="url(#p2b436a93cc)" style="fill: none; stroke: #333333; stroke-width: 2; stroke-linecap: round"/>
   </g>
   <g id="patch_3">
    <path d="M 230.4 108.989248 
Q 230.4 138.03751 230.4 164.849704 
" clip-path="url(#p2b436a93cc)" style="fill: none; stroke: #333333; stroke-width: 2; stroke-linecap: round"/>
    <path d="M 234.4 156.849704 
L 230.4 164.849704 
L 226.4 156.849704 
" clip-path="url(#p2b436a93cc)" style="fill: none; stroke: #333333; stroke-width: 2; stroke-linecap: round"/>
   </g>
   <g id="patch_4">
    <path d="M 140.327735 184.608 
Q 230.39972 184.608 318.235637 184.608 
" clip-path="url(#p2b436a93cc)" style="fill: none; stroke: #333333; stroke-width: 2; stroke-linecap: round"/>
    <path d="M 310.235637 180.608 
L 318.235637 184.608 
L 310.235637 188.608 
" clip-path="url(#p2b436a93cc)" style="fill: none; stroke: #333333; stroke-width: 2; stroke-linecap: round"/>
   </g>
   <g id="patch_5">
    <path d="M 251.926798 184.608 
Q 286.197343 184.608 318.231821 184.608 
" clip-path="url(#p2b436a93cc)" style="fill: none; stroke: #333333; stroke-width: 2; stroke-linecap: round"/>
    <path d="M 310.231821 180.608 
L 318.231821 184.608 
L 310.231821 188.608 
" clip-path="url(#p2b436a93cc)" style="fill: none; stroke: #333333; stroke-width: 2; stroke-linecap: round"/>
   </g>
   <g id="patch_6">
    <path d="M 342 108.989248 
Q 342 138.03751 342 164.849704 
" clip-path="url(#p2b436a93cc)" style="fill: none; stroke: #333333; stroke-width: 2; stroke-linecap: round"/>
    <path d="M 346 156.849704 
L 342 164.849704 
L 338 156.849704 
" clip-path="url(#p2b436a93cc)" style="fill: none; stroke: #333333; stroke-width: 2; stroke-linecap: round"/>
   </g>
   <g id="patch_7">
    <path d="M 140.329097 184.608 
Q 286.197792 184.608 429.83042 184.608 
" clip-path="url(#p2b436a93cc)" style="fill: none; stroke: #333333; stroke-width: 2; stroke-linecap: round"/>
    <path d="M 421.83042 180.608 
L 429.83042 184.608 
L 421.83042 188.608 
" clip-path="url(#p2b436a93cc)" style="fill: none; stroke: #333333; stroke-width: 2; stroke-linecap: round"/>
   </g>
   <g id="patch_8">
    <path d="M 363.526798 184.608 
Q 397.797343 184.608 429.831821 184.608 
" clip-path="url(#p2b436a93cc)" style="fill: none; stroke: #333333; stroke-width: 2; stroke-linecap: round"/>
    <path d="M 421.831821 180.608 
L 429.831821 184.608 
L 421.831821 188.608 
" clip-path="url(#p2b436a93cc)" style="fill: none; stroke: #333333; stroke-width: 2; stroke-linecap: round"/>
   </g>
   <g id="patch_9">
    <path d="M 453.6 108.989248 
Q 453.6 138.03751 453.6 164.849704 
" clip-path="url(#p2b436a93cc)" style="fill: none; stroke: #333333; stroke-width: 2; stroke-linecap: round"/>
    <path d="M 457.6 156.849704 
L 453.6 164.849704 
L 449.6 156.849704 
" clip-path="url(#p2b436a93cc)" style="fill: none; stroke: #333333; stroke-width: 2; stroke-linecap: round"/>
   </g>
   <g id="patch_10">
    <path d="M 118.8 106.992 
C 122.499583 106.992 126.048139 105.823698 128.66414 103.7444 
C 131.28014 101.665102 132.75 98.844572 132.75 95.904 
C 132.75 92.963428 131.28014 90.142898 128.66414 88.0636 
C 126.048139 85.984302 122.499583 84.816 118.8 84.816 
C 115.100417 84.816 111.551861 85.984302 108.93586 88.0636 
C 106.31986 90.142898 104.85 92.963428 104.85 95.904 
C 104.85 98.844572 106.31986 101.665102 108.93586 103.7444 
C 111.551861 105.823698 115.100417 106.992 118.8 106.992 
z
" clip-path="url(#p2b436a93cc)" style="fill: #ffe6e6; stroke: #cc0000; stroke-width: 2; stroke-linejoin: miter"/>
   </g>
   <g id="patch_11">
    <path d="M 230.4 106.992 
C 234.099583 106.992 237.648139 105.823698 240.26414 103.7444 
C 242.88014 101.665102 244.35 98.844572 244.35 95.904 
C 244.35 92.963428 242.88014 90.142898 240.26414 88.0636 
C 237.648139 85.984302 234.099583 84.816 230.4 84.816 
C 226.700417 84.816 223.151861 85.984302 220.53586 88.0636 
C 217.91986 90.142898 216.45 92.963428 216.45 95.904 
C 216.45 98.844572 217.91986 101.665102 220.53586 103.7444 
C 223.151861 105.823698 226.700417 106.992 230.4 106.992 
z
" clip-path="url(#p2b436a93cc)" style="fill: #ffe6e6; stroke: #cc0000; stroke-width: 2; stroke-linejoin: miter"/>
   </g>
   <g id="patch_12">
    <path d="M 342 106.992 
C 345.699583 106.992 349.248139 105.823698 351.86414 103.7444 
C 354.48014 101.665102 355.95 98.844572 355.95 95.904 
C 355.95 92.963428 354.48014 90.142898 351.86414 88.0636 
C 349.248139 85.984302 345.699583 84.816 342 84.816 
C 338.300417 84.816 334.751861 85.984302 332.13586 88.0636 
C 329.51986 90.142898 328.05 92.963428 328.05 95.904 
C 328.05 98.844572 329.51986 101.665102 332.13586 103.7444 
C 334.751861 105.823698 338.300417 106.992 342 106.992 
z
" clip-path="url(#p2b436a93cc)" style="fill: #ffe6e6; stroke: #cc0000; stroke-width: 2; stroke-linejoin: miter"/>
   </g>
   <g id="patch_13">
    <path d="M 453.6 106.992 
C 457.299583 106.992 460.848139 105.823698 463.46414 103.7444 
C 466.08014 101.665102 467.55 98.844572 467.55 95.904 
C 467.55 92.963428 466.08014 90.142898 463.46414 88.0636 
C 460.848139 85.984302 457.299583 84.816 453.6 84.816 
C 449.900417 84.816 446.351861 85.984302 443.73586 88.0636 
C 441.11986 90.142898 439.65 92.963428 439.65 95.904 
C 439.65 98.844572 441.11986 101.665102 443.73586 103.7444 
C 446.351861 105.823698 449.900417 106.992 453.6 106.992 
z
" clip-path="url(#p2b436a93cc)" style="fill: #ffe6e6; stroke: #cc0000; stroke-width: 2; stroke-linejoin: miter"/>
   </g>
   <g id="patch_14">
    <path d="M 118.8 200.1312 
C 123.979417 200.1312 128.947395 198.495578 132.609795 195.58456 
C 136.272196 192.673542 138.33 188.724801 138.33 184.608 
C 138.33 180.491199 136.272196 176.542458 132.609795 173.63144 
C 128.947395 170.720422 123.979417 169.0848 118.8 169.0848 
C 113.620583 169.0848 108.652605 170.720422 104.990205 173.63144 
C 101.327804 176.542458 99.27 180.491199 99.27 184.608 
C 99.27 188.724801 101.327804 192.673542 104.990205 195.58456 
C 108.652605 198.495578 113.620583 200.1312 118.8 200.1312 
z
" clip-path="url(#p2b436a93cc)" style="fill: #e6f3ff; stroke: #0066cc; stroke-width: 2.5; stroke-linejoin: miter"/>
   </g>
   <g id="patch_15">
    <path d="M 230.4 200.1312 
C 235.579417 200.1312 240.547395 198.495578 244.209795 195.58456 
C 247.872196 192.673542 249.93 188.724801 249.93 184.608 
C 249.93 180.491199 247.872196 176.542458 244.209795 173.63144 
C 240.547395 170.720422 235.579417 169.0848 230.4 169.0848 
C 225.220583 169.0848 220.252605 170.720422 216.590205 173.63144 
C 212.927804 176.542458 210.87 180.491199 210.87 184.608 
C 210.87 188.724801 212.927804 192.673542 216.590205 195.58456 
C 220.252605 198.495578 225.220583 200.1312 230.4 200.1312 
z
" clip-path="url(#p2b436a93cc)" style="fill: #e6f3ff; stroke: #0066cc; stroke-width: 2.5; stroke-linejoin: miter"/>
   </g>
   <g id="patch_16">
    <path d="M 342 200.1312 
C 347.179417 200.1312 352.147395 198.495578 355.809795 195.58456 
C 359.472196 192.673542 361.53 188.724801 361.53 184.608 
C 361.53 180.491199 359.472196 176.542458 355.809795 173.63144 
C 352.147395 170.720422 347.179417 169.0848 342 169.0848 
C 336.820583 169.0848 331.852605 170.720422 328.190205 173.63144 
C 324.527804 176.542458 322.47 180.491199 322.47 184.608 
C 322.47 188.724801 324.527804 192.673542 328.190205 195.58456 
C 331.852605 198.495578 336.820583 200.1312 342 200.1312 
z
" clip-path="url(#p2b436a93cc)" style="fill: #e6f3ff; stroke: #0066cc; stroke-width: 2.5; stroke-linejoin: miter"/>
   </g>
   <g id="patch_17">
    <path d="M 453.6 200.1312 
C 458.779417 200.1312 463.747395 198.495578 467.409795 195.58456 
C 471.072196 192.673542 473.13 188.724801 473.13 184.608 
C 473.13 180.491199 471.072196 176.542458 467.409795 173.63144 
C 463.747395 170.720422 458.779417 169.0848 453.6 169.0848 
C 448.420583 169.0848 443.452605 170.720422 439.790205 173.63144 
C 436.127804 176.542458 434.07 180.491199 434.07 184.608 
C 434.07 188.724801 436.127804 192.673542 439.790205 195.58456 
C 443.452605 198.495578 448.420583 200.1312 453.6 200.1312 
z
" clip-path="url(#p2b436a93cc)" style="fill: #ffe6cc; stroke: #ff8800; stroke-width: 2.5; stroke-linejoin: miter"/>
   </g>
   <g id="text_1">
    <!-- Example Structural Causal Model (SCM) -->
    <g transform="translate(129.492969 29.376) scale(0.14 -0.14)">
     <defs>
      <path id="DejaVuSans-Bold-45" d="M 588 4666 
L 3834 4666 
L 3834 3756 
L 1791 3756 
L 1791 2888 
L 3713 2888 
L 3713 1978 
L 1791 1978 
L 1791 909 
L 3903 909 
L 3903 0 
L 588 0 
L 588 4666 
z
" transform="scale(0.015625)"/>
      <path id="DejaVuSans-Bold-78" d="M 1422 1791 
L 159 3500 
L 1344 3500 
L 2059 2463 
L 2784 3500 
L 3969 3500 
L 2706 1797 
L 4031 0 
L 2847 0 
L 2059 1106 
L 1281 0 
L 97 0 
L 1422 1791 
z
" transform="scale(0.015625)"/>
      <path id="DejaVuSans-Bold-61" d="M 2106 1575 
Q 1756 1575 1579 1456 
Q 1403 1338 1403 1106 
Q 1403 894 1545 773 
Q 1688 653 1941 653 
Q 2256 653 2472 879 
Q 2688 1106 2688 1447 
L 2688 1575 
L 2106 1575 
z
M 3816 1997 
L 3816 0 
L 2688 0 
L 2688 519 
Q 2463 200 2181 54 
Q 1900 -91 1497 -91 
Q 953 -91 614 226 
Q 275 544 275 1050 
Q 275 1666 698 1953 
Q 1122 2241 2028 2241 
L 2688 2241 
L 2688 2328 
Q 2688 2594 2478 2717 
Q 2269 2841 1825 2841 
Q 1466 2841 1156 2769 
Q 847 2697 581 2553 
L 581 3406 
Q 941 3494 1303 3539 
Q 1666 3584 2028 3584 
Q 2975 3584 3395 3211 
Q 3816 2838 3816 1997 
z
" transform="scale(0.015625)"/>
      <path id="DejaVuSans-Bold-6d" d="M 3781 2919 
Q 3994 3244 4286 3414 
Q 4578 3584 4928 3584 
Q 5531 3584 5847 3212 
Q 6163 2841 6163 2131 
L 6163 0 
L 5038 0 
L 5038 1825 
Q 5041 1866 5042 1909 
Q 5044 1953 5044 2034 
Q 5044 2406 4934 2573 
Q 4825 2741 4581 2741 
Q 4263 2741 4089 2478 
Q 3916 2216 3909 1719 
L 3909 0 
L 2784 0 
L 2784 1825 
Q 2784 2406 2684 2573 
Q 2584 2741 2328 2741 
Q 2006 2741 1831 2477 
Q 1656 2213 1656 1722 
L 1656 0 
L 531 0 
L 531 3500 
L 1656 3500 
L 1656 2988 
Q 1863 3284 2130 3434 
Q 2397 3584 2719 3584 
Q 3081 3584 3359 3409 
Q 3638 3234 3781 2919 
z
" transform="scale(0.015625)"/>
      <path id="DejaVuSans-Bold-70" d="M 1656 506 
L 1656 -1331 
L 538 -1331 
L 538 3500 
L 1656 3500 
L 1656 2988 
Q 1888 3294 2169 3439 
Q 2450 3584 2816 3584 
Q 3463 3584 3878 3070 
Q 4294 2556 4294 1747 
Q 4294 938 3878 423 
Q 3463 -91 2816 -91 
Q 2450 -91 2169 54 
Q 1888 200 1656 506 
z
M 2400 2772 
Q 2041 2772 1848 2508 
Q 1656 2244 1656 1747 
Q 1656 1250 1848 986 
Q 2041 722 2400 722 
Q 2759 722 2948 984 
Q 3138 1247 3138 1747 
Q 3138 2247 2948 2509 
Q 2759 2772 2400 2772 
z
" transform="scale(0.015625)"/>
      <path id="DejaVuSans-Bold-6c" d="M 538 4863 
L 1656 4863 
L 1656 0 
L 538 0 
L 538 4863 
z
" transform="scale(0.015625)"/>
      <path id="DejaVuSans-Bold-65" d="M 4031 1759 
L 4031 1441 
L 1416 1441 
Q 1456 1047 1700 850 
Q 1944 653 2381 653 
Q 2734 653 3104 758 
Q 3475 863 3866 1075 
L 3866 213 
Q 3469 63 3072 -14 
Q 2675 -91 2278 -91 
Q 1328 -91 801 392 
Q 275 875 275 1747 
Q 275 2603 792 3093 
Q 1309 3584 2216 3584 
Q 3041 3584 3536 3087 
Q 4031 2591 4031 1759 
z
M 2881 2131 
Q 2881 2450 2695 2645 
Q 2509 2841 2209 2841 
Q 1884 2841 1681 2658 
Q 1478 2475 1428 2131 
L 2881 2131 
z
" transform="scale(0.015625)"/>
      <path id="DejaVuSans-Bold-20" transform="scale(0.015625)"/>
      <path id="DejaVuSans-Bold-53" d="M 3834 4519 
L 3834 3531 
Q 3450 3703 3084 3790 
Q 2719 3878 2394 3878 
Q 1963 3878 1756 3759 
Q 1550 3641 1550 3391 
Q 1550 3203 1689 3098 
Q 1828 2994 2194 2919 
L 2706 2816 
Q 3484 2659 3812 2340 
Q 4141 2022 4141 1434 
Q 4141 663 3683 286 
Q 3225 -91 2284 -91 
Q 1841 -91 1394 -6 
Q 947 78 500 244 
L 500 1259 
Q 947 1022 1364 901 
Q 1781 781 2169 781 
Q 2563 781 2772 912 
Q 2981 1044 2981 1288 
Q 2981 1506 2839 1625 
Q 2697 1744 2272 1838 
L 1806 1941 
Q 1106 2091 782 2419 
Q 459 2747 459 3303 
Q 459 4000 909 4375 
Q 1359 4750 2203 4750 
Q 2588 4750 2994 4692 
Q 3400 4634 3834 4519 
z
" transform="scale(0.015625)"/>
      <path id="DejaVuSans-Bold-74" d="M 1759 4494 
L 1759 3500 
L 2913 3500 
L 2913 2700 
L 1759 2700 
L 1759 1216 
Q 1759 972 1856 886 
Q 1953 800 2241 800 
L 2816 800 
L 2816 0 
L 1856 0 
Q 1194 0 917 276 
Q 641 553 641 1216 
L 641 2700 
L 84 2700 
L 84 3500 
L 641 3500 
L 641 4494 
L 1759 4494 
z
" transform="scale(0.015625)"/>
      <path id="DejaVuSans-Bold-72" d="M 3138 2547 
Q 2991 2616 2845 2648 
Q 2700 2681 2553 2681 
Q 2122 2681 1889 2404 
Q 1656 2128 1656 1613 
L 1656 0 
L 538 0 
L 538 3500 
L 1656 3500 
L 1656 2925 
Q 1872 3269 2151 3426 
Q 2431 3584 2822 3584 
Q 2878 3584 2943 3579 
Q 3009 3575 3134 3559 
L 3138 2547 
z
" transform="scale(0.015625)"/>
      <path id="DejaVuSans-Bold-75" d="M 500 1363 
L 500 3500 
L 1625 3500 
L 1625 3150 
Q 1625 2866 1622 2436 
Q 1619 2006 1619 1863 
Q 1619 1441 1641 1255 
Q 1663 1069 1716 984 
Q 1784 875 1895 815 
Q 2006 756 2150 756 
Q 2500 756 2700 1025 
Q 2900 1294 2900 1772 
L 2900 3500 
L 4019 3500 
L 4019 0 
L 2900 0 
L 2900 506 
Q 2647 200 2364 54 
Q 2081 -91 1741 -91 
Q 1134 -91 817 281 
Q 500 653 500 1363 
z
" transform="scale(0.015625)"/>
      <path id="DejaVuSans-Bold-63" d="M 3366 3391 
L 3366 2478 
Q 3138 2634 2908 2709 
Q 2678 2784 2431 2784 
Q 1963 2784 1702 2511 
Q 1441 2238 1441 1747 
Q 1441 1256 1702 982 
Q 1963 709 2431 709 
Q 2694 709 2930 787 
Q 3166 866 3366 1019 
L 3366 103 
Q 3103 6 2833 -42 
Q 2563 -91 2291 -91 
Q 1344 -91 809 395 
Q 275 881 275 1747 
Q 275 2613 809 3098 
Q 1344 3584 2291 3584 
Q 2566 3584 2833 3536 
Q 3100 3488 3366 3391 
z
" transform="scale(0.015625)"/>
      <path id="DejaVuSans-Bold-43" d="M 4288 256 
Q 3956 84 3597 -3 
Q 3238 -91 2847 -91 
Q 1681 -91 1000 561 
Q 319 1213 319 2328 
Q 319 3447 1000 4098 
Q 1681 4750 2847 4750 
Q 3238 4750 3597 4662 
Q 3956 4575 4288 4403 
L 4288 3438 
Q 3953 3666 3628 3772 
Q 3303 3878 2944 3878 
Q 2300 3878 1931 3465 
Q 1563 3053 1563 2328 
Q 1563 1606 1931 1193 
Q 2300 781 2944 781 
Q 3303 781 3628 887 
Q 3953 994 4288 1222 
L 4288 256 
z
" transform="scale(0.015625)"/>
      <path id="DejaVuSans-Bold-73" d="M 3272 3391 
L 3272 2541 
Q 2913 2691 2578 2766 
Q 2244 2841 1947 2841 
Q 1628 2841 1473 2761 
Q 1319 2681 1319 2516 
Q 1319 2381 1436 2309 
Q 1553 2238 1856 2203 
L 2053 2175 
Q 2913 2066 3209 1816 
Q 3506 1566 3506 1031 
Q 3506 472 3093 190 
Q 2681 -91 1863 -91 
Q 1516 -91 1145 -36 
Q 775 19 384 128 
L 384 978 
Q 719 816 1070 734 
Q 1422 653 1784 653 
Q 2113 653 2278 743 
Q 2444 834 2444 1013 
Q 2444 1163 2330 1236 
Q 2216 1309 1875 1350 
L 1678 1375 
Q 931 1469 631 1722 
Q 331 1975 331 2491 
Q 331 3047 712 3315 
Q 1094 3584 1881 3584 
Q 2191 3584 2531 3537 
Q 2872 3491 3272 3391 
z
" transform="scale(0.015625)"/>
      <path id="DejaVuSans-Bold-4d" d="M 588 4666 
L 2119 4666 
L 3181 2169 
L 4250 4666 
L 5778 4666 
L 5778 0 
L 4641 0 
L 4641 3413 
L 3566 897 
L 2803 897 
L 1728 3413 
L 1728 0 
L 588 0 
L 588 4666 
z
" transform="scale(0.015625)"/>
      <path id="DejaVuSans-Bold-6f" d="M 2203 2784 
Q 1831 2784 1636 2517 
Q 1441 2250 1441 1747 
Q 1441 1244 1636 976 
Q 1831 709 2203 709 
Q 2569 709 2762 976 
Q 2956 1244 2956 1747 
Q 2956 2250 2762 2517 
Q 2569 2784 2203 2784 
z
M 2203 3584 
Q 3106 3584 3614 3096 
Q 4122 2609 4122 1747 
Q 4122 884 3614 396 
Q 3106 -91 2203 -91 
Q 1297 -91 786 396 
Q 275 884 275 1747 
Q 275 2609 786 3096 
Q 1297 3584 2203 3584 
z
" transform="scale(0.015625)"/>
      <path id="DejaVuSans-Bold-64" d="M 2919 2988 
L 2919 4863 
L 4044 4863 
L 4044 0 
L 2919 0 
L 2919 506 
Q 2688 197 2409 53 
Q 2131 -91 1766 -91 
Q 1119 -91 703 423 
Q 288 938 288 1747 
Q 288 2556 703 3070 
Q 1119 3584 1766 3584 
Q 2128 3584 2408 3439 
Q 2688 3294 2919 2988 
z
M 2181 722 
Q 2541 722 2730 984 
Q 2919 1247 2919 1747 
Q 2919 2247 2730 2509 
Q 2541 2772 2181 2772 
Q 1825 2772 1636 2509 
Q 1447 2247 1447 1747 
Q 1447 1247 1636 984 
Q 1825 722 2181 722 
z
" transform="scale(0.015625)"/>
      <path id="DejaVuSans-Bold-28" d="M 2413 -844 
L 1484 -844 
Q 1006 -72 778 623 
Q 550 1319 550 2003 
Q 550 2688 779 3389 
Q 1009 4091 1484 4856 
L 2413 4856 
Q 2013 4116 1813 3408 
Q 1613 2700 1613 2009 
Q 1613 1319 1811 609 
Q 2009 -100 2413 -844 
z
" transform="scale(0.015625)"/>
      <path id="DejaVuSans-Bold-29" d="M 513 -844 
Q 913 -100 1113 609 
Q 1313 1319 1313 2009 
Q 1313 2700 1113 3408 
Q 913 4116 513 4856 
L 1441 4856 
Q 1916 4091 2145 3389 
Q 2375 2688 2375 2003 
Q 2375 1319 2147 623 
Q 1919 -72 1441 -844 
L 513 -844 
z
" transform="scale(0.015625)"/>
     </defs>
     <use xlink:href="#DejaVuSans-Bold-45"/>
     <use xlink:href="#DejaVuSans-Bold-78" transform="translate(68.310547 0)"/>
     <use xlink:href="#DejaVuSans-Bold-61" transform="translate(132.8125 0)"/>
     <use xlink:href="#DejaVuSans-Bold-6d" transform="translate(200.292969 0)"/>
     <use xlink:href="#DejaVuSans-Bold-70" transform="translate(304.492188 0)"/>
     <use xlink:href="#DejaVuSans-Bold-6c" transform="translate(376.074219 0)"/>
     <use xlink:href="#DejaVuSans-Bold-65" transform="translate(410.351562 0)"/>
     <use xlink:href="#DejaVuSans-Bold-20" transform="translate(478.173828 0)"/>
     <use xlink:href="#DejaVuSans-Bold-53" transform="translate(512.988281 0)"/>
     <use xlink:href="#DejaVuSans-Bold-74" transform="translate(585.009766 0)"/>
     <use xlink:href="#DejaVuSans-Bold-72" transform="translate(632.8125 0)"/>
     <use xlink:href="#DejaVuSans-Bold-75" transform="translate(682.128906 0)"/>
     <use xlink:href="#DejaVuSans-Bold-63" transform="translate(753.320312 0)"/>
     <use xlink:href="#DejaVuSans-Bold-74" transform="translate(812.597656 0)"/>
     <use xlink:href="#DejaVuSans-Bold-75" transform="translate(860.400391 0)"/>
     <use xlink:href="#DejaVuSans-Bold-72" transform="translate(931.591797 0)"/>
     <use xlink:href="#DejaVuSans-Bold-61" transform="translate(980.908203 0)"/>
     <use xlink:href="#DejaVuSans-Bold-6c" transform="translate(1048.388672 0)"/>
     <use xlink:href="#DejaVuSans-Bold-20" transform="translate(1082.666016 0)"/>
     <use xlink:href="#DejaVuSans-Bold-43" transform="translate(1117.480469 0)"/>
     <use xlink:href="#DejaVuSans-Bold-61" transform="translate(1190.869141 0)"/>
     <use xlink:href="#DejaVuSans-Bold-75" transform="translate(1258.349609 0)"/>
     <use xlink:href="#DejaVuSans-Bold-73" transform="translate(1329.541016 0)"/>
     <use xlink:href="#DejaVuSans-Bold-61" transform="translate(1389.0625 0)"/>
     <use xlink:href="#DejaVuSans-Bold-6c" transform="translate(1456.542969 0)"/>
     <use xlink:href="#DejaVuSans-Bold-20" transform="translate(1490.820312 0)"/>
     <use xlink:href="#DejaVuSans-Bold-4d" transform="translate(1525.634766 0)"/>
     <use xlink:href="#DejaVuSans-Bold-6f" transform="translate(1625.146484 0)"/>
     <use xlink:href="#DejaVuSans-Bold-64" transform="translate(1693.847656 0)"/>
     <use xlink:href="#DejaVuSans-Bold-65" transform="translate(1765.429688 0)"/>
     <use xlink:href="#DejaVuSans-Bold-6c" transform="translate(1833.251953 0)"/>
     <use xlink:href="#DejaVuSans-Bold-20" transform="translate(1867.529297 0)"/>
     <use xlink:href="#DejaVuSans-Bold-28" transform="translate(1902.34375 0)"/>
     <use xlink:href="#DejaVuSans-Bold-53" transform="translate(1948.046875 0)"/>
     <use xlink:href="#DejaVuSans-Bold-43" transform="translate(2020.068359 0)"/>
     <use xlink:href="#DejaVuSans-Bold-4d" transform="translate(2093.457031 0)"/>
     <use xlink:href="#DejaVuSans-Bold-29" transform="translate(2192.96875 0)"/>
    </g>
   </g>
   <g id="text_2">
    <!-- Structural Equations: -->
    <g transform="translate(219.9525 251.136) scale(0.11 -0.11)">
     <defs>
      <path id="DejaVuSans-Bold-71" d="M 2181 2772 
Q 1825 2772 1636 2509 
Q 1447 2247 1447 1747 
Q 1447 1247 1636 984 
Q 1825 722 2181 722 
Q 2541 722 2730 984 
Q 2919 1247 2919 1747 
Q 2919 2247 2730 2509 
Q 2541 2772 2181 2772 
z
M 2919 506 
Q 2688 197 2409 53 
Q 2131 -91 1766 -91 
Q 1119 -91 703 423 
Q 288 938 288 1747 
Q 288 2556 703 3067 
Q 1119 3578 1766 3578 
Q 2131 3578 2409 3434 
Q 2688 3291 2919 2981 
L 2919 3500 
L 4044 3500 
L 4044 -1331 
L 2919 -1331 
L 2919 506 
z
" transform="scale(0.015625)"/>
      <path id="DejaVuSans-Bold-69" d="M 538 3500 
L 1656 3500 
L 1656 0 
L 538 0 
L 538 3500 
z
M 538 4863 
L 1656 4863 
L 1656 3950 
L 538 3950 
L 538 4863 
z
" transform="scale(0.015625)"/>
      <path id="DejaVuSans-Bold-6e" d="M 4056 2131 
L 4056 0 
L 2931 0 
L 2931 347 
L 2931 1631 
Q 2931 2084 2911 2256 
Q 2891 2428 2841 2509 
Q 2775 2619 2662 2680 
Q 2550 2741 2406 2741 
Q 2056 2741 1856 2470 
Q 1656 2200 1656 1722 
L 1656 0 
L 538 0 
L 538 3500 
L 1656 3500 
L 1656 2988 
Q 1909 3294 2193 3439 
Q 2478 3584 2822 3584 
Q 3428 3584 3742 3212 
Q 4056 2841 4056 2131 
z
" transform="scale(0.015625)"/>
      <path id="DejaVuSans-Bold-3a" d="M 716 3500 
L 1844 3500 
L 1844 2291 
L 716 2291 
L 716 3500 
z
M 716 1209 
L 1844 1209 
L 1844 0 
L 716 0 
L 716 1209 
z
" transform="scale(0.015625)"/>
     </defs>
     <use xlink:href="#DejaVuSans-Bold-53"/>
     <use xlink:href="#DejaVuSans-Bold-74" transform="translate(72.021484 0)"/>
     <use xlink:href="#DejaVuSans-Bold-72" transform="translate(119.824219 0)"/>
     <use xlink:href="#DejaVuSans-Bold-75" transform="translate(169.140625 0)"/>
     <use xlink:href="#DejaVuSans-Bold-63" transform="translate(240.332031 0)"/>
     <use xlink:href="#DejaVuSans-Bold-74" transform="translate(299.609375 0)"/>
     <use xlink:href="#DejaVuSans-Bold-75" transform="translate(347.412109 0)"/>
     <use xlink:href="#DejaVuSans-Bold-72" transform="translate(418.603516 0)"/>
     <use xlink:href="#DejaVuSans-Bold-61" transform="translate(467.919922 0)"/>
     <use xlink:href="#DejaVuSans-Bold-6c" transform="translate(535.400391 0)"/>
     <use xlink:href="#DejaVuSans-Bold-20" transform="translate(569.677734 0)"/>
     <use xlink:href="#DejaVuSans-Bold-45" transform="translate(604.492188 0)"/>
     <use xlink:href="#DejaVuSans-Bold-71" transform="translate(672.802734 0)"/>
     <use xlink:href="#DejaVuSans-Bold-75" transform="translate(744.384766 0)"/>
     <use xlink:href="#DejaVuSans-Bold-61" transform="translate(815.576172 0)"/>
     <use xlink:href="#DejaVuSans-Bold-74" transform="translate(883.056641 0)"/>
     <use xlink:href="#DejaVuSans-Bold-69" transform="translate(930.859375 0)"/>
     <use xlink:href="#DejaVuSans-Bold-6f" transform="translate(965.136719 0)"/>
     <use xlink:href="#DejaVuSans-Bold-6e" transform="translate(1033.837891 0)"/>
     <use xlink:href="#DejaVuSans-Bold-73" transform="translate(1105.029297 0)"/>
     <use xlink:href="#DejaVuSans-Bold-3a" transform="translate(1164.550781 0)"/>
    </g>
   </g>
   <g id="text_3">
    <g id="patch_18">
     <path d="M 216.966406 280.391687 
L 355.433594 280.391687 
Q 360.433594 280.391687 360.433594 275.391687 
L 360.433594 265.660437 
Q 360.433594 260.660437 355.433594 260.660437 
L 216.966406 260.660437 
Q 211.966406 260.660437 211.966406 265.660437 
L 211.966406 275.391687 
Q 211.966406 280.391687 216.966406 280.391687 
z
" style="fill: #f0f0f0; stroke: #666666; stroke-linejoin: miter"/>
    </g>
    <!-- X₃ = sin(X₁) + X₂² + ε₃ -->
    <g transform="translate(216.966406 273.312) scale(0.1 -0.1)">
     <defs>
      <path id="DejaVuSansMono-58" d="M 269 4666 
L 947 4666 
L 1972 2906 
L 3016 4666 
L 3694 4666 
L 2297 2472 
L 3794 0 
L 3116 0 
L 1972 2009 
L 738 0 
L 56 0 
L 1619 2472 
L 269 4666 
z
" transform="scale(0.015625)"/>
      <path id="DejaVuSansMono-2083" d="M 2284 1412 
Q 2578 1346 2733 1177 
Q 2888 1009 2888 759 
Q 2888 371 2591 162 
Q 2294 -47 1741 -47 
Q 1559 -47 1381 -14 
Q 1203 18 1019 81 
L 1019 459 
Q 1234 375 1411 334 
Q 1588 293 1728 293 
Q 2044 293 2228 419 
Q 2413 546 2413 759 
Q 2413 990 2241 1109 
Q 2069 1228 1728 1228 
L 1522 1228 
L 1522 1565 
L 1753 1565 
Q 2044 1565 2197 1663 
Q 2350 1762 2350 1950 
Q 2350 2125 2200 2223 
Q 2050 2321 1778 2321 
Q 1641 2321 1466 2283 
Q 1291 2246 1106 2175 
L 1106 2553 
Q 1322 2606 1505 2634 
Q 1688 2662 1844 2662 
Q 2297 2662 2559 2477 
Q 2822 2293 2822 1984 
Q 2822 1762 2684 1616 
Q 2547 1471 2284 1412 
z
" transform="scale(0.015625)"/>
      <path id="DejaVuSansMono-20" transform="scale(0.015625)"/>
      <path id="DejaVuSansMono-3d" d="M 275 1638 
L 3578 1638 
L 3578 1100 
L 275 1100 
L 275 1638 
z
M 275 2906 
L 3578 2906 
L 3578 2375 
L 275 2375 
L 275 2906 
z
" transform="scale(0.015625)"/>
      <path id="DejaVuSansMono-73" d="M 3041 3378 
L 3041 2816 
Q 2794 2959 2544 3031 
Q 2294 3103 2034 3103 
Q 1644 3103 1451 2976 
Q 1259 2850 1259 2591 
Q 1259 2356 1403 2240 
Q 1547 2125 2119 2016 
L 2350 1972 
Q 2778 1891 2998 1647 
Q 3219 1403 3219 1013 
Q 3219 494 2850 201 
Q 2481 -91 1825 -91 
Q 1566 -91 1281 -36 
Q 997 19 666 128 
L 666 722 
Q 988 556 1281 473 
Q 1575 391 1838 391 
Q 2219 391 2428 545 
Q 2638 700 2638 978 
Q 2638 1378 1872 1531 
L 1847 1538 
L 1631 1581 
Q 1134 1678 906 1908 
Q 678 2138 678 2534 
Q 678 3038 1018 3311 
Q 1359 3584 1991 3584 
Q 2272 3584 2531 3532 
Q 2791 3481 3041 3378 
z
" transform="scale(0.015625)"/>
      <path id="DejaVuSansMono-69" d="M 800 3500 
L 2272 3500 
L 2272 447 
L 3413 447 
L 3413 0 
L 556 0 
L 556 447 
L 1697 447 
L 1697 3053 
L 800 3053 
L 800 3500 
z
M 1697 4863 
L 2272 4863 
L 2272 4134 
L 1697 4134 
L 1697 4863 
z
" transform="scale(0.015625)"/>
      <path id="DejaVuSansMono-6e" d="M 3284 2169 
L 3284 0 
L 2706 0 
L 2706 2169 
Q 2706 2641 2540 2862 
Q 2375 3084 2022 3084 
Q 1619 3084 1401 2798 
Q 1184 2513 1184 1978 
L 1184 0 
L 609 0 
L 609 3500 
L 1184 3500 
L 1184 2975 
Q 1338 3275 1600 3429 
Q 1863 3584 2222 3584 
Q 2756 3584 3020 3232 
Q 3284 2881 3284 2169 
z
" transform="scale(0.015625)"/>
      <path id="DejaVuSansMono-28" d="M 2766 4856 
Q 2350 4144 2145 3436 
Q 1941 2728 1941 2009 
Q 1941 1294 2145 584 
Q 2350 -125 2766 -844 
L 2266 -844 
Q 1794 -100 1562 604 
Q 1331 1309 1331 2009 
Q 1331 2706 1562 3412 
Q 1794 4119 2266 4856 
L 2766 4856 
z
" transform="scale(0.015625)"/>
      <path id="DejaVuSansMono-2081" d="M 1131 343 
L 1772 343 
L 1772 2253 
L 1075 2125 
L 1075 2487 
L 1791 2609 
L 2222 2609 
L 2222 343 
L 2859 343 
L 2859 0 
L 1131 0 
L 1131 343 
z
" transform="scale(0.015625)"/>
      <path id="DejaVuSansMono-29" d="M 1088 4856 
L 1588 4856 
Q 2059 4119 2290 3412 
Q 2522 2706 2522 2009 
Q 2522 1306 2290 600 
Q 2059 -106 1588 -844 
L 1088 -844 
Q 1503 -119 1708 590 
Q 1913 1300 1913 2009 
Q 1913 2722 1708 3431 
Q 1503 4141 1088 4856 
z
" transform="scale(0.015625)"/>
      <path id="DejaVuSansMono-2b" d="M 2188 3659 
L 2188 2272 
L 3578 2272 
L 3578 1741 
L 2188 1741 
L 2188 353 
L 1663 353 
L 1663 1741 
L 275 1741 
L 275 2272 
L 1663 2272 
L 1663 3659 
L 2188 3659 
z
" transform="scale(0.015625)"/>
      <path id="DejaVuSansMono-2082" d="M 1509 356 
L 2791 356 
L 2791 0 
L 1006 0 
L 1006 343 
L 1728 1050 
Q 2044 1353 2170 1543 
Q 2297 1734 2297 1893 
Q 2297 2084 2140 2202 
Q 1984 2321 1728 2321 
Q 1575 2321 1398 2265 
Q 1222 2209 1025 2096 
L 1025 2487 
Q 1228 2575 1417 2618 
Q 1606 2662 1791 2662 
Q 2234 2662 2503 2454 
Q 2772 2246 2772 1912 
Q 2772 1734 2656 1548 
Q 2541 1362 2169 996 
L 1509 356 
z
" transform="scale(0.015625)"/>
      <path id="DejaVuSansMono-b2" d="M 1509 2444 
L 2791 2444 
L 2791 2088 
L 1006 2088 
L 1006 2431 
L 1728 3138 
Q 2044 3441 2170 3631 
Q 2297 3822 2297 3981 
Q 2297 4172 2140 4290 
Q 1984 4409 1728 4409 
Q 1575 4409 1398 4353 
Q 1222 4297 1025 4184 
L 1025 4575 
Q 1228 4663 1417 4706 
Q 1606 4750 1791 4750 
Q 2234 4750 2503 4542 
Q 2772 4334 2772 4000 
Q 2772 3822 2656 3636 
Q 2541 3450 2169 3084 
L 1509 2444 
z
" transform="scale(0.015625)"/>
      <path id="DejaVuSansMono-3b5" d="M 1403 1897 
Q 1031 1975 828 2178 
Q 628 2378 628 2672 
Q 628 3091 1009 3337 
Q 1391 3584 2044 3584 
Q 2297 3584 2581 3547 
Q 2869 3509 3197 3434 
L 3197 2913 
Q 2872 2997 2600 3038 
Q 2331 3075 2094 3075 
Q 1663 3075 1431 2940 
Q 1200 2806 1200 2575 
Q 1200 2384 1425 2250 
Q 1650 2113 2072 2113 
L 2591 2113 
L 2591 1663 
L 2094 1663 
Q 1625 1663 1362 1491 
Q 1100 1319 1100 1066 
Q 1100 759 1381 594 
Q 1666 431 2206 431 
Q 2516 431 2800 488 
Q 3084 541 3325 647 
L 3325 106 
Q 3022 19 2741 -25 
Q 2456 -69 2188 -69 
Q 1394 -69 959 216 
Q 528 503 528 1022 
Q 528 1363 759 1594 
Q 991 1825 1403 1897 
z
" transform="scale(0.015625)"/>
     </defs>
     <use xlink:href="#DejaVuSansMono-58"/>
     <use xlink:href="#DejaVuSansMono-2083" transform="translate(60.205078 0)"/>
     <use xlink:href="#DejaVuSansMono-20" transform="translate(120.410156 0)"/>
     <use xlink:href="#DejaVuSansMono-3d" transform="translate(180.615234 0)"/>
     <use xlink:href="#DejaVuSansMono-20" transform="translate(240.820312 0)"/>
     <use xlink:href="#DejaVuSansMono-73" transform="translate(301.025391 0)"/>
     <use xlink:href="#DejaVuSansMono-69" transform="translate(361.230469 0)"/>
     <use xlink:href="#DejaVuSansMono-6e" transform="translate(421.435547 0)"/>
     <use xlink:href="#DejaVuSansMono-28" transform="translate(481.640625 0)"/>
     <use xlink:href="#DejaVuSansMono-58" transform="translate(541.845703 0)"/>
     <use xlink:href="#DejaVuSansMono-2081" transform="translate(602.050781 0)"/>
     <use xlink:href="#DejaVuSansMono-29" transform="translate(662.255859 0)"/>
     <use xlink:href="#DejaVuSansMono-20" transform="translate(722.460938 0)"/>
     <use xlink:href="#DejaVuSansMono-2b" transform="translate(782.666016 0)"/>
     <use xlink:href="#DejaVuSansMono-20" transform="translate(842.871094 0)"/>
     <use xlink:href="#DejaVuSansMono-58" transform="translate(903.076172 0)"/>
     <use xlink:href="#DejaVuSansMono-2082" transform="translate(963.28125 0)"/>
     <use xlink:href="#DejaVuSansMono-b2" transform="translate(1023.486328 0)"/>
     <use xlink:href="#DejaVuSansMono-20" transform="translate(1083.691406 0)"/>
     <use xlink:href="#DejaVuSansMono-2b" transform="translate(1143.896484 0)"/>
     <use xlink:href="#DejaVuSansMono-20" transform="translate(1204.101562 0)"/>
     <use xlink:href="#DejaVuSansMono-3b5" transform="translate(1264.306641 0)"/>
     <use xlink:href="#DejaVuSansMono-2083" transform="translate(1324.511719 0)"/>
    </g>
   </g>
   <g id="text_4">
    <g id="patch_19">
     <path d="M 213.95625 307.002887 
L 358.44375 307.002887 
Q 363.44375 307.002887 363.44375 302.002887 
L 363.44375 292.271637 
Q 363.44375 287.271637 358.44375 287.271637 
L 213.95625 287.271637 
Q 208.95625 287.271637 208.95625 292.271637 
L 208.95625 302.002887 
Q 208.95625 307.002887 213.95625 307.002887 
z
" style="fill: #f0f0f0; stroke: #666666; stroke-linejoin: miter"/>
    </g>
    <!-- Y = 0.5·X₁ - 1.2·X₃ + εY -->
    <g transform="translate(213.95625 299.9232) scale(0.1 -0.1)">
     <defs>
      <path id="DejaVuSansMono-59" d="M 116 4666 
L 788 4666 
L 1925 2606 
L 3059 4666 
L 3738 4666 
L 2241 2094 
L 2241 0 
L 1606 0 
L 1606 2094 
L 116 4666 
z
" transform="scale(0.015625)"/>
      <path id="DejaVuSansMono-30" d="M 1509 2344 
Q 1509 2516 1629 2641 
Q 1750 2766 1919 2766 
Q 2094 2766 2219 2641 
Q 2344 2516 2344 2344 
Q 2344 2169 2220 2047 
Q 2097 1925 1919 1925 
Q 1744 1925 1626 2044 
Q 1509 2163 1509 2344 
z
M 1925 4250 
Q 1484 4250 1267 3775 
Q 1050 3300 1050 2328 
Q 1050 1359 1267 884 
Q 1484 409 1925 409 
Q 2369 409 2586 884 
Q 2803 1359 2803 2328 
Q 2803 3300 2586 3775 
Q 2369 4250 1925 4250 
z
M 1925 4750 
Q 2672 4750 3055 4137 
Q 3438 3525 3438 2328 
Q 3438 1134 3055 521 
Q 2672 -91 1925 -91 
Q 1178 -91 797 521 
Q 416 1134 416 2328 
Q 416 3525 797 4137 
Q 1178 4750 1925 4750 
z
" transform="scale(0.015625)"/>
      <path id="DejaVuSansMono-2e" d="M 1528 953 
L 2316 953 
L 2316 0 
L 1528 0 
L 1528 953 
z
" transform="scale(0.015625)"/>
      <path id="DejaVuSansMono-35" d="M 647 4666 
L 3009 4666 
L 3009 4134 
L 1222 4134 
L 1222 2988 
Q 1356 3038 1492 3061 
Q 1628 3084 1766 3084 
Q 2491 3084 2916 2656 
Q 3341 2228 3341 1497 
Q 3341 759 2895 334 
Q 2450 -91 1678 -91 
Q 1306 -91 998 -41 
Q 691 9 447 109 
L 447 750 
Q 734 594 1025 517 
Q 1316 441 1619 441 
Q 2141 441 2423 716 
Q 2706 991 2706 1497 
Q 2706 1997 2414 2275 
Q 2122 2553 1600 2553 
Q 1347 2553 1106 2495 
Q 866 2438 647 2322 
L 647 4666 
z
" transform="scale(0.015625)"/>
      <path id="DejaVuSansMono-b7" d="M 1528 2700 
L 2316 2700 
L 2316 1747 
L 1528 1747 
L 1528 2700 
z
" transform="scale(0.015625)"/>
      <path id="DejaVuSansMono-2d" d="M 1113 2009 
L 2741 2009 
L 2741 1497 
L 1113 1497 
L 1113 2009 
z
" transform="scale(0.015625)"/>
      <path id="DejaVuSansMono-31" d="M 844 531 
L 1825 531 
L 1825 4097 
L 769 3859 
L 769 4434 
L 1819 4666 
L 2450 4666 
L 2450 531 
L 3419 531 
L 3419 0 
L 844 0 
L 844 531 
z
" transform="scale(0.015625)"/>
      <path id="DejaVuSansMono-32" d="M 1166 531 
L 3309 531 
L 3309 0 
L 475 0 
L 475 531 
Q 1059 1147 1496 1619 
Q 1934 2091 2100 2284 
Q 2413 2666 2522 2902 
Q 2631 3138 2631 3384 
Q 2631 3775 2401 3997 
Q 2172 4219 1772 4219 
Q 1488 4219 1175 4116 
Q 863 4013 513 3803 
L 513 4441 
Q 834 4594 1145 4672 
Q 1456 4750 1759 4750 
Q 2444 4750 2861 4386 
Q 3278 4022 3278 3431 
Q 3278 3131 3139 2831 
Q 3000 2531 2688 2169 
Q 2513 1966 2180 1606 
Q 1847 1247 1166 531 
z
" transform="scale(0.015625)"/>
     </defs>
     <use xlink:href="#DejaVuSansMono-59"/>
     <use xlink:href="#DejaVuSansMono-20" transform="translate(60.205078 0)"/>
     <use xlink:href="#DejaVuSansMono-3d" transform="translate(120.410156 0)"/>
     <use xlink:href="#DejaVuSansMono-20" transform="translate(180.615234 0)"/>
     <use xlink:href="#DejaVuSansMono-30" transform="translate(240.820312 0)"/>
     <use xlink:href="#DejaVuSansMono-2e" transform="translate(301.025391 0)"/>
     <use xlink:href="#DejaVuSansMono-35" transform="translate(361.230469 0)"/>
     <use xlink:href="#DejaVuSansMono-b7" transform="translate(421.435547 0)"/>
     <use xlink:href="#DejaVuSansMono-58" transform="translate(481.640625 0)"/>
     <use xlink:href="#DejaVuSansMono-2081" transform="translate(541.845703 0)"/>
     <use xlink:href="#DejaVuSansMono-20" transform="translate(602.050781 0)"/>
     <use xlink:href="#DejaVuSansMono-2d" transform="translate(662.255859 0)"/>
     <use xlink:href="#DejaVuSansMono-20" transform="translate(722.460938 0)"/>
     <use xlink:href="#DejaVuSansMono-31" transform="translate(782.666016 0)"/>
     <use xlink:href="#DejaVuSansMono-2e" transform="translate(842.871094 0)"/>
     <use xlink:href="#DejaVuSansMono-32" transform="translate(903.076172 0)"/>
     <use xlink:href="#DejaVuSansMono-b7" transform="translate(963.28125 0)"/>
     <use xlink:href="#DejaVuSansMono-58" transform="translate(1023.486328 0)"/>
     <use xlink:href="#DejaVuSansMono-2083" transform="translate(1083.691406 0)"/>
     <use xlink:href="#DejaVuSansMono-20" transform="translate(1143.896484 0)"/>
     <use xlink:href="#DejaVuSansMono-2b" transform="translate(1204.101562 0)"/>
     <use xlink:href="#DejaVuSansMono-20" transform="translate(1264.306641 0)"/>
     <use xlink:href="#DejaVuSansMono-3b5" transform="translate(1324.511719 0)"/>
     <use xlink:href="#DejaVuSansMono-59" transform="translate(1384.716797 0)"/>
    </g>
   </g>
   <g id="text_5">
    <!-- Functions are randomly sampled: -->
    <g style="fill: #666666" transform="translate(210.882656 329.761969) scale(0.09 -0.09)">
     <defs>
      <path id="DejaVuSans-Oblique-46" d="M 1081 4666 
L 3756 4666 
L 3653 4134 
L 1606 4134 
L 1338 2759 
L 3188 2759 
L 3084 2228 
L 1234 2228 
L 800 0 
L 172 0 
L 1081 4666 
z
" transform="scale(0.015625)"/>
      <path id="DejaVuSans-Oblique-75" d="M 428 1388 
L 838 3500 
L 1416 3500 
L 1006 1409 
Q 975 1256 961 1147 
Q 947 1038 947 966 
Q 947 700 1109 554 
Q 1272 409 1569 409 
Q 2031 409 2368 721 
Q 2706 1034 2809 1563 
L 3194 3500 
L 3769 3500 
L 3091 0 
L 2516 0 
L 2631 550 
Q 2388 244 2052 76 
Q 1716 -91 1338 -91 
Q 878 -91 622 161 
Q 366 413 366 863 
Q 366 956 381 1097 
Q 397 1238 428 1388 
z
" transform="scale(0.015625)"/>
      <path id="DejaVuSans-Oblique-6e" d="M 3566 2113 
L 3156 0 
L 2578 0 
L 2988 2091 
Q 3016 2238 3031 2350 
Q 3047 2463 3047 2528 
Q 3047 2791 2881 2937 
Q 2716 3084 2419 3084 
Q 1956 3084 1622 2776 
Q 1288 2469 1184 1941 
L 800 0 
L 225 0 
L 903 3500 
L 1478 3500 
L 1363 2950 
Q 1603 3253 1940 3418 
Q 2278 3584 2650 3584 
Q 3113 3584 3367 3334 
Q 3622 3084 3622 2631 
Q 3622 2519 3608 2391 
Q 3594 2263 3566 2113 
z
" transform="scale(0.015625)"/>
      <path id="DejaVuSans-Oblique-63" d="M 3431 3366 
L 3316 2797 
Q 3109 2947 2876 3022 
Q 2644 3097 2394 3097 
Q 2119 3097 1870 3000 
Q 1622 2903 1453 2725 
Q 1184 2453 1037 2087 
Q 891 1722 891 1331 
Q 891 859 1127 628 
Q 1363 397 1844 397 
Q 2081 397 2348 469 
Q 2616 541 2906 684 
L 2797 116 
Q 2547 13 2283 -39 
Q 2019 -91 1741 -91 
Q 1044 -91 669 257 
Q 294 606 294 1253 
Q 294 1797 489 2255 
Q 684 2713 1069 3078 
Q 1331 3328 1684 3456 
Q 2038 3584 2456 3584 
Q 2700 3584 2940 3529 
Q 3181 3475 3431 3366 
z
" transform="scale(0.015625)"/>
      <path id="DejaVuSans-Oblique-74" d="M 2706 3500 
L 2619 3053 
L 1472 3053 
L 1100 1153 
Q 1081 1047 1072 975 
Q 1063 903 1063 863 
Q 1063 663 1183 572 
Q 1303 481 1569 481 
L 2150 481 
L 2053 0 
L 1503 0 
Q 991 0 739 200 
Q 488 400 488 806 
Q 488 878 497 964 
Q 506 1050 525 1153 
L 897 3053 
L 409 3053 
L 500 3500 
L 978 3500 
L 1172 4494 
L 1747 4494 
L 1556 3500 
L 2706 3500 
z
" transform="scale(0.015625)"/>
      <path id="DejaVuSans-Oblique-69" d="M 1172 4863 
L 1747 4863 
L 1606 4134 
L 1031 4134 
L 1172 4863 
z
M 909 3500 
L 1484 3500 
L 800 0 
L 225 0 
L 909 3500 
z
" transform="scale(0.015625)"/>
      <path id="DejaVuSans-Oblique-6f" d="M 1625 -91 
Q 1009 -91 651 289 
Q 294 669 294 1325 
Q 294 1706 417 2101 
Q 541 2497 738 2766 
Q 1047 3184 1428 3384 
Q 1809 3584 2291 3584 
Q 2888 3584 3255 3212 
Q 3622 2841 3622 2241 
Q 3622 1825 3500 1412 
Q 3378 1000 3181 728 
Q 2875 309 2494 109 
Q 2113 -91 1625 -91 
z
M 891 1344 
Q 891 869 1089 633 
Q 1288 397 1691 397 
Q 2269 397 2648 901 
Q 3028 1406 3028 2181 
Q 3028 2634 2825 2865 
Q 2622 3097 2228 3097 
Q 1903 3097 1650 2945 
Q 1397 2794 1197 2484 
Q 1050 2253 970 1956 
Q 891 1659 891 1344 
z
" transform="scale(0.015625)"/>
      <path id="DejaVuSans-Oblique-73" d="M 3200 3397 
L 3091 2853 
Q 2863 2978 2609 3040 
Q 2356 3103 2088 3103 
Q 1634 3103 1373 2948 
Q 1113 2794 1113 2528 
Q 1113 2219 1719 2053 
Q 1766 2041 1788 2034 
L 1972 1978 
Q 2547 1819 2739 1644 
Q 2931 1469 2931 1166 
Q 2931 609 2489 259 
Q 2047 -91 1331 -91 
Q 1053 -91 747 -37 
Q 441 16 72 128 
L 184 722 
Q 500 559 806 475 
Q 1113 391 1394 391 
Q 1816 391 2080 572 
Q 2344 753 2344 1031 
Q 2344 1331 1650 1516 
L 1591 1531 
L 1394 1581 
Q 956 1697 753 1886 
Q 550 2075 550 2369 
Q 550 2928 970 3256 
Q 1391 3584 2113 3584 
Q 2397 3584 2667 3537 
Q 2938 3491 3200 3397 
z
" transform="scale(0.015625)"/>
      <path id="DejaVuSans-Oblique-20" transform="scale(0.015625)"/>
      <path id="DejaVuSans-Oblique-61" d="M 3438 1997 
L 3047 0 
L 2472 0 
L 2578 531 
Q 2325 219 2001 64 
Q 1678 -91 1281 -91 
Q 834 -91 548 182 
Q 263 456 263 884 
Q 263 1497 752 1853 
Q 1241 2209 2100 2209 
L 2900 2209 
L 2931 2363 
Q 2938 2388 2941 2417 
Q 2944 2447 2944 2509 
Q 2944 2788 2717 2942 
Q 2491 3097 2081 3097 
Q 1800 3097 1504 3025 
Q 1209 2953 897 2809 
L 997 3341 
Q 1322 3463 1633 3523 
Q 1944 3584 2234 3584 
Q 2853 3584 3176 3315 
Q 3500 3047 3500 2534 
Q 3500 2431 3484 2292 
Q 3469 2153 3438 1997 
z
M 2816 1759 
L 2241 1759 
Q 1534 1759 1195 1570 
Q 856 1381 856 984 
Q 856 709 1029 553 
Q 1203 397 1509 397 
Q 1978 397 2328 733 
Q 2678 1069 2791 1631 
L 2816 1759 
z
" transform="scale(0.015625)"/>
      <path id="DejaVuSans-Oblique-72" d="M 2853 2969 
Q 2766 3016 2653 3041 
Q 2541 3066 2413 3066 
Q 1953 3066 1609 2717 
Q 1266 2369 1153 1784 
L 800 0 
L 225 0 
L 909 3500 
L 1484 3500 
L 1375 2956 
Q 1603 3259 1920 3421 
Q 2238 3584 2597 3584 
Q 2691 3584 2781 3573 
Q 2872 3563 2963 3538 
L 2853 2969 
z
" transform="scale(0.015625)"/>
      <path id="DejaVuSans-Oblique-65" d="M 3078 2063 
Q 3088 2113 3092 2166 
Q 3097 2219 3097 2272 
Q 3097 2653 2873 2875 
Q 2650 3097 2266 3097 
Q 1838 3097 1509 2826 
Q 1181 2556 1013 2059 
L 3078 2063 
z
M 3578 1613 
L 903 1613 
Q 884 1494 878 1425 
Q 872 1356 872 1306 
Q 872 872 1139 634 
Q 1406 397 1894 397 
Q 2269 397 2603 481 
Q 2938 566 3225 728 
L 3116 159 
Q 2806 34 2476 -28 
Q 2147 -91 1806 -91 
Q 1078 -91 686 257 
Q 294 606 294 1247 
Q 294 1794 489 2264 
Q 684 2734 1063 3103 
Q 1306 3334 1642 3459 
Q 1978 3584 2356 3584 
Q 2950 3584 3301 3228 
Q 3653 2872 3653 2272 
Q 3653 2128 3634 1964 
Q 3616 1800 3578 1613 
z
" transform="scale(0.015625)"/>
      <path id="DejaVuSans-Oblique-64" d="M 2675 525 
Q 2444 222 2128 65 
Q 1813 -91 1428 -91 
Q 903 -91 598 267 
Q 294 625 294 1247 
Q 294 1766 478 2236 
Q 663 2706 1013 3078 
Q 1244 3325 1534 3454 
Q 1825 3584 2144 3584 
Q 2481 3584 2739 3421 
Q 2997 3259 3138 2956 
L 3513 4863 
L 4091 4863 
L 3144 0 
L 2566 0 
L 2675 525 
z
M 891 1350 
Q 891 897 1095 644 
Q 1300 391 1663 391 
Q 1931 391 2161 520 
Q 2391 650 2566 903 
Q 2750 1166 2856 1509 
Q 2963 1853 2963 2188 
Q 2963 2622 2758 2865 
Q 2553 3109 2194 3109 
Q 1922 3109 1687 2981 
Q 1453 2853 1288 2613 
Q 1106 2353 998 2009 
Q 891 1666 891 1350 
z
" transform="scale(0.015625)"/>
      <path id="DejaVuSans-Oblique-6d" d="M 5747 2113 
L 5338 0 
L 4763 0 
L 5166 2094 
Q 5191 2228 5203 2325 
Q 5216 2422 5216 2491 
Q 5216 2772 5059 2928 
Q 4903 3084 4622 3084 
Q 4203 3084 3875 2770 
Q 3547 2456 3450 1953 
L 3066 0 
L 2491 0 
L 2900 2094 
Q 2925 2209 2937 2307 
Q 2950 2406 2950 2484 
Q 2950 2769 2794 2926 
Q 2638 3084 2363 3084 
Q 1938 3084 1609 2770 
Q 1281 2456 1184 1953 
L 800 0 
L 225 0 
L 909 3500 
L 1484 3500 
L 1375 2956 
Q 1609 3263 1923 3423 
Q 2238 3584 2597 3584 
Q 2978 3584 3223 3384 
Q 3469 3184 3519 2828 
Q 3781 3197 4126 3390 
Q 4472 3584 4856 3584 
Q 5306 3584 5551 3325 
Q 5797 3066 5797 2591 
Q 5797 2488 5784 2364 
Q 5772 2241 5747 2113 
z
" transform="scale(0.015625)"/>
      <path id="DejaVuSans-Oblique-6c" d="M 1172 4863 
L 1747 4863 
L 800 0 
L 225 0 
L 1172 4863 
z
" transform="scale(0.015625)"/>
      <path id="DejaVuSans-Oblique-79" d="M 1588 -325 
Q 1188 -997 936 -1164 
Q 684 -1331 294 -1331 
L -159 -1331 
L -63 -850 
L 269 -850 
Q 509 -850 678 -719 
Q 847 -588 1056 -206 
L 1234 128 
L 459 3500 
L 1069 3500 
L 1650 819 
L 3256 3500 
L 3859 3500 
L 1588 -325 
z
" transform="scale(0.015625)"/>
      <path id="DejaVuSans-Oblique-70" d="M 3175 2156 
Q 3175 2616 2975 2859 
Q 2775 3103 2400 3103 
Q 2144 3103 1911 2972 
Q 1678 2841 1497 2591 
Q 1319 2344 1212 1994 
Q 1106 1644 1106 1300 
Q 1106 863 1306 627 
Q 1506 391 1875 391 
Q 2147 391 2380 519 
Q 2613 647 2778 891 
Q 2956 1147 3065 1494 
Q 3175 1841 3175 2156 
z
M 1394 2969 
Q 1625 3272 1939 3428 
Q 2253 3584 2638 3584 
Q 3175 3584 3472 3232 
Q 3769 2881 3769 2247 
Q 3769 1728 3584 1258 
Q 3400 788 3053 416 
Q 2822 169 2531 39 
Q 2241 -91 1919 -91 
Q 1547 -91 1294 64 
Q 1041 219 916 525 
L 556 -1331 
L -19 -1331 
L 922 3500 
L 1497 3500 
L 1394 2969 
z
" transform="scale(0.015625)"/>
      <path id="DejaVuSans-Oblique-3a" d="M 978 3309 
L 1638 3309 
L 1484 2516 
L 825 2516 
L 978 3309 
z
M 488 794 
L 1147 794 
L 991 0 
L 331 0 
L 488 794 
z
" transform="scale(0.015625)"/>
     </defs>
     <use xlink:href="#DejaVuSans-Oblique-46"/>
     <use xlink:href="#DejaVuSans-Oblique-75" transform="translate(53.519531 0)"/>
     <use xlink:href="#DejaVuSans-Oblique-6e" transform="translate(116.898438 0)"/>
     <use xlink:href="#DejaVuSans-Oblique-63" transform="translate(180.277344 0)"/>
     <use xlink:href="#DejaVuSans-Oblique-74" transform="translate(235.257812 0)"/>
     <use xlink:href="#DejaVuSans-Oblique-69" transform="translate(274.466797 0)"/>
     <use xlink:href="#DejaVuSans-Oblique-6f" transform="translate(302.25 0)"/>
     <use xlink:href="#DejaVuSans-Oblique-6e" transform="translate(363.431641 0)"/>
     <use xlink:href="#DejaVuSans-Oblique-73" transform="translate(426.810547 0)"/>
     <use xlink:href="#DejaVuSans-Oblique-20" transform="translate(478.910156 0)"/>
     <use xlink:href="#DejaVuSans-Oblique-61" transform="translate(510.697266 0)"/>
     <use xlink:href="#DejaVuSans-Oblique-72" transform="translate(571.976562 0)"/>
     <use xlink:href="#DejaVuSans-Oblique-65" transform="translate(613.089844 0)"/>
     <use xlink:href="#DejaVuSans-Oblique-20" transform="translate(674.613281 0)"/>
     <use xlink:href="#DejaVuSans-Oblique-72" transform="translate(706.400391 0)"/>
     <use xlink:href="#DejaVuSans-Oblique-61" transform="translate(747.513672 0)"/>
     <use xlink:href="#DejaVuSans-Oblique-6e" transform="translate(808.792969 0)"/>
     <use xlink:href="#DejaVuSans-Oblique-64" transform="translate(872.171875 0)"/>
     <use xlink:href="#DejaVuSans-Oblique-6f" transform="translate(935.648438 0)"/>
     <use xlink:href="#DejaVuSans-Oblique-6d" transform="translate(996.830078 0)"/>
     <use xlink:href="#DejaVuSans-Oblique-6c" transform="translate(1094.242188 0)"/>
     <use xlink:href="#DejaVuSans-Oblique-79" transform="translate(1122.025391 0)"/>
     <use xlink:href="#DejaVuSans-Oblique-20" transform="translate(1181.205078 0)"/>
     <use xlink:href="#DejaVuSans-Oblique-73" transform="translate(1212.992188 0)"/>
     <use xlink:href="#DejaVuSans-Oblique-61" transform="translate(1265.091797 0)"/>
     <use xlink:href="#DejaVuSans-Oblique-6d" transform="translate(1326.371094 0)"/>
     <use xlink:href="#DejaVuSans-Oblique-70" transform="translate(1423.783203 0)"/>
     <use xlink:href="#DejaVuSans-Oblique-6c" transform="translate(1487.259766 0)"/>
     <use xlink:href="#DejaVuSans-Oblique-65" transform="translate(1515.042969 0)"/>
     <use xlink:href="#DejaVuSans-Oblique-64" transform="translate(1576.566406 0)"/>
     <use xlink:href="#DejaVuSans-Oblique-3a" transform="translate(1640.042969 0)"/>
    </g>
    <!-- MLPs, polynomials, trigonometric, etc. -->
    <g style="fill: #666666" transform="translate(200.048906 339.84) scale(0.09 -0.09)">
     <defs>
      <path id="DejaVuSans-Oblique-4d" d="M 1081 4666 
L 2028 4666 
L 2572 1522 
L 4378 4666 
L 5350 4666 
L 4441 0 
L 3828 0 
L 4622 4091 
L 2791 897 
L 2175 897 
L 1581 4103 
L 788 0 
L 172 0 
L 1081 4666 
z
" transform="scale(0.015625)"/>
      <path id="DejaVuSans-Oblique-4c" d="M 1075 4666 
L 1709 4666 
L 909 525 
L 3181 525 
L 3078 0 
L 172 0 
L 1075 4666 
z
" transform="scale(0.015625)"/>
      <path id="DejaVuSans-Oblique-50" d="M 1081 4666 
L 2541 4666 
Q 3178 4666 3512 4369 
Q 3847 4072 3847 3500 
Q 3847 2731 3353 2303 
Q 2859 1875 1966 1875 
L 1172 1875 
L 806 0 
L 172 0 
L 1081 4666 
z
M 1613 4147 
L 1275 2394 
L 2069 2394 
Q 2606 2394 2893 2669 
Q 3181 2944 3181 3456 
Q 3181 3784 2986 3965 
Q 2791 4147 2438 4147 
L 1613 4147 
z
" transform="scale(0.015625)"/>
      <path id="DejaVuSans-Oblique-2c" d="M 575 794 
L 1234 794 
L 1131 256 
L 422 -744 
L 19 -744 
L 469 256 
L 575 794 
z
" transform="scale(0.015625)"/>
      <path id="DejaVuSans-Oblique-67" d="M 3816 3500 
L 3219 434 
Q 3047 -456 2561 -893 
Q 2075 -1331 1253 -1331 
Q 950 -1331 690 -1286 
Q 431 -1241 206 -1147 
L 313 -588 
Q 525 -725 762 -790 
Q 1000 -856 1269 -856 
Q 1816 -856 2167 -557 
Q 2519 -259 2631 300 
L 2681 563 
Q 2441 288 2122 144 
Q 1803 0 1434 0 
Q 903 0 598 351 
Q 294 703 294 1319 
Q 294 1803 478 2267 
Q 663 2731 997 3091 
Q 1219 3328 1514 3456 
Q 1809 3584 2131 3584 
Q 2484 3584 2746 3420 
Q 3009 3256 3138 2956 
L 3238 3500 
L 3816 3500 
z
M 2950 2216 
Q 2950 2641 2750 2872 
Q 2550 3103 2181 3103 
Q 1953 3103 1747 3012 
Q 1541 2922 1394 2759 
Q 1156 2491 1023 2127 
Q 891 1763 891 1375 
Q 891 944 1092 712 
Q 1294 481 1672 481 
Q 2219 481 2584 976 
Q 2950 1472 2950 2216 
z
" transform="scale(0.015625)"/>
      <path id="DejaVuSans-Oblique-2e" d="M 525 794 
L 1184 794 
L 1031 0 
L 372 0 
L 525 794 
z
" transform="scale(0.015625)"/>
     </defs>
     <use xlink:href="#DejaVuSans-Oblique-4d"/>
     <use xlink:href="#DejaVuSans-Oblique-4c" transform="translate(86.279297 0)"/>
     <use xlink:href="#DejaVuSans-Oblique-50" transform="translate(141.992188 0)"/>
     <use xlink:href="#DejaVuSans-Oblique-73" transform="translate(202.294922 0)"/>
     <use xlink:href="#DejaVuSans-Oblique-2c" transform="translate(254.394531 0)"/>
     <use xlink:href="#DejaVuSans-Oblique-20" transform="translate(286.181641 0)"/>
     <use xlink:href="#DejaVuSans-Oblique-70" transform="translate(317.96875 0)"/>
     <use xlink:href="#DejaVuSans-Oblique-6f" transform="translate(381.445312 0)"/>
     <use xlink:href="#DejaVuSans-Oblique-6c" transform="translate(442.626953 0)"/>
     <use xlink:href="#DejaVuSans-Oblique-79" transform="translate(470.410156 0)"/>
     <use xlink:href="#DejaVuSans-Oblique-6e" transform="translate(529.589844 0)"/>
     <use xlink:href="#DejaVuSans-Oblique-6f" transform="translate(592.96875 0)"/>
     <use xlink:href="#DejaVuSans-Oblique-6d" transform="translate(654.150391 0)"/>
     <use xlink:href="#DejaVuSans-Oblique-69" transform="translate(751.5625 0)"/>
     <use xlink:href="#DejaVuSans-Oblique-61" transform="translate(779.345703 0)"/>
     <use xlink:href="#DejaVuSans-Oblique-6c" transform="translate(840.625 0)"/>
     <use xlink:href="#DejaVuSans-Oblique-73" transform="translate(868.408203 0)"/>
     <use xlink:href="#DejaVuSans-Oblique-2c" transform="translate(920.507812 0)"/>
     <use xlink:href="#DejaVuSans-Oblique-20" transform="translate(952.294922 0)"/>
     <use xlink:href="#DejaVuSans-Oblique-74" transform="translate(984.082031 0)"/>
     <use xlink:href="#DejaVuSans-Oblique-72" transform="translate(1023.291016 0)"/>
     <use xlink:href="#DejaVuSans-Oblique-69" transform="translate(1064.404297 0)"/>
     <use xlink:href="#DejaVuSans-Oblique-67" transform="translate(1092.1875 0)"/>
     <use xlink:href="#DejaVuSans-Oblique-6f" transform="translate(1155.664062 0)"/>
     <use xlink:href="#DejaVuSans-Oblique-6e" transform="translate(1216.845703 0)"/>
     <use xlink:href="#DejaVuSans-Oblique-6f" transform="translate(1280.224609 0)"/>
     <use xlink:href="#DejaVuSans-Oblique-6d" transform="translate(1341.40625 0)"/>
     <use xlink:href="#DejaVuSans-Oblique-65" transform="translate(1438.818359 0)"/>
     <use xlink:href="#DejaVuSans-Oblique-74" transform="translate(1500.341797 0)"/>
     <use xlink:href="#DejaVuSans-Oblique-72" transform="translate(1539.550781 0)"/>
     <use xlink:href="#DejaVuSans-Oblique-69" transform="translate(1580.664062 0)"/>
     <use xlink:href="#DejaVuSans-Oblique-63" transform="translate(1608.447266 0)"/>
     <use xlink:href="#DejaVuSans-Oblique-2c" transform="translate(1663.427734 0)"/>
     <use xlink:href="#DejaVuSans-Oblique-20" transform="translate(1695.214844 0)"/>
     <use xlink:href="#DejaVuSans-Oblique-65" transform="translate(1727.001953 0)"/>
     <use xlink:href="#DejaVuSans-Oblique-74" transform="translate(1788.525391 0)"/>
     <use xlink:href="#DejaVuSans-Oblique-63" transform="translate(1827.734375 0)"/>
     <use xlink:href="#DejaVuSans-Oblique-2e" transform="translate(1882.714844 0)"/>
    </g>
   </g>
   <g id="text_6">
    <!-- ε1 -->
    <g transform="translate(111.91125 98.939312) scale(0.11 -0.11)">
     <defs>
      <path id="DejaVuSans-Bold-3b5" d="M 1116 1888 
Q 778 1966 606 2163 
Q 431 2363 431 2666 
Q 431 3138 794 3359 
Q 1156 3584 1881 3584 
Q 2153 3584 2431 3547 
Q 2713 3509 2997 3434 
L 2997 2688 
Q 2809 2772 2543 2822 
Q 2278 2872 2094 2872 
Q 1797 2872 1625 2763 
Q 1450 2650 1450 2519 
Q 1450 2381 1628 2275 
Q 1784 2181 2150 2181 
L 2538 2181 
L 2538 1481 
L 2169 1481 
Q 1766 1481 1572 1366 
Q 1363 1244 1363 1056 
Q 1363 875 1569 750 
Q 1772 628 2134 628 
Q 2375 628 2641 691 
Q 2934 759 3156 872 
L 3156 84 
Q 2875 -3 2588 -47 
Q 2297 -91 2009 -91 
Q 1194 -91 769 181 
Q 344 453 344 994 
Q 344 1344 541 1569 
Q 738 1794 1116 1888 
z
" transform="scale(0.015625)"/>
      <path id="DejaVuSans-Bold-31" d="M 750 831 
L 1813 831 
L 1813 3847 
L 722 3622 
L 722 4441 
L 1806 4666 
L 2950 4666 
L 2950 831 
L 4013 831 
L 4013 0 
L 750 0 
L 750 831 
z
" transform="scale(0.015625)"/>
     </defs>
     <use xlink:href="#DejaVuSans-Bold-3b5"/>
     <use xlink:href="#DejaVuSans-Bold-31" transform="translate(55.664062 0)"/>
    </g>
   </g>
   <g id="text_7">
    <!-- ε2 -->
    <g transform="translate(223.51125 98.939312) scale(0.11 -0.11)">
     <defs>
      <path id="DejaVuSans-Bold-32" d="M 1844 884 
L 3897 884 
L 3897 0 
L 506 0 
L 506 884 
L 2209 2388 
Q 2438 2594 2547 2791 
Q 2656 2988 2656 3200 
Q 2656 3528 2436 3728 
Q 2216 3928 1850 3928 
Q 1569 3928 1234 3808 
Q 900 3688 519 3450 
L 519 4475 
Q 925 4609 1322 4679 
Q 1719 4750 2100 4750 
Q 2938 4750 3402 4381 
Q 3866 4013 3866 3353 
Q 3866 2972 3669 2642 
Q 3472 2313 2841 1759 
L 1844 884 
z
" transform="scale(0.015625)"/>
     </defs>
     <use xlink:href="#DejaVuSans-Bold-3b5"/>
     <use xlink:href="#DejaVuSans-Bold-32" transform="translate(55.664062 0)"/>
    </g>
   </g>
   <g id="text_8">
    <!-- ε3 -->
    <g transform="translate(335.11125 98.939312) scale(0.11 -0.11)">
     <defs>
      <path id="DejaVuSans-Bold-33" d="M 2981 2516 
Q 3453 2394 3698 2092 
Q 3944 1791 3944 1325 
Q 3944 631 3412 270 
Q 2881 -91 1863 -91 
Q 1503 -91 1142 -33 
Q 781 25 428 141 
L 428 1069 
Q 766 900 1098 814 
Q 1431 728 1753 728 
Q 2231 728 2486 893 
Q 2741 1059 2741 1369 
Q 2741 1688 2480 1852 
Q 2219 2016 1709 2016 
L 1228 2016 
L 1228 2791 
L 1734 2791 
Q 2188 2791 2409 2933 
Q 2631 3075 2631 3366 
Q 2631 3634 2415 3781 
Q 2200 3928 1806 3928 
Q 1516 3928 1219 3862 
Q 922 3797 628 3669 
L 628 4550 
Q 984 4650 1334 4700 
Q 1684 4750 2022 4750 
Q 2931 4750 3382 4451 
Q 3834 4153 3834 3553 
Q 3834 3144 3618 2883 
Q 3403 2622 2981 2516 
z
" transform="scale(0.015625)"/>
     </defs>
     <use xlink:href="#DejaVuSans-Bold-3b5"/>
     <use xlink:href="#DejaVuSans-Bold-33" transform="translate(55.664062 0)"/>
    </g>
   </g>
   <g id="text_9">
    <!-- εY -->
    <g transform="translate(446.555703 98.939312) scale(0.11 -0.11)">
     <defs>
      <path id="DejaVuSans-Bold-59" d="M -63 4666 
L 1253 4666 
L 2316 3003 
L 3378 4666 
L 4697 4666 
L 2919 1966 
L 2919 0 
L 1716 0 
L 1716 1966 
L -63 4666 
z
" transform="scale(0.015625)"/>
     </defs>
     <use xlink:href="#DejaVuSans-Bold-3b5"/>
     <use xlink:href="#DejaVuSans-Bold-59" transform="translate(55.664062 0)"/>
    </g>
   </g>
   <g id="text_10">
    <!-- X1 -->
    <g transform="translate(109.266328 188.195187) scale(0.13 -0.13)">
     <defs>
      <path id="DejaVuSans-Bold-58" d="M 3188 2381 
L 4806 0 
L 3553 0 
L 2463 1594 
L 1381 0 
L 122 0 
L 1741 2381 
L 184 4666 
L 1441 4666 
L 2463 3163 
L 3481 4666 
L 4744 4666 
L 3188 2381 
z
" transform="scale(0.015625)"/>
     </defs>
     <use xlink:href="#DejaVuSans-Bold-58"/>
     <use xlink:href="#DejaVuSans-Bold-31" transform="translate(77.099609 0)"/>
    </g>
   </g>
   <g id="text_11">
    <!-- X2 -->
    <g transform="translate(220.866328 188.195187) scale(0.13 -0.13)">
     <use xlink:href="#DejaVuSans-Bold-58"/>
     <use xlink:href="#DejaVuSans-Bold-32" transform="translate(77.099609 0)"/>
    </g>
   </g>
   <g id="text_12">
    <!-- X3 -->
    <g transform="translate(332.466328 188.195187) scale(0.13 -0.13)">
     <use xlink:href="#DejaVuSans-Bold-58"/>
     <use xlink:href="#DejaVuSans-Bold-33" transform="translate(77.099609 0)"/>
    </g>
   </g>
   <g id="text_13">
    <!-- Y -->
    <g transform="translate(448.893594 188.195187) scale(0.13 -0.13)">
     <use xlink:href="#DejaVuSans-Bold-59"/>
    </g>
   </g>
   <g id="text_14">
    <g id="patch_20">
     <path d="M 103.045781 140.7384 
L 134.554219 140.7384 
Q 137.254219 140.7384 137.254219 138.0384 
L 137.254219 129.328087 
Q 137.254219 126.628087 134.554219 126.628087 
L 103.045781 126.628087 
Q 100.345781 126.628087 100.345781 129.328087 
L 100.345781 138.0384 
Q 100.345781 140.7384 103.045781 140.7384 
z
" style="fill: #ffffff; opacity: 0.8"/>
    </g>
    <!-- X₁ = ε₁ -->
    <g transform="translate(103.045781 136.166681) scale(0.09 -0.09)">
     <defs>
      <path id="DejaVuSans-Oblique-58" d="M 878 4666 
L 1516 4666 
L 2316 2981 
L 3763 4666 
L 4500 4666 
L 2578 2438 
L 3738 0 
L 3103 0 
L 2163 1966 
L 459 0 
L -275 0 
L 1906 2509 
L 878 4666 
z
" transform="scale(0.015625)"/>
      <path id="DejaVuSans-Oblique-2081" d="M 488 343 
L 1125 343 
L 1497 2253 
L 781 2125 
L 850 2487 
L 1569 2609 
L 2022 2609 
L 1581 343 
L 2222 343 
L 2150 0 
L 422 0 
L 488 343 
z
" transform="scale(0.015625)"/>
      <path id="DejaVuSans-Oblique-3d" d="M 678 2906 
L 4684 2906 
L 4684 2381 
L 678 2381 
L 678 2906 
z
M 678 1631 
L 4684 1631 
L 4684 1100 
L 678 1100 
L 678 1631 
z
" transform="scale(0.015625)"/>
      <path id="DejaVuSans-Oblique-3b5" d="M 1263 1888 
Q 925 1963 778 2166 
Q 669 2309 669 2503 
Q 669 3034 1175 3344 
Q 1575 3588 2188 3588 
Q 2425 3588 2684 3550 
Q 2944 3513 3234 3438 
L 3134 2916 
Q 2847 3006 2606 3047 
Q 2359 3088 2138 3088 
Q 1766 3088 1522 2944 
Q 1228 2772 1228 2522 
Q 1228 2356 1381 2241 
Q 1563 2103 1925 2103 
L 2409 2103 
L 2319 1628 
L 1856 1628 
Q 1425 1628 1172 1469 
Q 828 1253 828 916 
Q 828 703 1013 563 
Q 1244 388 1716 388 
Q 2006 388 2284 444 
Q 2563 503 2806 619 
L 2700 84 
Q 2403 -3 2131 -47 
Q 1859 -91 1609 -91 
Q 866 -91 516 194 
Q 250 413 250 781 
Q 250 1278 600 1584 
Q 859 1813 1263 1888 
z
" transform="scale(0.015625)"/>
     </defs>
     <use xlink:href="#DejaVuSans-Oblique-58"/>
     <use xlink:href="#DejaVuSans-Oblique-2081" transform="translate(68.505859 0)"/>
     <use xlink:href="#DejaVuSans-Oblique-20" transform="translate(108.59375 0)"/>
     <use xlink:href="#DejaVuSans-Oblique-3d" transform="translate(140.380859 0)"/>
     <use xlink:href="#DejaVuSans-Oblique-20" transform="translate(224.169922 0)"/>
     <use xlink:href="#DejaVuSans-Oblique-3b5" transform="translate(255.957031 0)"/>
     <use xlink:href="#DejaVuSans-Oblique-2081" transform="translate(310.009766 0)"/>
    </g>
   </g>
   <g id="text_15">
    <g id="patch_21">
     <path d="M 214.645781 140.7384 
L 246.154219 140.7384 
Q 248.854219 140.7384 248.854219 138.0384 
L 248.854219 129.328087 
Q 248.854219 126.628087 246.154219 126.628087 
L 214.645781 126.628087 
Q 211.945781 126.628087 211.945781 129.328087 
L 211.945781 138.0384 
Q 211.945781 140.7384 214.645781 140.7384 
z
" style="fill: #ffffff; opacity: 0.8"/>
    </g>
    <!-- X₂ = ε₂ -->
    <g transform="translate(214.645781 136.166681) scale(0.09 -0.09)">
     <defs>
      <path id="DejaVuSans-Oblique-2082" d="M 2059 1318 
L 856 356 
L 2234 356 
L 2163 0 
L 231 0 
L 300 343 
L 1619 1406 
Q 1803 1550 1893 1684 
Q 1984 1818 1984 1943 
Q 1984 2112 1853 2216 
Q 1722 2321 1503 2321 
Q 1331 2321 1125 2268 
Q 919 2215 659 2103 
L 738 2487 
Q 975 2575 1187 2618 
Q 1400 2662 1600 2662 
Q 1984 2662 2223 2484 
Q 2463 2306 2463 2028 
Q 2463 1834 2363 1657 
Q 2263 1481 2059 1318 
z
" transform="scale(0.015625)"/>
     </defs>
     <use xlink:href="#DejaVuSans-Oblique-58"/>
     <use xlink:href="#DejaVuSans-Oblique-2082" transform="translate(68.505859 0)"/>
     <use xlink:href="#DejaVuSans-Oblique-20" transform="translate(108.59375 0)"/>
     <use xlink:href="#DejaVuSans-Oblique-3d" transform="translate(140.380859 0)"/>
     <use xlink:href="#DejaVuSans-Oblique-20" transform="translate(224.169922 0)"/>
     <use xlink:href="#DejaVuSans-Oblique-3b5" transform="translate(255.957031 0)"/>
     <use xlink:href="#DejaVuSans-Oblique-2082" transform="translate(310.009766 0)"/>
    </g>
   </g>
   <g id="text_16">
    <g id="patch_22">
     <path d="M 215.555625 176.22 
L 245.244375 176.22 
Q 247.944375 176.22 247.944375 173.52 
L 247.944375 164.809687 
Q 247.944375 162.109687 245.244375 162.109687 
L 215.555625 162.109687 
Q 212.855625 162.109687 212.855625 164.809687 
L 212.855625 173.52 
Q 212.855625 176.22 215.555625 176.22 
z
" style="fill: #ffffff; opacity: 0.8"/>
    </g>
    <!-- sin(X₁) -->
    <g transform="translate(215.555625 171.648281) scale(0.09 -0.09)">
     <defs>
      <path id="DejaVuSans-Oblique-28" d="M 2731 4856 
Q 1903 3822 1495 2892 
Q 1088 1963 1088 1100 
Q 1088 606 1206 120 
Q 1325 -366 1563 -844 
L 1063 -844 
Q 775 -306 634 201 
Q 494 709 494 1197 
Q 494 2125 923 3036 
Q 1353 3947 2222 4856 
L 2731 4856 
z
" transform="scale(0.015625)"/>
      <path id="DejaVuSans-Oblique-29" d="M -397 -844 
Q 434 191 840 1120 
Q 1247 2050 1247 2913 
Q 1247 3406 1130 3892 
Q 1013 4378 775 4856 
L 1275 4856 
Q 1563 4316 1703 3812 
Q 1844 3309 1844 2822 
Q 1844 1891 1411 973 
Q 978 56 116 -844 
L -397 -844 
z
" transform="scale(0.015625)"/>
     </defs>
     <use xlink:href="#DejaVuSans-Oblique-73"/>
     <use xlink:href="#DejaVuSans-Oblique-69" transform="translate(52.099609 0)"/>
     <use xlink:href="#DejaVuSans-Oblique-6e" transform="translate(79.882812 0)"/>
     <use xlink:href="#DejaVuSans-Oblique-28" transform="translate(143.261719 0)"/>
     <use xlink:href="#DejaVuSans-Oblique-58" transform="translate(182.275391 0)"/>
     <use xlink:href="#DejaVuSans-Oblique-2081" transform="translate(250.78125 0)"/>
     <use xlink:href="#DejaVuSans-Oblique-29" transform="translate(290.869141 0)"/>
    </g>
   </g>
   <g id="text_17">
    <g id="patch_23">
     <path d="M 279.509062 176.22 
L 292.890937 176.22 
Q 295.590937 176.22 295.590937 173.52 
L 295.590937 164.809687 
Q 295.590937 162.109687 292.890937 162.109687 
L 279.509062 162.109687 
Q 276.809062 162.109687 276.809062 164.809687 
L 276.809062 173.52 
Q 276.809062 176.22 279.509062 176.22 
z
" style="fill: #ffffff; opacity: 0.8"/>
    </g>
    <!-- X₂² -->
    <g transform="translate(279.509062 171.648281) scale(0.09 -0.09)">
     <defs>
      <path id="DejaVuSans-Oblique-b2" d="M 2059 3406 
L 856 2444 
L 2234 2444 
L 2163 2088 
L 231 2088 
L 300 2431 
L 1619 3494 
Q 1803 3638 1893 3772 
Q 1984 3906 1984 4031 
Q 1984 4200 1853 4304 
Q 1722 4409 1503 4409 
Q 1331 4409 1125 4356 
Q 919 4303 659 4191 
L 738 4575 
Q 975 4663 1187 4706 
Q 1400 4750 1600 4750 
Q 1984 4750 2223 4572 
Q 2463 4394 2463 4116 
Q 2463 3922 2363 3745 
Q 2263 3569 2059 3406 
z
" transform="scale(0.015625)"/>
     </defs>
     <use xlink:href="#DejaVuSans-Oblique-58"/>
     <use xlink:href="#DejaVuSans-Oblique-2082" transform="translate(68.505859 0)"/>
     <use xlink:href="#DejaVuSans-Oblique-b2" transform="translate(108.59375 0)"/>
    </g>
   </g>
   <g id="text_18">
    <g id="patch_24">
     <path d="M 332.562656 140.7384 
L 351.437344 140.7384 
Q 354.137344 140.7384 354.137344 138.0384 
L 354.137344 129.328087 
Q 354.137344 126.628087 351.437344 126.628087 
L 332.562656 126.628087 
Q 329.862656 126.628087 329.862656 129.328087 
L 329.862656 138.0384 
Q 329.862656 140.7384 332.562656 140.7384 
z
" style="fill: #ffffff; opacity: 0.8"/>
    </g>
    <!-- + ε₃ -->
    <g transform="translate(332.562656 136.166681) scale(0.09 -0.09)">
     <defs>
      <path id="DejaVuSans-Oblique-2b" d="M 2944 4013 
L 2944 2272 
L 4684 2272 
L 4684 1741 
L 2944 1741 
L 2944 0 
L 2419 0 
L 2419 1741 
L 678 1741 
L 678 2272 
L 2419 2272 
L 2419 4013 
L 2944 4013 
z
" transform="scale(0.015625)"/>
      <path id="DejaVuSans-Oblique-2083" d="M 672 2553 
Q 931 2609 1128 2635 
Q 1325 2662 1497 2662 
Q 1888 2662 2122 2498 
Q 2356 2334 2356 2065 
Q 2356 1825 2178 1646 
Q 2000 1468 1697 1412 
Q 1931 1362 2056 1215 
Q 2181 1068 2181 843 
Q 2181 446 1832 199 
Q 1484 -47 909 -47 
Q 709 -47 506 -14 
Q 303 18 103 81 
L 178 459 
Q 344 375 519 334 
Q 694 293 891 293 
Q 1275 293 1492 437 
Q 1709 581 1709 837 
Q 1709 1031 1557 1129 
Q 1406 1228 1100 1228 
L 831 1228 
L 903 1565 
L 1191 1565 
Q 1509 1565 1689 1677 
Q 1869 1790 1869 1990 
Q 1869 2156 1741 2238 
Q 1613 2321 1356 2321 
Q 1181 2321 987 2288 
Q 794 2256 603 2193 
L 672 2553 
z
" transform="scale(0.015625)"/>
     </defs>
     <use xlink:href="#DejaVuSans-Oblique-2b"/>
     <use xlink:href="#DejaVuSans-Oblique-20" transform="translate(83.789062 0)"/>
     <use xlink:href="#DejaVuSans-Oblique-3b5" transform="translate(115.576172 0)"/>
     <use xlink:href="#DejaVuSans-Oblique-2083" transform="translate(169.628906 0)"/>
    </g>
   </g>
   <g id="text_19">
    <g id="patch_25">
     <path d="M 272.726719 176.22 
L 299.673281 176.22 
Q 302.373281 176.22 302.373281 173.52 
L 302.373281 164.809687 
Q 302.373281 162.109687 299.673281 162.109687 
L 272.726719 162.109687 
Q 270.026719 162.109687 270.026719 164.809687 
L 270.026719 173.52 
Q 270.026719 176.22 272.726719 176.22 
z
" style="fill: #ffffff; opacity: 0.8"/>
    </g>
    <!-- 0.5·X₁ -->
    <g transform="translate(272.726719 171.648281) scale(0.09 -0.09)">
     <defs>
      <path id="DejaVuSans-Oblique-30" d="M 2444 4750 
Q 3078 4750 3414 4328 
Q 3750 3906 3750 3116 
Q 3750 2516 3592 1923 
Q 3434 1331 3150 863 
Q 2859 394 2467 151 
Q 2075 -91 1600 -91 
Q 988 -91 653 334 
Q 319 759 319 1544 
Q 319 2138 480 2733 
Q 641 3328 928 3794 
Q 1216 4263 1602 4506 
Q 1988 4750 2444 4750 
z
M 2406 4250 
Q 2169 4250 1955 4123 
Q 1741 3997 1569 3750 
Q 1281 3338 1111 2720 
Q 941 2103 941 1453 
Q 941 938 1123 673 
Q 1306 409 1663 409 
Q 1913 409 2125 536 
Q 2338 663 2509 909 
Q 2794 1319 2961 1936 
Q 3128 2553 3128 3206 
Q 3128 3722 2945 3986 
Q 2763 4250 2406 4250 
z
" transform="scale(0.015625)"/>
      <path id="DejaVuSans-Oblique-35" d="M 3719 4666 
L 3622 4141 
L 1691 4141 
L 1466 2988 
Q 1609 3034 1757 3056 
Q 1906 3078 2059 3078 
Q 2706 3078 3081 2731 
Q 3456 2384 3456 1791 
Q 3456 1375 3264 994 
Q 3072 613 2719 325 
Q 2469 125 2108 17 
Q 1747 -91 1319 -91 
Q 1038 -91 744 -41 
Q 450 9 128 109 
L 244 697 
Q 531 556 820 486 
Q 1109 416 1403 416 
Q 2013 416 2411 781 
Q 2809 1147 2809 1697 
Q 2809 2103 2548 2328 
Q 2288 2553 1819 2553 
Q 1572 2553 1305 2495 
Q 1038 2438 756 2322 
L 1209 4666 
L 3719 4666 
z
" transform="scale(0.015625)"/>
      <path id="DejaVuSans-Oblique-b7" d="M 884 2619 
L 1544 2619 
L 1388 1825 
L 728 1825 
L 884 2619 
z
" transform="scale(0.015625)"/>
     </defs>
     <use xlink:href="#DejaVuSans-Oblique-30"/>
     <use xlink:href="#DejaVuSans-Oblique-2e" transform="translate(63.623047 0)"/>
     <use xlink:href="#DejaVuSans-Oblique-35" transform="translate(95.410156 0)"/>
     <use xlink:href="#DejaVuSans-Oblique-b7" transform="translate(159.033203 0)"/>
     <use xlink:href="#DejaVuSans-Oblique-58" transform="translate(190.820312 0)"/>
     <use xlink:href="#DejaVuSans-Oblique-2081" transform="translate(259.326172 0)"/>
    </g>
   </g>
   <g id="text_20">
    <g id="patch_26">
     <path d="M 382.703203 176.22 
L 412.896797 176.22 
Q 415.596797 176.22 415.596797 173.52 
L 415.596797 164.809687 
Q 415.596797 162.109687 412.896797 162.109687 
L 382.703203 162.109687 
Q 380.003203 162.109687 380.003203 164.809687 
L 380.003203 173.52 
Q 380.003203 176.22 382.703203 176.22 
z
" style="fill: #ffffff; opacity: 0.8"/>
    </g>
    <!-- -1.2·X₃ -->
    <g transform="translate(382.703203 171.648281) scale(0.09 -0.09)">
     <defs>
      <path id="DejaVuSans-Oblique-2d" d="M 391 2009 
L 2075 2009 
L 1978 1497 
L 288 1497 
L 391 2009 
z
" transform="scale(0.015625)"/>
      <path id="DejaVuSans-Oblique-31" d="M 416 531 
L 1447 531 
L 2144 4122 
L 978 3897 
L 1088 4441 
L 2247 4666 
L 2881 4666 
L 2075 531 
L 3103 531 
L 3003 0 
L 313 0 
L 416 531 
z
" transform="scale(0.015625)"/>
      <path id="DejaVuSans-Oblique-32" d="M 2950 2253 
L 934 525 
L 3163 525 
L 3053 0 
L 25 0 
L 128 531 
L 2234 2338 
Q 2656 2703 2832 2979 
Q 3009 3256 3009 3547 
Q 3009 3850 2796 4040 
Q 2584 4231 2241 4231 
Q 1944 4231 1581 4125 
Q 1219 4019 806 3816 
L 922 4441 
Q 1309 4594 1662 4672 
Q 2016 4750 2316 4750 
Q 2928 4750 3301 4425 
Q 3675 4100 3675 3572 
Q 3675 3216 3497 2892 
Q 3319 2569 2950 2253 
z
" transform="scale(0.015625)"/>
     </defs>
     <use xlink:href="#DejaVuSans-Oblique-2d"/>
     <use xlink:href="#DejaVuSans-Oblique-31" transform="translate(36.083984 0)"/>
     <use xlink:href="#DejaVuSans-Oblique-2e" transform="translate(99.707031 0)"/>
     <use xlink:href="#DejaVuSans-Oblique-32" transform="translate(131.494141 0)"/>
     <use xlink:href="#DejaVuSans-Oblique-b7" transform="translate(195.117188 0)"/>
     <use xlink:href="#DejaVuSans-Oblique-58" transform="translate(226.904297 0)"/>
     <use xlink:href="#DejaVuSans-Oblique-2083" transform="translate(295.410156 0)"/>
    </g>
   </g>
   <g id="text_21">
    <g id="patch_27">
     <path d="M 443.218359 140.7384 
L 463.981641 140.7384 
Q 466.681641 140.7384 466.681641 138.0384 
L 466.681641 129.328087 
Q 466.681641 126.628087 463.981641 126.628087 
L 443.218359 126.628087 
Q 440.518359 126.628087 440.518359 129.328087 
L 440.518359 138.0384 
Q 440.518359 140.7384 443.218359 140.7384 
z
" style="fill: #ffffff; opacity: 0.8"/>
    </g>
    <!-- + εY -->
    <g transform="translate(443.218359 136.166681) scale(0.09 -0.09)">
     <defs>
      <path id="DejaVuSans-Oblique-59" d="M 403 4666 
L 1081 4666 
L 1953 2747 
L 3616 4666 
L 4325 4666 
L 2209 2222 
L 1778 0 
L 1147 0 
L 1575 2222 
L 403 4666 
z
" transform="scale(0.015625)"/>
     </defs>
     <use xlink:href="#DejaVuSans-Oblique-2b"/>
     <use xlink:href="#DejaVuSans-Oblique-20" transform="translate(83.789062 0)"/>
     <use xlink:href="#DejaVuSans-Oblique-3b5" transform="translate(115.576172 0)"/>
     <use xlink:href="#DejaVuSans-Oblique-59" transform="translate(169.628906 0)"/>
    </g>
   </g>
   <g id="legend_1">
    <g id="patch_28">
     <path d="M 116.846875 445.72 
L 455.553125 445.72 
Q 457.553125 445.72 457.553125 443.72 
L 457.553125 430.041875 
Q 457.553125 428.041875 455.553125 428.041875 
L 116.846875 428.041875 
Q 114.846875 428.041875 114.846875 430.041875 
L 114.846875 443.72 
Q 114.846875 445.72 116.846875 445.72 
z
" style="fill: #ffffff; opacity: 0.9; stroke: #cccccc; stroke-linejoin: miter"/>
    </g>
    <g id="patch_29">
     <path d="M 118.846875 439.640312 
L 138.846875 439.640312 
L 138.846875 432.640312 
L 118.846875 432.640312 
z
" style="fill: #ffe6e6; stroke: #cc0000; stroke-width: 2; stroke-linejoin: miter"/>
    </g>
    <g id="text_22">
     <!-- Exogenous Noise (ε) -->
     <g transform="translate(146.846875 439.640312) scale(0.1 -0.1)">
      <defs>
       <path id="DejaVuSans-45" d="M 628 4666 
L 3578 4666 
L 3578 4134 
L 1259 4134 
L 1259 2753 
L 3481 2753 
L 3481 2222 
L 1259 2222 
L 1259 531 
L 3634 531 
L 3634 0 
L 628 0 
L 628 4666 
z
" transform="scale(0.015625)"/>
       <path id="DejaVuSans-78" d="M 3513 3500 
L 2247 1797 
L 3578 0 
L 2900 0 
L 1881 1375 
L 863 0 
L 184 0 
L 1544 1831 
L 300 3500 
L 978 3500 
L 1906 2253 
L 2834 3500 
L 3513 3500 
z
" transform="scale(0.015625)"/>
       <path id="DejaVuSans-6f" d="M 1959 3097 
Q 1497 3097 1228 2736 
Q 959 2375 959 1747 
Q 959 1119 1226 758 
Q 1494 397 1959 397 
Q 2419 397 2687 759 
Q 2956 1122 2956 1747 
Q 2956 2369 2687 2733 
Q 2419 3097 1959 3097 
z
M 1959 3584 
Q 2709 3584 3137 3096 
Q 3566 2609 3566 1747 
Q 3566 888 3137 398 
Q 2709 -91 1959 -91 
Q 1206 -91 779 398 
Q 353 888 353 1747 
Q 353 2609 779 3096 
Q 1206 3584 1959 3584 
z
" transform="scale(0.015625)"/>
       <path id="DejaVuSans-67" d="M 2906 1791 
Q 2906 2416 2648 2759 
Q 2391 3103 1925 3103 
Q 1463 3103 1205 2759 
Q 947 2416 947 1791 
Q 947 1169 1205 825 
Q 1463 481 1925 481 
Q 2391 481 2648 825 
Q 2906 1169 2906 1791 
z
M 3481 434 
Q 3481 -459 3084 -895 
Q 2688 -1331 1869 -1331 
Q 1566 -1331 1297 -1286 
Q 1028 -1241 775 -1147 
L 775 -588 
Q 1028 -725 1275 -790 
Q 1522 -856 1778 -856 
Q 2344 -856 2625 -561 
Q 2906 -266 2906 331 
L 2906 616 
Q 2728 306 2450 153 
Q 2172 0 1784 0 
Q 1141 0 747 490 
Q 353 981 353 1791 
Q 353 2603 747 3093 
Q 1141 3584 1784 3584 
Q 2172 3584 2450 3431 
Q 2728 3278 2906 2969 
L 2906 3500 
L 3481 3500 
L 3481 434 
z
" transform="scale(0.015625)"/>
       <path id="DejaVuSans-65" d="M 3597 1894 
L 3597 1613 
L 953 1613 
Q 991 1019 1311 708 
Q 1631 397 2203 397 
Q 2534 397 2845 478 
Q 3156 559 3463 722 
L 3463 178 
Q 3153 47 2828 -22 
Q 2503 -91 2169 -91 
Q 1331 -91 842 396 
Q 353 884 353 1716 
Q 353 2575 817 3079 
Q 1281 3584 2069 3584 
Q 2775 3584 3186 3129 
Q 3597 2675 3597 1894 
z
M 3022 2063 
Q 3016 2534 2758 2815 
Q 2500 3097 2075 3097 
Q 1594 3097 1305 2825 
Q 1016 2553 972 2059 
L 3022 2063 
z
" transform="scale(0.015625)"/>
       <path id="DejaVuSans-6e" d="M 3513 2113 
L 3513 0 
L 2938 0 
L 2938 2094 
Q 2938 2591 2744 2837 
Q 2550 3084 2163 3084 
Q 1697 3084 1428 2787 
Q 1159 2491 1159 1978 
L 1159 0 
L 581 0 
L 581 3500 
L 1159 3500 
L 1159 2956 
Q 1366 3272 1645 3428 
Q 1925 3584 2291 3584 
Q 2894 3584 3203 3211 
Q 3513 2838 3513 2113 
z
" transform="scale(0.015625)"/>
       <path id="DejaVuSans-75" d="M 544 1381 
L 544 3500 
L 1119 3500 
L 1119 1403 
Q 1119 906 1312 657 
Q 1506 409 1894 409 
Q 2359 409 2629 706 
Q 2900 1003 2900 1516 
L 2900 3500 
L 3475 3500 
L 3475 0 
L 2900 0 
L 2900 538 
Q 2691 219 2414 64 
Q 2138 -91 1772 -91 
Q 1169 -91 856 284 
Q 544 659 544 1381 
z
M 1991 3584 
L 1991 3584 
z
" transform="scale(0.015625)"/>
       <path id="DejaVuSans-73" d="M 2834 3397 
L 2834 2853 
Q 2591 2978 2328 3040 
Q 2066 3103 1784 3103 
Q 1356 3103 1142 2972 
Q 928 2841 928 2578 
Q 928 2378 1081 2264 
Q 1234 2150 1697 2047 
L 1894 2003 
Q 2506 1872 2764 1633 
Q 3022 1394 3022 966 
Q 3022 478 2636 193 
Q 2250 -91 1575 -91 
Q 1294 -91 989 -36 
Q 684 19 347 128 
L 347 722 
Q 666 556 975 473 
Q 1284 391 1588 391 
Q 1994 391 2212 530 
Q 2431 669 2431 922 
Q 2431 1156 2273 1281 
Q 2116 1406 1581 1522 
L 1381 1569 
Q 847 1681 609 1914 
Q 372 2147 372 2553 
Q 372 3047 722 3315 
Q 1072 3584 1716 3584 
Q 2034 3584 2315 3537 
Q 2597 3491 2834 3397 
z
" transform="scale(0.015625)"/>
       <path id="DejaVuSans-20" transform="scale(0.015625)"/>
       <path id="DejaVuSans-4e" d="M 628 4666 
L 1478 4666 
L 3547 763 
L 3547 4666 
L 4159 4666 
L 4159 0 
L 3309 0 
L 1241 3903 
L 1241 0 
L 628 0 
L 628 4666 
z
" transform="scale(0.015625)"/>
       <path id="DejaVuSans-69" d="M 603 3500 
L 1178 3500 
L 1178 0 
L 603 0 
L 603 3500 
z
M 603 4863 
L 1178 4863 
L 1178 4134 
L 603 4134 
L 603 4863 
z
" transform="scale(0.015625)"/>
       <path id="DejaVuSans-28" d="M 1984 4856 
Q 1566 4138 1362 3434 
Q 1159 2731 1159 2009 
Q 1159 1288 1364 580 
Q 1569 -128 1984 -844 
L 1484 -844 
Q 1016 -109 783 600 
Q 550 1309 550 2009 
Q 550 2706 781 3412 
Q 1013 4119 1484 4856 
L 1984 4856 
z
" transform="scale(0.015625)"/>
       <path id="DejaVuSans-3b5" d="M 1234 1888 
Q 884 1963 697 2166 
Q 509 2366 509 2656 
Q 509 3097 866 3344 
Q 1219 3588 1831 3588 
Q 2069 3588 2334 3550 
Q 2600 3513 2906 3438 
L 2906 2916 
Q 2603 3006 2353 3047 
Q 2100 3088 1878 3088 
Q 1506 3088 1291 2944 
Q 1072 2800 1072 2600 
Q 1072 2381 1284 2241 
Q 1494 2103 1856 2103 
L 2341 2103 
L 2341 1628 
L 1878 1628 
Q 1450 1628 1225 1469 
Q 981 1294 981 1019 
Q 981 738 1244 563 
Q 1509 388 1981 388 
Q 2272 388 2538 444 
Q 2803 503 3025 619 
L 3025 84 
Q 2744 -3 2481 -47 
Q 2216 -91 1966 -91 
Q 1222 -91 819 194 
Q 416 478 416 1019 
Q 416 1356 631 1584 
Q 847 1813 1234 1888 
z
" transform="scale(0.015625)"/>
       <path id="DejaVuSans-29" d="M 513 4856 
L 1013 4856 
Q 1481 4119 1714 3412 
Q 1947 2706 1947 2009 
Q 1947 1309 1714 600 
Q 1481 -109 1013 -844 
L 513 -844 
Q 928 -128 1133 580 
Q 1338 1288 1338 2009 
Q 1338 2731 1133 3434 
Q 928 4138 513 4856 
z
" transform="scale(0.015625)"/>
      </defs>
      <use xlink:href="#DejaVuSans-45"/>
      <use xlink:href="#DejaVuSans-78" transform="translate(63.183594 0)"/>
      <use xlink:href="#DejaVuSans-6f" transform="translate(119.238281 0)"/>
      <use xlink:href="#DejaVuSans-67" transform="translate(180.419922 0)"/>
      <use xlink:href="#DejaVuSans-65" transform="translate(243.896484 0)"/>
      <use xlink:href="#DejaVuSans-6e" transform="translate(305.419922 0)"/>
      <use xlink:href="#DejaVuSans-6f" transform="translate(368.798828 0)"/>
      <use xlink:href="#DejaVuSans-75" transform="translate(429.980469 0)"/>
      <use xlink:href="#DejaVuSans-73" transform="translate(493.359375 0)"/>
      <use xlink:href="#DejaVuSans-20" transform="translate(545.458984 0)"/>
      <use xlink:href="#DejaVuSans-4e" transform="translate(577.246094 0)"/>
      <use xlink:href="#DejaVuSans-6f" transform="translate(652.050781 0)"/>
      <use xlink:href="#DejaVuSans-69" transform="translate(713.232422 0)"/>
      <use xlink:href="#DejaVuSans-73" transform="translate(741.015625 0)"/>
      <use xlink:href="#DejaVuSans-65" transform="translate(793.115234 0)"/>
      <use xlink:href="#DejaVuSans-20" transform="translate(854.638672 0)"/>
      <use xlink:href="#DejaVuSans-28" transform="translate(886.425781 0)"/>
      <use xlink:href="#DejaVuSans-3b5" transform="translate(925.439453 0)"/>
      <use xlink:href="#DejaVuSans-29" transform="translate(979.492188 0)"/>
     </g>
    </g>
    <g id="patch_30">
     <path d="M 268.7 439.640312 
L 288.7 439.640312 
L 288.7 432.640312 
L 268.7 432.640312 
z
" style="fill: #e6f3ff; stroke: #0066cc; stroke-width: 2; stroke-linejoin: miter"/>
    </g>
    <g id="text_23">
     <!-- Features (X) -->
     <g transform="translate(296.7 439.640312) scale(0.1 -0.1)">
      <defs>
       <path id="DejaVuSans-46" d="M 628 4666 
L 3309 4666 
L 3309 4134 
L 1259 4134 
L 1259 2759 
L 3109 2759 
L 3109 2228 
L 1259 2228 
L 1259 0 
L 628 0 
L 628 4666 
z
" transform="scale(0.015625)"/>
       <path id="DejaVuSans-61" d="M 2194 1759 
Q 1497 1759 1228 1600 
Q 959 1441 959 1056 
Q 959 750 1161 570 
Q 1363 391 1709 391 
Q 2188 391 2477 730 
Q 2766 1069 2766 1631 
L 2766 1759 
L 2194 1759 
z
M 3341 1997 
L 3341 0 
L 2766 0 
L 2766 531 
Q 2569 213 2275 61 
Q 1981 -91 1556 -91 
Q 1019 -91 701 211 
Q 384 513 384 1019 
Q 384 1609 779 1909 
Q 1175 2209 1959 2209 
L 2766 2209 
L 2766 2266 
Q 2766 2663 2505 2880 
Q 2244 3097 1772 3097 
Q 1472 3097 1187 3025 
Q 903 2953 641 2809 
L 641 3341 
Q 956 3463 1253 3523 
Q 1550 3584 1831 3584 
Q 2591 3584 2966 3190 
Q 3341 2797 3341 1997 
z
" transform="scale(0.015625)"/>
       <path id="DejaVuSans-74" d="M 1172 4494 
L 1172 3500 
L 2356 3500 
L 2356 3053 
L 1172 3053 
L 1172 1153 
Q 1172 725 1289 603 
Q 1406 481 1766 481 
L 2356 481 
L 2356 0 
L 1766 0 
Q 1100 0 847 248 
Q 594 497 594 1153 
L 594 3053 
L 172 3053 
L 172 3500 
L 594 3500 
L 594 4494 
L 1172 4494 
z
" transform="scale(0.015625)"/>
       <path id="DejaVuSans-72" d="M 2631 2963 
Q 2534 3019 2420 3045 
Q 2306 3072 2169 3072 
Q 1681 3072 1420 2755 
Q 1159 2438 1159 1844 
L 1159 0 
L 581 0 
L 581 3500 
L 1159 3500 
L 1159 2956 
Q 1341 3275 1631 3429 
Q 1922 3584 2338 3584 
Q 2397 3584 2469 3576 
Q 2541 3569 2628 3553 
L 2631 2963 
z
" transform="scale(0.015625)"/>
       <path id="DejaVuSans-58" d="M 403 4666 
L 1081 4666 
L 2241 2931 
L 3406 4666 
L 4084 4666 
L 2584 2425 
L 4184 0 
L 3506 0 
L 2194 1984 
L 872 0 
L 191 0 
L 1856 2491 
L 403 4666 
z
" transform="scale(0.015625)"/>
      </defs>
      <use xlink:href="#DejaVuSans-46"/>
      <use xlink:href="#DejaVuSans-65" transform="translate(52.019531 0)"/>
      <use xlink:href="#DejaVuSans-61" transform="translate(113.542969 0)"/>
      <use xlink:href="#DejaVuSans-74" transform="translate(174.822266 0)"/>
      <use xlink:href="#DejaVuSans-75" transform="translate(214.03125 0)"/>
      <use xlink:href="#DejaVuSans-72" transform="translate(277.410156 0)"/>
      <use xlink:href="#DejaVuSans-65" transform="translate(316.273438 0)"/>
      <use xlink:href="#DejaVuSans-73" transform="translate(377.796875 0)"/>
      <use xlink:href="#DejaVuSans-20" transform="translate(429.896484 0)"/>
      <use xlink:href="#DejaVuSans-28" transform="translate(461.683594 0)"/>
      <use xlink:href="#DejaVuSans-58" transform="translate(500.697266 0)"/>
      <use xlink:href="#DejaVuSans-29" transform="translate(569.203125 0)"/>
     </g>
    </g>
    <g id="patch_31">
     <path d="M 377.520312 439.640312 
L 397.520312 439.640312 
L 397.520312 432.640312 
L 377.520312 432.640312 
z
" style="fill: #ffe6cc; stroke: #ff8800; stroke-width: 2; stroke-linejoin: miter"/>
    </g>
    <g id="text_24">
     <!-- Target (Y) -->
     <g transform="translate(405.520312 439.640312) scale(0.1 -0.1)">
      <defs>
       <path id="DejaVuSans-54" d="M -19 4666 
L 3928 4666 
L 3928 4134 
L 2272 4134 
L 2272 0 
L 1638 0 
L 1638 4134 
L -19 4134 
L -19 4666 
z
" transform="scale(0.015625)"/>
       <path id="DejaVuSans-59" d="M -13 4666 
L 666 4666 
L 1959 2747 
L 3244 4666 
L 3922 4666 
L 2272 2222 
L 2272 0 
L 1638 0 
L 1638 2222 
L -13 4666 
z
" transform="scale(0.015625)"/>
      </defs>
      <use xlink:href="#DejaVuSans-54"/>
      <use xlink:href="#DejaVuSans-61" transform="translate(44.583984 0)"/>
      <use xlink:href="#DejaVuSans-72" transform="translate(105.863281 0)"/>
      <use xlink:href="#DejaVuSans-67" transform="translate(145.226562 0)"/>
      <use xlink:href="#DejaVuSans-65" transform="translate(208.703125 0)"/>
      <use xlink:href="#DejaVuSans-74" transform="translate(270.226562 0)"/>
      <use xlink:href="#DejaVuSans-20" transform="translate(309.435547 0)"/>
      <use xlink:href="#DejaVuSans-28" transform="translate(341.222656 0)"/>
      <use xlink:href="#DejaVuSans-59" transform="translate(380.236328 0)"/>
      <use xlink:href="#DejaVuSans-29" transform="translate(441.320312 0)"/>
     </g>
    </g>
   </g>
  </g>
 </g>
 <defs>
  <clipPath id="p2b436a93cc">
   <rect x="7.2" y="7.2" width="558" height="443.52"/>
  </clipPath>
 </defs>
</svg>
