<?xml version="1.0" encoding="utf-8" standalone="no"?>
<!DOCTYPE svg PUBLIC "-//W3C//DTD SVG 1.1//EN"
  "http://www.w3.org/Graphics/SVG/1.1/DTD/svg11.dtd">
<svg xmlns:xlink="http://www.w3.org/1999/xlink" width="1144.8pt" height="640.8pt" viewBox="0 0 1144.8 640.8" xmlns="http://www.w3.org/2000/svg" version="1.1">
 <metadata>
  <rdf:RDF xmlns:dc="http://purl.org/dc/elements/1.1/" xmlns:cc="http://creativecommons.org/ns#" xmlns:rdf="http://www.w3.org/1999/02/22-rdf-syntax-ns#">
   <cc:Work>
    <dc:type rdf:resource="http://purl.org/dc/dcmitype/StillImage"/>
    <dc:date>2026-05-12T08:40:35.134307</dc:date>
    <dc:format>image/svg+xml</dc:format>
    <dc:creator>
     <cc:Agent>
      <dc:title>Matplotlib v3.10.7, https://matplotlib.org/</dc:title>
     </cc:Agent>
    </dc:creator>
   </cc:Work>
  </rdf:RDF>
 </metadata>
 <defs>
  <style type="text/css">*{stroke-linejoin: round; stroke-linecap: butt}</style>
 </defs>
 <g id="figure_1">
  <g id="patch_1">
   <path d="M 0 640.8 
L 1144.8 640.8 
L 1144.8 0 
L 0 0 
z
" style="fill: #ffffff"/>
  </g>
  <g id="axes_1">
   <g id="patch_2">
    <path d="M 38.6 299.52 
L 70 299.52 
L 70 271.68 
L 38.6 271.68 
z
" clip-path="url(#p2d32643a3d)" style="fill: #ffffff; stroke: #333333; stroke-linejoin: miter"/>
   </g>
   <g id="patch_3">
    <path d="M 70 299.52 
L 101.4 299.52 
L 101.4 271.68 
L 70 271.68 
z
" clip-path="url(#p2d32643a3d)" style="fill: #ffffff; stroke: #333333; stroke-linejoin: miter"/>
   </g>
   <g id="patch_4">
    <path d="M 101.4 299.52 
L 132.8 299.52 
L 132.8 271.68 
L 101.4 271.68 
z
" clip-path="url(#p2d32643a3d)" style="fill: #ffffff; stroke: #333333; stroke-linejoin: miter"/>
   </g>
   <g id="patch_5">
    <path d="M 132.8 299.52 
L 164.2 299.52 
L 164.2 271.68 
L 132.8 271.68 
z
" clip-path="url(#p2d32643a3d)" style="fill: #ffffff; stroke: #333333; stroke-linejoin: miter"/>
   </g>
   <g id="patch_6">
    <path d="M 38.6 327.36 
L 70 327.36 
L 70 299.52 
L 38.6 299.52 
z
" clip-path="url(#p2d32643a3d)" style="fill: #ffffff; stroke: #333333; stroke-linejoin: miter"/>
   </g>
   <g id="patch_7">
    <path d="M 70 327.36 
L 101.4 327.36 
L 101.4 299.52 
L 70 299.52 
z
" clip-path="url(#p2d32643a3d)" style="fill: #ffffff; stroke: #333333; stroke-linejoin: miter"/>
   </g>
   <g id="patch_8">
    <path d="M 101.4 327.36 
L 132.8 327.36 
L 132.8 299.52 
L 101.4 299.52 
z
" clip-path="url(#p2d32643a3d)" style="fill: #ffffff; stroke: #333333; stroke-linejoin: miter"/>
   </g>
   <g id="patch_9">
    <path d="M 132.8 327.36 
L 164.2 327.36 
L 164.2 299.52 
L 132.8 299.52 
z
" clip-path="url(#p2d32643a3d)" style="fill: #ffffff; stroke: #333333; stroke-linejoin: miter"/>
   </g>
   <g id="patch_10">
    <path d="M 38.6 355.2 
L 70 355.2 
L 70 327.36 
L 38.6 327.36 
z
" clip-path="url(#p2d32643a3d)" style="fill: #ffffff; stroke: #333333; stroke-linejoin: miter"/>
   </g>
   <g id="patch_11">
    <path d="M 70 355.2 
L 101.4 355.2 
L 101.4 327.36 
L 70 327.36 
z
" clip-path="url(#p2d32643a3d)" style="fill: #ffffff; stroke: #333333; stroke-linejoin: miter"/>
   </g>
   <g id="patch_12">
    <path d="M 101.4 355.2 
L 132.8 355.2 
L 132.8 327.36 
L 101.4 327.36 
z
" clip-path="url(#p2d32643a3d)" style="fill: #ffffff; stroke: #333333; stroke-linejoin: miter"/>
   </g>
   <g id="patch_13">
    <path d="M 132.8 355.2 
L 164.2 355.2 
L 164.2 327.36 
L 132.8 327.36 
z
" clip-path="url(#p2d32643a3d)" style="fill: #ffffff; stroke: #333333; stroke-linejoin: miter"/>
   </g>
   <g id="patch_14">
    <path d="M 227 466.56 
L 446.8 466.56 
Q 453.08 466.56 453.08 459.6 
L 453.08 383.04 
Q 453.08 376.08 446.8 376.08 
L 227 376.08 
Q 220.72 376.08 220.72 383.04 
L 220.72 459.6 
Q 220.72 466.56 227 466.56 
z
" clip-path="url(#p2d32643a3d)" style="fill: #d1e8ff; stroke: #333333; stroke-width: 1.2; stroke-linejoin: miter"/>
   </g>
   <g id="patch_15">
    <path d="M 227 369.12 
L 446.8 369.12 
Q 453.08 369.12 453.08 362.16 
L 453.08 285.6 
Q 453.08 278.64 446.8 278.64 
L 227 278.64 
Q 220.72 278.64 220.72 285.6 
L 220.72 362.16 
Q 220.72 369.12 227 369.12 
z
" clip-path="url(#p2d32643a3d)" style="fill: #d1e8ff; stroke: #333333; stroke-width: 1.2; stroke-linejoin: miter"/>
   </g>
   <g id="patch_16">
    <path d="M 227 271.68 
L 446.8 271.68 
Q 453.08 271.68 453.08 264.72 
L 453.08 188.16 
Q 453.08 181.2 446.8 181.2 
L 227 181.2 
Q 220.72 181.2 220.72 188.16 
L 220.72 264.72 
Q 220.72 271.68 227 271.68 
z
" clip-path="url(#p2d32643a3d)" style="fill: #d1e8ff; stroke: #333333; stroke-width: 1.2; stroke-linejoin: miter"/>
   </g>
   <g id="patch_17">
    <path d="M 327.48 602.28 
L 647.76 602.28 
Q 650.9 602.28 650.9 598.8 
L 650.9 508.32 
Q 650.9 504.84 647.76 504.84 
L 327.48 504.84 
Q 324.34 504.84 324.34 508.32 
L 324.34 598.8 
Q 324.34 602.28 327.48 602.28 
z
" clip-path="url(#p2d32643a3d)" style="fill: #f5f5f5; opacity: 0.8; stroke: #666666; stroke-width: 0.8; stroke-linejoin: miter"/>
   </g>
   <g id="patch_18">
    <path d="M 547.28 459.6 
L 792.2 459.6 
Q 798.48 459.6 798.48 452.64 
L 798.48 146.4 
Q 798.48 139.44 792.2 139.44 
L 547.28 139.44 
Q 541 139.44 541 146.4 
L 541 452.64 
Q 541 459.6 547.28 459.6 
z
" clip-path="url(#p2d32643a3d)" style="fill: #ffe5b4; opacity: 0.4; stroke: #888888; stroke-linejoin: miter"/>
   </g>
   <g id="patch_19">
    <path d="M 537.86 470.04 
L 782.78 470.04 
Q 789.06 470.04 789.06 463.08 
L 789.06 156.84 
Q 789.06 149.88 782.78 149.88 
L 537.86 149.88 
Q 531.58 149.88 531.58 156.84 
L 531.58 463.08 
Q 531.58 470.04 537.86 470.04 
z
" clip-path="url(#p2d32643a3d)" style="fill: #ffe5b4; opacity: 0.4; stroke: #888888; stroke-linejoin: miter"/>
   </g>
   <g id="patch_20">
    <path d="M 528.44 466.56 
L 773.36 466.56 
Q 779.64 466.56 779.64 459.6 
L 779.64 376.08 
Q 779.64 369.12 773.36 369.12 
L 528.44 369.12 
Q 522.16 369.12 522.16 376.08 
L 522.16 459.6 
Q 522.16 466.56 528.44 466.56 
z
" clip-path="url(#p2d32643a3d)" style="fill: #ffffff; stroke: #333333; stroke-width: 1.2; stroke-linejoin: miter"/>
   </g>
   <g id="patch_21">
    <path d="M 528.44 362.16 
L 773.36 362.16 
Q 779.64 362.16 779.64 355.2 
L 779.64 271.68 
Q 779.64 264.72 773.36 264.72 
L 528.44 264.72 
Q 522.16 264.72 522.16 271.68 
L 522.16 355.2 
Q 522.16 362.16 528.44 362.16 
z
" clip-path="url(#p2d32643a3d)" style="fill: #ffffff; stroke: #333333; stroke-width: 1.2; stroke-linejoin: miter"/>
   </g>
   <g id="patch_22">
    <path d="M 528.44 257.76 
L 773.36 257.76 
Q 779.64 257.76 779.64 250.8 
L 779.64 167.28 
Q 779.64 160.32 773.36 160.32 
L 528.44 160.32 
Q 522.16 160.32 522.16 167.28 
L 522.16 250.8 
Q 522.16 257.76 528.44 257.76 
z
" clip-path="url(#p2d32643a3d)" style="fill: #ffffff; stroke: #333333; stroke-width: 1.2; stroke-linejoin: miter"/>
   </g>
   <g id="patch_23">
    <path d="M 886.4 466.56 
L 1106.2 466.56 
Q 1112.48 466.56 1112.48 459.6 
L 1112.48 383.04 
Q 1112.48 376.08 1106.2 376.08 
L 886.4 376.08 
Q 880.12 376.08 880.12 383.04 
L 880.12 459.6 
Q 880.12 466.56 886.4 466.56 
z
" clip-path="url(#p2d32643a3d)" style="fill: #c1e1c1; stroke: #333333; stroke-width: 1.2; stroke-linejoin: miter"/>
   </g>
   <g id="patch_24">
    <path d="M 886.4 369.12 
L 1106.2 369.12 
Q 1112.48 369.12 1112.48 362.16 
L 1112.48 285.6 
Q 1112.48 278.64 1106.2 278.64 
L 886.4 278.64 
Q 880.12 278.64 880.12 285.6 
L 880.12 362.16 
Q 880.12 369.12 886.4 369.12 
z
" clip-path="url(#p2d32643a3d)" style="fill: #c1e1c1; stroke: #333333; stroke-width: 1.2; stroke-linejoin: miter"/>
   </g>
   <g id="patch_25">
    <path d="M 886.4 271.68 
L 1106.2 271.68 
Q 1112.48 271.68 1112.48 264.72 
L 1112.48 188.16 
Q 1112.48 181.2 1106.2 181.2 
L 886.4 181.2 
Q 880.12 181.2 880.12 188.16 
L 880.12 264.72 
Q 880.12 271.68 886.4 271.68 
z
" clip-path="url(#p2d32643a3d)" style="fill: #c1e1c1; stroke: #333333; stroke-width: 1.2; stroke-linejoin: miter"/>
   </g>
   <g id="line2d_1">
    <path d="M 214.44 459.6 
L 214.44 195.12 
" clip-path="url(#p2d32643a3d)" style="fill: none; stroke: #444444; stroke-width: 3"/>
   </g>
   <g id="line2d_2">
    <path d="M 214.44 195.12 
L 219.464 195.12 
" clip-path="url(#p2d32643a3d)" style="fill: none; stroke: #444444; stroke-width: 3"/>
   </g>
   <g id="line2d_3">
    <path d="M 214.44 459.6 
L 219.464 459.6 
" clip-path="url(#p2d32643a3d)" style="fill: none; stroke: #444444; stroke-width: 3"/>
   </g>
   <g id="text_1">
    <!-- Dimensions: NxP -->
    <g transform="translate(30.15 268.560469) scale(0.15 -0.15)">
     <defs>
      <path id="DejaVuSans-Bold-44" d="M 1791 3756 
L 1791 909 
L 2222 909 
Q 2959 909 3348 1275 
Q 3738 1641 3738 2338 
Q 3738 3031 3350 3393 
Q 2963 3756 2222 3756 
L 1791 3756 
z
M 588 4666 
L 1856 4666 
Q 2919 4666 3439 4514 
Q 3959 4363 4331 4000 
Q 4659 3684 4818 3271 
Q 4978 2859 4978 2338 
Q 4978 1809 4818 1395 
Q 4659 981 4331 666 
Q 3956 303 3431 151 
Q 2906 0 1856 0 
L 588 0 
L 588 4666 
z
" transform="scale(0.015625)"/>
      <path id="DejaVuSans-Bold-69" d="M 538 3500 
L 1656 3500 
L 1656 0 
L 538 0 
L 538 3500 
z
M 538 4863 
L 1656 4863 
L 1656 3950 
L 538 3950 
L 538 4863 
z
" transform="scale(0.015625)"/>
      <path id="DejaVuSans-Bold-6d" d="M 3781 2919 
Q 3994 3244 4286 3414 
Q 4578 3584 4928 3584 
Q 5531 3584 5847 3212 
Q 6163 2841 6163 2131 
L 6163 0 
L 5038 0 
L 5038 1825 
Q 5041 1866 5042 1909 
Q 5044 1953 5044 2034 
Q 5044 2406 4934 2573 
Q 4825 2741 4581 2741 
Q 4263 2741 4089 2478 
Q 3916 2216 3909 1719 
L 3909 0 
L 2784 0 
L 2784 1825 
Q 2784 2406 2684 2573 
Q 2584 2741 2328 2741 
Q 2006 2741 1831 2477 
Q 1656 2213 1656 1722 
L 1656 0 
L 531 0 
L 531 3500 
L 1656 3500 
L 1656 2988 
Q 1863 3284 2130 3434 
Q 2397 3584 2719 3584 
Q 3081 3584 3359 3409 
Q 3638 3234 3781 2919 
z
" transform="scale(0.015625)"/>
      <path id="DejaVuSans-Bold-65" d="M 4031 1759 
L 4031 1441 
L 1416 1441 
Q 1456 1047 1700 850 
Q 1944 653 2381 653 
Q 2734 653 3104 758 
Q 3475 863 3866 1075 
L 3866 213 
Q 3469 63 3072 -14 
Q 2675 -91 2278 -91 
Q 1328 -91 801 392 
Q 275 875 275 1747 
Q 275 2603 792 3093 
Q 1309 3584 2216 3584 
Q 3041 3584 3536 3087 
Q 4031 2591 4031 1759 
z
M 2881 2131 
Q 2881 2450 2695 2645 
Q 2509 2841 2209 2841 
Q 1884 2841 1681 2658 
Q 1478 2475 1428 2131 
L 2881 2131 
z
" transform="scale(0.015625)"/>
      <path id="DejaVuSans-Bold-6e" d="M 4056 2131 
L 4056 0 
L 2931 0 
L 2931 347 
L 2931 1631 
Q 2931 2084 2911 2256 
Q 2891 2428 2841 2509 
Q 2775 2619 2662 2680 
Q 2550 2741 2406 2741 
Q 2056 2741 1856 2470 
Q 1656 2200 1656 1722 
L 1656 0 
L 538 0 
L 538 3500 
L 1656 3500 
L 1656 2988 
Q 1909 3294 2193 3439 
Q 2478 3584 2822 3584 
Q 3428 3584 3742 3212 
Q 4056 2841 4056 2131 
z
" transform="scale(0.015625)"/>
      <path id="DejaVuSans-Bold-73" d="M 3272 3391 
L 3272 2541 
Q 2913 2691 2578 2766 
Q 2244 2841 1947 2841 
Q 1628 2841 1473 2761 
Q 1319 2681 1319 2516 
Q 1319 2381 1436 2309 
Q 1553 2238 1856 2203 
L 2053 2175 
Q 2913 2066 3209 1816 
Q 3506 1566 3506 1031 
Q 3506 472 3093 190 
Q 2681 -91 1863 -91 
Q 1516 -91 1145 -36 
Q 775 19 384 128 
L 384 978 
Q 719 816 1070 734 
Q 1422 653 1784 653 
Q 2113 653 2278 743 
Q 2444 834 2444 1013 
Q 2444 1163 2330 1236 
Q 2216 1309 1875 1350 
L 1678 1375 
Q 931 1469 631 1722 
Q 331 1975 331 2491 
Q 331 3047 712 3315 
Q 1094 3584 1881 3584 
Q 2191 3584 2531 3537 
Q 2872 3491 3272 3391 
z
" transform="scale(0.015625)"/>
      <path id="DejaVuSans-Bold-6f" d="M 2203 2784 
Q 1831 2784 1636 2517 
Q 1441 2250 1441 1747 
Q 1441 1244 1636 976 
Q 1831 709 2203 709 
Q 2569 709 2762 976 
Q 2956 1244 2956 1747 
Q 2956 2250 2762 2517 
Q 2569 2784 2203 2784 
z
M 2203 3584 
Q 3106 3584 3614 3096 
Q 4122 2609 4122 1747 
Q 4122 884 3614 396 
Q 3106 -91 2203 -91 
Q 1297 -91 786 396 
Q 275 884 275 1747 
Q 275 2609 786 3096 
Q 1297 3584 2203 3584 
z
" transform="scale(0.015625)"/>
      <path id="DejaVuSans-Bold-3a" d="M 716 3500 
L 1844 3500 
L 1844 2291 
L 716 2291 
L 716 3500 
z
M 716 1209 
L 1844 1209 
L 1844 0 
L 716 0 
L 716 1209 
z
" transform="scale(0.015625)"/>
      <path id="DejaVuSans-Bold-20" transform="scale(0.015625)"/>
      <path id="DejaVuSans-Bold-4e" d="M 588 4666 
L 1931 4666 
L 3628 1466 
L 3628 4666 
L 4769 4666 
L 4769 0 
L 3425 0 
L 1728 3200 
L 1728 0 
L 588 0 
L 588 4666 
z
" transform="scale(0.015625)"/>
      <path id="DejaVuSans-Bold-78" d="M 1422 1791 
L 159 3500 
L 1344 3500 
L 2059 2463 
L 2784 3500 
L 3969 3500 
L 2706 1797 
L 4031 0 
L 2847 0 
L 2059 1106 
L 1281 0 
L 97 0 
L 1422 1791 
z
" transform="scale(0.015625)"/>
      <path id="DejaVuSans-Bold-50" d="M 588 4666 
L 2584 4666 
Q 3475 4666 3951 4270 
Q 4428 3875 4428 3144 
Q 4428 2409 3951 2014 
Q 3475 1619 2584 1619 
L 1791 1619 
L 1791 0 
L 588 0 
L 588 4666 
z
M 1791 3794 
L 1791 2491 
L 2456 2491 
Q 2806 2491 2997 2661 
Q 3188 2831 3188 3144 
Q 3188 3456 2997 3625 
Q 2806 3794 2456 3794 
L 1791 3794 
z
" transform="scale(0.015625)"/>
     </defs>
     <use xlink:href="#DejaVuSans-Bold-44"/>
     <use xlink:href="#DejaVuSans-Bold-69" transform="translate(83.007812 0)"/>
     <use xlink:href="#DejaVuSans-Bold-6d" transform="translate(117.285156 0)"/>
     <use xlink:href="#DejaVuSans-Bold-65" transform="translate(221.484375 0)"/>
     <use xlink:href="#DejaVuSans-Bold-6e" transform="translate(289.306641 0)"/>
     <use xlink:href="#DejaVuSans-Bold-73" transform="translate(360.498047 0)"/>
     <use xlink:href="#DejaVuSans-Bold-69" transform="translate(420.019531 0)"/>
     <use xlink:href="#DejaVuSans-Bold-6f" transform="translate(454.296875 0)"/>
     <use xlink:href="#DejaVuSans-Bold-6e" transform="translate(522.998047 0)"/>
     <use xlink:href="#DejaVuSans-Bold-73" transform="translate(594.189453 0)"/>
     <use xlink:href="#DejaVuSans-Bold-3a" transform="translate(653.710938 0)"/>
     <use xlink:href="#DejaVuSans-Bold-20" transform="translate(693.701172 0)"/>
     <use xlink:href="#DejaVuSans-Bold-4e" transform="translate(728.515625 0)"/>
     <use xlink:href="#DejaVuSans-Bold-78" transform="translate(812.207031 0)"/>
     <use xlink:href="#DejaVuSans-Bold-50" transform="translate(876.708984 0)"/>
    </g>
   </g>
   <g id="text_2">
    <!-- $x_{11}$ -->
    <g transform="translate(48.26 287.8075) scale(0.08 -0.08)">
     <defs>
      <path id="DejaVuSans-Oblique-78" d="M 3841 3500 
L 2234 1784 
L 3219 0 
L 2559 0 
L 1819 1388 
L 531 0 
L -166 0 
L 1556 1844 
L 641 3500 
L 1300 3500 
L 1972 2234 
L 3144 3500 
L 3841 3500 
z
" transform="scale(0.015625)"/>
      <path id="DejaVuSans-31" d="M 794 531 
L 1825 531 
L 1825 4091 
L 703 3866 
L 703 4441 
L 1819 4666 
L 2450 4666 
L 2450 531 
L 3481 531 
L 3481 0 
L 794 0 
L 794 531 
z
" transform="scale(0.015625)"/>
     </defs>
     <use xlink:href="#DejaVuSans-Oblique-78" transform="translate(0 0.3125)"/>
     <use xlink:href="#DejaVuSans-31" transform="translate(59.179688 -16.09375) scale(0.7)"/>
     <use xlink:href="#DejaVuSans-31" transform="translate(103.71582 -16.09375) scale(0.7)"/>
    </g>
   </g>
   <g id="text_3">
    <!-- $x_{12}$ -->
    <g transform="translate(79.66 287.8075) scale(0.08 -0.08)">
     <defs>
      <path id="DejaVuSans-32" d="M 1228 531 
L 3431 531 
L 3431 0 
L 469 0 
L 469 531 
Q 828 903 1448 1529 
Q 2069 2156 2228 2338 
Q 2531 2678 2651 2914 
Q 2772 3150 2772 3378 
Q 2772 3750 2511 3984 
Q 2250 4219 1831 4219 
Q 1534 4219 1204 4116 
Q 875 4013 500 3803 
L 500 4441 
Q 881 4594 1212 4672 
Q 1544 4750 1819 4750 
Q 2544 4750 2975 4387 
Q 3406 4025 3406 3419 
Q 3406 3131 3298 2873 
Q 3191 2616 2906 2266 
Q 2828 2175 2409 1742 
Q 1991 1309 1228 531 
z
" transform="scale(0.015625)"/>
     </defs>
     <use xlink:href="#DejaVuSans-Oblique-78" transform="translate(0 0.3125)"/>
     <use xlink:href="#DejaVuSans-31" transform="translate(59.179688 -16.09375) scale(0.7)"/>
     <use xlink:href="#DejaVuSans-32" transform="translate(103.71582 -16.09375) scale(0.7)"/>
    </g>
   </g>
   <g id="text_4">
    <!-- ... -->
    <g transform="translate(113.28625 287.8075) scale(0.08 -0.08)">
     <defs>
      <path id="DejaVuSans-2e" d="M 684 794 
L 1344 794 
L 1344 0 
L 684 0 
L 684 794 
z
" transform="scale(0.015625)"/>
     </defs>
     <use xlink:href="#DejaVuSans-2e"/>
     <use xlink:href="#DejaVuSans-2e" transform="translate(31.787109 0)"/>
     <use xlink:href="#DejaVuSans-2e" transform="translate(63.574219 0)"/>
    </g>
   </g>
   <g id="text_5">
    <!-- $y_1$ -->
    <g transform="translate(144.22 287.79125) scale(0.08 -0.08)">
     <defs>
      <path id="DejaVuSans-Oblique-79" d="M 1588 -325 
Q 1188 -997 936 -1164 
Q 684 -1331 294 -1331 
L -159 -1331 
L -63 -850 
L 269 -850 
Q 509 -850 678 -719 
Q 847 -588 1056 -206 
L 1234 128 
L 459 3500 
L 1069 3500 
L 1650 819 
L 3256 3500 
L 3859 3500 
L 1588 -325 
z
" transform="scale(0.015625)"/>
     </defs>
     <use xlink:href="#DejaVuSans-Oblique-79" transform="translate(0 0.3125)"/>
     <use xlink:href="#DejaVuSans-31" transform="translate(59.179688 -16.09375) scale(0.7)"/>
    </g>
   </g>
   <g id="text_6">
    <!-- $x_{21}$ -->
    <g transform="translate(48.26 315.6475) scale(0.08 -0.08)">
     <use xlink:href="#DejaVuSans-Oblique-78" transform="translate(0 0.3125)"/>
     <use xlink:href="#DejaVuSans-32" transform="translate(59.179688 -16.09375) scale(0.7)"/>
     <use xlink:href="#DejaVuSans-31" transform="translate(103.71582 -16.09375) scale(0.7)"/>
    </g>
   </g>
   <g id="text_7">
    <!-- $x_{22}$ -->
    <g transform="translate(79.66 315.6475) scale(0.08 -0.08)">
     <use xlink:href="#DejaVuSans-Oblique-78" transform="translate(0 0.3125)"/>
     <use xlink:href="#DejaVuSans-32" transform="translate(59.179688 -16.09375) scale(0.7)"/>
     <use xlink:href="#DejaVuSans-32" transform="translate(103.71582 -16.09375) scale(0.7)"/>
    </g>
   </g>
   <g id="text_8">
    <!-- ... -->
    <g transform="translate(113.28625 315.6475) scale(0.08 -0.08)">
     <use xlink:href="#DejaVuSans-2e"/>
     <use xlink:href="#DejaVuSans-2e" transform="translate(31.787109 0)"/>
     <use xlink:href="#DejaVuSans-2e" transform="translate(63.574219 0)"/>
    </g>
   </g>
   <g id="text_9">
    <!-- $y_2$ -->
    <g transform="translate(144.22 315.63125) scale(0.08 -0.08)">
     <use xlink:href="#DejaVuSans-Oblique-79" transform="translate(0 0.3125)"/>
     <use xlink:href="#DejaVuSans-32" transform="translate(59.179688 -16.09375) scale(0.7)"/>
    </g>
   </g>
   <g id="text_10">
    <!-- ... -->
    <g transform="translate(50.48625 343.4875) scale(0.08 -0.08)">
     <use xlink:href="#DejaVuSans-2e"/>
     <use xlink:href="#DejaVuSans-2e" transform="translate(31.787109 0)"/>
     <use xlink:href="#DejaVuSans-2e" transform="translate(63.574219 0)"/>
    </g>
   </g>
   <g id="text_11">
    <!-- ... -->
    <g transform="translate(81.88625 343.4875) scale(0.08 -0.08)">
     <use xlink:href="#DejaVuSans-2e"/>
     <use xlink:href="#DejaVuSans-2e" transform="translate(31.787109 0)"/>
     <use xlink:href="#DejaVuSans-2e" transform="translate(63.574219 0)"/>
    </g>
   </g>
   <g id="text_12">
    <!-- ... -->
    <g transform="translate(113.28625 343.4875) scale(0.08 -0.08)">
     <use xlink:href="#DejaVuSans-2e"/>
     <use xlink:href="#DejaVuSans-2e" transform="translate(31.787109 0)"/>
     <use xlink:href="#DejaVuSans-2e" transform="translate(63.574219 0)"/>
    </g>
   </g>
   <g id="text_13">
    <!-- ... -->
    <g transform="translate(144.68625 343.4875) scale(0.08 -0.08)">
     <use xlink:href="#DejaVuSans-2e"/>
     <use xlink:href="#DejaVuSans-2e" transform="translate(31.787109 0)"/>
     <use xlink:href="#DejaVuSans-2e" transform="translate(63.574219 0)"/>
    </g>
   </g>
   <g id="patch_26">
    <path d="M 172.477955 313.44 
Q 194.028331 313.44 212.783622 313.44 
" style="fill: none; stroke: #444444; stroke-width: 2.5; stroke-linecap: round"/>
    <path d="M 204.783622 309.44 
L 212.783622 313.44 
L 204.783622 317.44 
" style="fill: none; stroke: #444444; stroke-width: 2.5; stroke-linecap: round"/>
   </g>
   <g id="text_14">
    <!-- Input Encoding -->
    <g transform="translate(273.159375 111.6) scale(0.15 -0.15)">
     <defs>
      <path id="DejaVuSans-Bold-49" d="M 588 4666 
L 1791 4666 
L 1791 0 
L 588 0 
L 588 4666 
z
" transform="scale(0.015625)"/>
      <path id="DejaVuSans-Bold-70" d="M 1656 506 
L 1656 -1331 
L 538 -1331 
L 538 3500 
L 1656 3500 
L 1656 2988 
Q 1888 3294 2169 3439 
Q 2450 3584 2816 3584 
Q 3463 3584 3878 3070 
Q 4294 2556 4294 1747 
Q 4294 938 3878 423 
Q 3463 -91 2816 -91 
Q 2450 -91 2169 54 
Q 1888 200 1656 506 
z
M 2400 2772 
Q 2041 2772 1848 2508 
Q 1656 2244 1656 1747 
Q 1656 1250 1848 986 
Q 2041 722 2400 722 
Q 2759 722 2948 984 
Q 3138 1247 3138 1747 
Q 3138 2247 2948 2509 
Q 2759 2772 2400 2772 
z
" transform="scale(0.015625)"/>
      <path id="DejaVuSans-Bold-75" d="M 500 1363 
L 500 3500 
L 1625 3500 
L 1625 3150 
Q 1625 2866 1622 2436 
Q 1619 2006 1619 1863 
Q 1619 1441 1641 1255 
Q 1663 1069 1716 984 
Q 1784 875 1895 815 
Q 2006 756 2150 756 
Q 2500 756 2700 1025 
Q 2900 1294 2900 1772 
L 2900 3500 
L 4019 3500 
L 4019 0 
L 2900 0 
L 2900 506 
Q 2647 200 2364 54 
Q 2081 -91 1741 -91 
Q 1134 -91 817 281 
Q 500 653 500 1363 
z
" transform="scale(0.015625)"/>
      <path id="DejaVuSans-Bold-74" d="M 1759 4494 
L 1759 3500 
L 2913 3500 
L 2913 2700 
L 1759 2700 
L 1759 1216 
Q 1759 972 1856 886 
Q 1953 800 2241 800 
L 2816 800 
L 2816 0 
L 1856 0 
Q 1194 0 917 276 
Q 641 553 641 1216 
L 641 2700 
L 84 2700 
L 84 3500 
L 641 3500 
L 641 4494 
L 1759 4494 
z
" transform="scale(0.015625)"/>
      <path id="DejaVuSans-Bold-45" d="M 588 4666 
L 3834 4666 
L 3834 3756 
L 1791 3756 
L 1791 2888 
L 3713 2888 
L 3713 1978 
L 1791 1978 
L 1791 909 
L 3903 909 
L 3903 0 
L 588 0 
L 588 4666 
z
" transform="scale(0.015625)"/>
      <path id="DejaVuSans-Bold-63" d="M 3366 3391 
L 3366 2478 
Q 3138 2634 2908 2709 
Q 2678 2784 2431 2784 
Q 1963 2784 1702 2511 
Q 1441 2238 1441 1747 
Q 1441 1256 1702 982 
Q 1963 709 2431 709 
Q 2694 709 2930 787 
Q 3166 866 3366 1019 
L 3366 103 
Q 3103 6 2833 -42 
Q 2563 -91 2291 -91 
Q 1344 -91 809 395 
Q 275 881 275 1747 
Q 275 2613 809 3098 
Q 1344 3584 2291 3584 
Q 2566 3584 2833 3536 
Q 3100 3488 3366 3391 
z
" transform="scale(0.015625)"/>
      <path id="DejaVuSans-Bold-64" d="M 2919 2988 
L 2919 4863 
L 4044 4863 
L 4044 0 
L 2919 0 
L 2919 506 
Q 2688 197 2409 53 
Q 2131 -91 1766 -91 
Q 1119 -91 703 423 
Q 288 938 288 1747 
Q 288 2556 703 3070 
Q 1119 3584 1766 3584 
Q 2128 3584 2408 3439 
Q 2688 3294 2919 2988 
z
M 2181 722 
Q 2541 722 2730 984 
Q 2919 1247 2919 1747 
Q 2919 2247 2730 2509 
Q 2541 2772 2181 2772 
Q 1825 2772 1636 2509 
Q 1447 2247 1447 1747 
Q 1447 1247 1636 984 
Q 1825 722 2181 722 
z
" transform="scale(0.015625)"/>
      <path id="DejaVuSans-Bold-67" d="M 2919 594 
Q 2688 288 2409 144 
Q 2131 0 1766 0 
Q 1125 0 706 504 
Q 288 1009 288 1791 
Q 288 2575 706 3076 
Q 1125 3578 1766 3578 
Q 2131 3578 2409 3434 
Q 2688 3291 2919 2981 
L 2919 3500 
L 4044 3500 
L 4044 353 
Q 4044 -491 3511 -936 
Q 2978 -1381 1966 -1381 
Q 1638 -1381 1331 -1331 
Q 1025 -1281 716 -1178 
L 716 -306 
Q 1009 -475 1290 -558 
Q 1572 -641 1856 -641 
Q 2406 -641 2662 -400 
Q 2919 -159 2919 353 
L 2919 594 
z
M 2181 2772 
Q 1834 2772 1640 2515 
Q 1447 2259 1447 1791 
Q 1447 1309 1634 1061 
Q 1822 813 2181 813 
Q 2531 813 2725 1069 
Q 2919 1325 2919 1791 
Q 2919 2259 2725 2515 
Q 2531 2772 2181 2772 
z
" transform="scale(0.015625)"/>
     </defs>
     <use xlink:href="#DejaVuSans-Bold-49"/>
     <use xlink:href="#DejaVuSans-Bold-6e" transform="translate(37.207031 0)"/>
     <use xlink:href="#DejaVuSans-Bold-70" transform="translate(108.398438 0)"/>
     <use xlink:href="#DejaVuSans-Bold-75" transform="translate(179.980469 0)"/>
     <use xlink:href="#DejaVuSans-Bold-74" transform="translate(251.171875 0)"/>
     <use xlink:href="#DejaVuSans-Bold-20" transform="translate(298.974609 0)"/>
     <use xlink:href="#DejaVuSans-Bold-45" transform="translate(333.789062 0)"/>
     <use xlink:href="#DejaVuSans-Bold-6e" transform="translate(402.099609 0)"/>
     <use xlink:href="#DejaVuSans-Bold-63" transform="translate(473.291016 0)"/>
     <use xlink:href="#DejaVuSans-Bold-6f" transform="translate(532.568359 0)"/>
     <use xlink:href="#DejaVuSans-Bold-64" transform="translate(601.269531 0)"/>
     <use xlink:href="#DejaVuSans-Bold-69" transform="translate(672.851562 0)"/>
     <use xlink:href="#DejaVuSans-Bold-6e" transform="translate(707.128906 0)"/>
     <use xlink:href="#DejaVuSans-Bold-67" transform="translate(778.320312 0)"/>
    </g>
   </g>
   <g id="text_15">
    <!-- Transformer Block (Nx) -->
    <g transform="translate(553.266406 111.6) scale(0.15 -0.15)">
     <defs>
      <path id="DejaVuSans-Bold-54" d="M 31 4666 
L 4331 4666 
L 4331 3756 
L 2784 3756 
L 2784 0 
L 1581 0 
L 1581 3756 
L 31 3756 
L 31 4666 
z
" transform="scale(0.015625)"/>
      <path id="DejaVuSans-Bold-72" d="M 3138 2547 
Q 2991 2616 2845 2648 
Q 2700 2681 2553 2681 
Q 2122 2681 1889 2404 
Q 1656 2128 1656 1613 
L 1656 0 
L 538 0 
L 538 3500 
L 1656 3500 
L 1656 2925 
Q 1872 3269 2151 3426 
Q 2431 3584 2822 3584 
Q 2878 3584 2943 3579 
Q 3009 3575 3134 3559 
L 3138 2547 
z
" transform="scale(0.015625)"/>
      <path id="DejaVuSans-Bold-61" d="M 2106 1575 
Q 1756 1575 1579 1456 
Q 1403 1338 1403 1106 
Q 1403 894 1545 773 
Q 1688 653 1941 653 
Q 2256 653 2472 879 
Q 2688 1106 2688 1447 
L 2688 1575 
L 2106 1575 
z
M 3816 1997 
L 3816 0 
L 2688 0 
L 2688 519 
Q 2463 200 2181 54 
Q 1900 -91 1497 -91 
Q 953 -91 614 226 
Q 275 544 275 1050 
Q 275 1666 698 1953 
Q 1122 2241 2028 2241 
L 2688 2241 
L 2688 2328 
Q 2688 2594 2478 2717 
Q 2269 2841 1825 2841 
Q 1466 2841 1156 2769 
Q 847 2697 581 2553 
L 581 3406 
Q 941 3494 1303 3539 
Q 1666 3584 2028 3584 
Q 2975 3584 3395 3211 
Q 3816 2838 3816 1997 
z
" transform="scale(0.015625)"/>
      <path id="DejaVuSans-Bold-66" d="M 2841 4863 
L 2841 4128 
L 2222 4128 
Q 1984 4128 1890 4042 
Q 1797 3956 1797 3744 
L 1797 3500 
L 2753 3500 
L 2753 2700 
L 1797 2700 
L 1797 0 
L 678 0 
L 678 2700 
L 122 2700 
L 122 3500 
L 678 3500 
L 678 3744 
Q 678 4316 997 4589 
Q 1316 4863 1984 4863 
L 2841 4863 
z
" transform="scale(0.015625)"/>
      <path id="DejaVuSans-Bold-42" d="M 2456 2859 
Q 2741 2859 2887 2984 
Q 3034 3109 3034 3353 
Q 3034 3594 2887 3720 
Q 2741 3847 2456 3847 
L 1791 3847 
L 1791 2859 
L 2456 2859 
z
M 2497 819 
Q 2859 819 3042 972 
Q 3225 1125 3225 1434 
Q 3225 1738 3044 1889 
Q 2863 2041 2497 2041 
L 1791 2041 
L 1791 819 
L 2497 819 
z
M 3616 2497 
Q 4003 2384 4215 2081 
Q 4428 1778 4428 1338 
Q 4428 663 3972 331 
Q 3516 0 2584 0 
L 588 0 
L 588 4666 
L 2394 4666 
Q 3366 4666 3802 4372 
Q 4238 4078 4238 3431 
Q 4238 3091 4078 2852 
Q 3919 2613 3616 2497 
z
" transform="scale(0.015625)"/>
      <path id="DejaVuSans-Bold-6c" d="M 538 4863 
L 1656 4863 
L 1656 0 
L 538 0 
L 538 4863 
z
" transform="scale(0.015625)"/>
      <path id="DejaVuSans-Bold-6b" d="M 538 4863 
L 1656 4863 
L 1656 2216 
L 2944 3500 
L 4244 3500 
L 2534 1894 
L 4378 0 
L 3022 0 
L 1656 1459 
L 1656 0 
L 538 0 
L 538 4863 
z
" transform="scale(0.015625)"/>
      <path id="DejaVuSans-Bold-28" d="M 2413 -844 
L 1484 -844 
Q 1006 -72 778 623 
Q 550 1319 550 2003 
Q 550 2688 779 3389 
Q 1009 4091 1484 4856 
L 2413 4856 
Q 2013 4116 1813 3408 
Q 1613 2700 1613 2009 
Q 1613 1319 1811 609 
Q 2009 -100 2413 -844 
z
" transform="scale(0.015625)"/>
      <path id="DejaVuSans-Bold-29" d="M 513 -844 
Q 913 -100 1113 609 
Q 1313 1319 1313 2009 
Q 1313 2700 1113 3408 
Q 913 4116 513 4856 
L 1441 4856 
Q 1916 4091 2145 3389 
Q 2375 2688 2375 2003 
Q 2375 1319 2147 623 
Q 1919 -72 1441 -844 
L 513 -844 
z
" transform="scale(0.015625)"/>
     </defs>
     <use xlink:href="#DejaVuSans-Bold-54"/>
     <use xlink:href="#DejaVuSans-Bold-72" transform="translate(57.212891 0)"/>
     <use xlink:href="#DejaVuSans-Bold-61" transform="translate(106.529297 0)"/>
     <use xlink:href="#DejaVuSans-Bold-6e" transform="translate(174.009766 0)"/>
     <use xlink:href="#DejaVuSans-Bold-73" transform="translate(245.201172 0)"/>
     <use xlink:href="#DejaVuSans-Bold-66" transform="translate(304.722656 0)"/>
     <use xlink:href="#DejaVuSans-Bold-6f" transform="translate(348.228516 0)"/>
     <use xlink:href="#DejaVuSans-Bold-72" transform="translate(416.929688 0)"/>
     <use xlink:href="#DejaVuSans-Bold-6d" transform="translate(466.246094 0)"/>
     <use xlink:href="#DejaVuSans-Bold-65" transform="translate(570.445312 0)"/>
     <use xlink:href="#DejaVuSans-Bold-72" transform="translate(638.267578 0)"/>
     <use xlink:href="#DejaVuSans-Bold-20" transform="translate(687.583984 0)"/>
     <use xlink:href="#DejaVuSans-Bold-42" transform="translate(722.398438 0)"/>
     <use xlink:href="#DejaVuSans-Bold-6c" transform="translate(798.619141 0)"/>
     <use xlink:href="#DejaVuSans-Bold-6f" transform="translate(832.896484 0)"/>
     <use xlink:href="#DejaVuSans-Bold-63" transform="translate(901.597656 0)"/>
     <use xlink:href="#DejaVuSans-Bold-6b" transform="translate(960.875 0)"/>
     <use xlink:href="#DejaVuSans-Bold-20" transform="translate(1027.378906 0)"/>
     <use xlink:href="#DejaVuSans-Bold-28" transform="translate(1062.193359 0)"/>
     <use xlink:href="#DejaVuSans-Bold-4e" transform="translate(1107.896484 0)"/>
     <use xlink:href="#DejaVuSans-Bold-78" transform="translate(1191.587891 0)"/>
     <use xlink:href="#DejaVuSans-Bold-29" transform="translate(1256.089844 0)"/>
    </g>
   </g>
   <g id="text_16">
    <!-- Output Layer -->
    <g transform="translate(940.816406 111.6) scale(0.15 -0.15)">
     <defs>
      <path id="DejaVuSans-Bold-4f" d="M 2719 3878 
Q 2169 3878 1866 3472 
Q 1563 3066 1563 2328 
Q 1563 1594 1866 1187 
Q 2169 781 2719 781 
Q 3272 781 3575 1187 
Q 3878 1594 3878 2328 
Q 3878 3066 3575 3472 
Q 3272 3878 2719 3878 
z
M 2719 4750 
Q 3844 4750 4481 4106 
Q 5119 3463 5119 2328 
Q 5119 1197 4481 553 
Q 3844 -91 2719 -91 
Q 1597 -91 958 553 
Q 319 1197 319 2328 
Q 319 3463 958 4106 
Q 1597 4750 2719 4750 
z
" transform="scale(0.015625)"/>
      <path id="DejaVuSans-Bold-4c" d="M 588 4666 
L 1791 4666 
L 1791 909 
L 3903 909 
L 3903 0 
L 588 0 
L 588 4666 
z
" transform="scale(0.015625)"/>
      <path id="DejaVuSans-Bold-79" d="M 78 3500 
L 1197 3500 
L 2138 1125 
L 2938 3500 
L 4056 3500 
L 2584 -331 
Q 2363 -916 2067 -1148 
Q 1772 -1381 1288 -1381 
L 641 -1381 
L 641 -647 
L 991 -647 
Q 1275 -647 1404 -556 
Q 1534 -466 1606 -231 
L 1638 -134 
L 78 3500 
z
" transform="scale(0.015625)"/>
     </defs>
     <use xlink:href="#DejaVuSans-Bold-4f"/>
     <use xlink:href="#DejaVuSans-Bold-75" transform="translate(85.009766 0)"/>
     <use xlink:href="#DejaVuSans-Bold-74" transform="translate(156.201172 0)"/>
     <use xlink:href="#DejaVuSans-Bold-70" transform="translate(204.003906 0)"/>
     <use xlink:href="#DejaVuSans-Bold-75" transform="translate(275.585938 0)"/>
     <use xlink:href="#DejaVuSans-Bold-74" transform="translate(346.777344 0)"/>
     <use xlink:href="#DejaVuSans-Bold-20" transform="translate(394.580078 0)"/>
     <use xlink:href="#DejaVuSans-Bold-4c" transform="translate(429.394531 0)"/>
     <use xlink:href="#DejaVuSans-Bold-61" transform="translate(493.115234 0)"/>
     <use xlink:href="#DejaVuSans-Bold-79" transform="translate(557.470703 0)"/>
     <use xlink:href="#DejaVuSans-Bold-65" transform="translate(622.65625 0)"/>
     <use xlink:href="#DejaVuSans-Bold-72" transform="translate(690.478516 0)"/>
    </g>
   </g>
   <g id="text_17">
    <!-- Missing Value Handling -->
    <g transform="translate(261.705156 424.907187) scale(0.13 -0.13)">
     <defs>
      <path id="DejaVuSans-4d" d="M 628 4666 
L 1569 4666 
L 2759 1491 
L 3956 4666 
L 4897 4666 
L 4897 0 
L 4281 0 
L 4281 4097 
L 3078 897 
L 2444 897 
L 1241 4097 
L 1241 0 
L 628 0 
L 628 4666 
z
" transform="scale(0.015625)"/>
      <path id="DejaVuSans-69" d="M 603 3500 
L 1178 3500 
L 1178 0 
L 603 0 
L 603 3500 
z
M 603 4863 
L 1178 4863 
L 1178 4134 
L 603 4134 
L 603 4863 
z
" transform="scale(0.015625)"/>
      <path id="DejaVuSans-73" d="M 2834 3397 
L 2834 2853 
Q 2591 2978 2328 3040 
Q 2066 3103 1784 3103 
Q 1356 3103 1142 2972 
Q 928 2841 928 2578 
Q 928 2378 1081 2264 
Q 1234 2150 1697 2047 
L 1894 2003 
Q 2506 1872 2764 1633 
Q 3022 1394 3022 966 
Q 3022 478 2636 193 
Q 2250 -91 1575 -91 
Q 1294 -91 989 -36 
Q 684 19 347 128 
L 347 722 
Q 666 556 975 473 
Q 1284 391 1588 391 
Q 1994 391 2212 530 
Q 2431 669 2431 922 
Q 2431 1156 2273 1281 
Q 2116 1406 1581 1522 
L 1381 1569 
Q 847 1681 609 1914 
Q 372 2147 372 2553 
Q 372 3047 722 3315 
Q 1072 3584 1716 3584 
Q 2034 3584 2315 3537 
Q 2597 3491 2834 3397 
z
" transform="scale(0.015625)"/>
      <path id="DejaVuSans-6e" d="M 3513 2113 
L 3513 0 
L 2938 0 
L 2938 2094 
Q 2938 2591 2744 2837 
Q 2550 3084 2163 3084 
Q 1697 3084 1428 2787 
Q 1159 2491 1159 1978 
L 1159 0 
L 581 0 
L 581 3500 
L 1159 3500 
L 1159 2956 
Q 1366 3272 1645 3428 
Q 1925 3584 2291 3584 
Q 2894 3584 3203 3211 
Q 3513 2838 3513 2113 
z
" transform="scale(0.015625)"/>
      <path id="DejaVuSans-67" d="M 2906 1791 
Q 2906 2416 2648 2759 
Q 2391 3103 1925 3103 
Q 1463 3103 1205 2759 
Q 947 2416 947 1791 
Q 947 1169 1205 825 
Q 1463 481 1925 481 
Q 2391 481 2648 825 
Q 2906 1169 2906 1791 
z
M 3481 434 
Q 3481 -459 3084 -895 
Q 2688 -1331 1869 -1331 
Q 1566 -1331 1297 -1286 
Q 1028 -1241 775 -1147 
L 775 -588 
Q 1028 -725 1275 -790 
Q 1522 -856 1778 -856 
Q 2344 -856 2625 -561 
Q 2906 -266 2906 331 
L 2906 616 
Q 2728 306 2450 153 
Q 2172 0 1784 0 
Q 1141 0 747 490 
Q 353 981 353 1791 
Q 353 2603 747 3093 
Q 1141 3584 1784 3584 
Q 2172 3584 2450 3431 
Q 2728 3278 2906 2969 
L 2906 3500 
L 3481 3500 
L 3481 434 
z
" transform="scale(0.015625)"/>
      <path id="DejaVuSans-20" transform="scale(0.015625)"/>
      <path id="DejaVuSans-56" d="M 1831 0 
L 50 4666 
L 709 4666 
L 2188 738 
L 3669 4666 
L 4325 4666 
L 2547 0 
L 1831 0 
z
" transform="scale(0.015625)"/>
      <path id="DejaVuSans-61" d="M 2194 1759 
Q 1497 1759 1228 1600 
Q 959 1441 959 1056 
Q 959 750 1161 570 
Q 1363 391 1709 391 
Q 2188 391 2477 730 
Q 2766 1069 2766 1631 
L 2766 1759 
L 2194 1759 
z
M 3341 1997 
L 3341 0 
L 2766 0 
L 2766 531 
Q 2569 213 2275 61 
Q 1981 -91 1556 -91 
Q 1019 -91 701 211 
Q 384 513 384 1019 
Q 384 1609 779 1909 
Q 1175 2209 1959 2209 
L 2766 2209 
L 2766 2266 
Q 2766 2663 2505 2880 
Q 2244 3097 1772 3097 
Q 1472 3097 1187 3025 
Q 903 2953 641 2809 
L 641 3341 
Q 956 3463 1253 3523 
Q 1550 3584 1831 3584 
Q 2591 3584 2966 3190 
Q 3341 2797 3341 1997 
z
" transform="scale(0.015625)"/>
      <path id="DejaVuSans-6c" d="M 603 4863 
L 1178 4863 
L 1178 0 
L 603 0 
L 603 4863 
z
" transform="scale(0.015625)"/>
      <path id="DejaVuSans-75" d="M 544 1381 
L 544 3500 
L 1119 3500 
L 1119 1403 
Q 1119 906 1312 657 
Q 1506 409 1894 409 
Q 2359 409 2629 706 
Q 2900 1003 2900 1516 
L 2900 3500 
L 3475 3500 
L 3475 0 
L 2900 0 
L 2900 538 
Q 2691 219 2414 64 
Q 2138 -91 1772 -91 
Q 1169 -91 856 284 
Q 544 659 544 1381 
z
M 1991 3584 
L 1991 3584 
z
" transform="scale(0.015625)"/>
      <path id="DejaVuSans-65" d="M 3597 1894 
L 3597 1613 
L 953 1613 
Q 991 1019 1311 708 
Q 1631 397 2203 397 
Q 2534 397 2845 478 
Q 3156 559 3463 722 
L 3463 178 
Q 3153 47 2828 -22 
Q 2503 -91 2169 -91 
Q 1331 -91 842 396 
Q 353 884 353 1716 
Q 353 2575 817 3079 
Q 1281 3584 2069 3584 
Q 2775 3584 3186 3129 
Q 3597 2675 3597 1894 
z
M 3022 2063 
Q 3016 2534 2758 2815 
Q 2500 3097 2075 3097 
Q 1594 3097 1305 2825 
Q 1016 2553 972 2059 
L 3022 2063 
z
" transform="scale(0.015625)"/>
      <path id="DejaVuSans-48" d="M 628 4666 
L 1259 4666 
L 1259 2753 
L 3553 2753 
L 3553 4666 
L 4184 4666 
L 4184 0 
L 3553 0 
L 3553 2222 
L 1259 2222 
L 1259 0 
L 628 0 
L 628 4666 
z
" transform="scale(0.015625)"/>
      <path id="DejaVuSans-64" d="M 2906 2969 
L 2906 4863 
L 3481 4863 
L 3481 0 
L 2906 0 
L 2906 525 
Q 2725 213 2448 61 
Q 2172 -91 1784 -91 
Q 1150 -91 751 415 
Q 353 922 353 1747 
Q 353 2572 751 3078 
Q 1150 3584 1784 3584 
Q 2172 3584 2448 3432 
Q 2725 3281 2906 2969 
z
M 947 1747 
Q 947 1113 1208 752 
Q 1469 391 1925 391 
Q 2381 391 2643 752 
Q 2906 1113 2906 1747 
Q 2906 2381 2643 2742 
Q 2381 3103 1925 3103 
Q 1469 3103 1208 2742 
Q 947 2381 947 1747 
z
" transform="scale(0.015625)"/>
     </defs>
     <use xlink:href="#DejaVuSans-4d"/>
     <use xlink:href="#DejaVuSans-69" transform="translate(86.279297 0)"/>
     <use xlink:href="#DejaVuSans-73" transform="translate(114.0625 0)"/>
     <use xlink:href="#DejaVuSans-73" transform="translate(166.162109 0)"/>
     <use xlink:href="#DejaVuSans-69" transform="translate(218.261719 0)"/>
     <use xlink:href="#DejaVuSans-6e" transform="translate(246.044922 0)"/>
     <use xlink:href="#DejaVuSans-67" transform="translate(309.423828 0)"/>
     <use xlink:href="#DejaVuSans-20" transform="translate(372.900391 0)"/>
     <use xlink:href="#DejaVuSans-56" transform="translate(404.6875 0)"/>
     <use xlink:href="#DejaVuSans-61" transform="translate(465.345703 0)"/>
     <use xlink:href="#DejaVuSans-6c" transform="translate(526.625 0)"/>
     <use xlink:href="#DejaVuSans-75" transform="translate(554.408203 0)"/>
     <use xlink:href="#DejaVuSans-65" transform="translate(617.787109 0)"/>
     <use xlink:href="#DejaVuSans-20" transform="translate(679.310547 0)"/>
     <use xlink:href="#DejaVuSans-48" transform="translate(711.097656 0)"/>
     <use xlink:href="#DejaVuSans-61" transform="translate(786.292969 0)"/>
     <use xlink:href="#DejaVuSans-6e" transform="translate(847.572266 0)"/>
     <use xlink:href="#DejaVuSans-64" transform="translate(910.951172 0)"/>
     <use xlink:href="#DejaVuSans-6c" transform="translate(974.427734 0)"/>
     <use xlink:href="#DejaVuSans-69" transform="translate(1002.210938 0)"/>
     <use xlink:href="#DejaVuSans-6e" transform="translate(1029.994141 0)"/>
     <use xlink:href="#DejaVuSans-67" transform="translate(1093.373047 0)"/>
    </g>
   </g>
   <g id="text_18">
    <!-- Positional Encoding -->
    <g transform="translate(273.786016 327.467187) scale(0.13 -0.13)">
     <defs>
      <path id="DejaVuSans-50" d="M 1259 4147 
L 1259 2394 
L 2053 2394 
Q 2494 2394 2734 2622 
Q 2975 2850 2975 3272 
Q 2975 3691 2734 3919 
Q 2494 4147 2053 4147 
L 1259 4147 
z
M 628 4666 
L 2053 4666 
Q 2838 4666 3239 4311 
Q 3641 3956 3641 3272 
Q 3641 2581 3239 2228 
Q 2838 1875 2053 1875 
L 1259 1875 
L 1259 0 
L 628 0 
L 628 4666 
z
" transform="scale(0.015625)"/>
      <path id="DejaVuSans-6f" d="M 1959 3097 
Q 1497 3097 1228 2736 
Q 959 2375 959 1747 
Q 959 1119 1226 758 
Q 1494 397 1959 397 
Q 2419 397 2687 759 
Q 2956 1122 2956 1747 
Q 2956 2369 2687 2733 
Q 2419 3097 1959 3097 
z
M 1959 3584 
Q 2709 3584 3137 3096 
Q 3566 2609 3566 1747 
Q 3566 888 3137 398 
Q 2709 -91 1959 -91 
Q 1206 -91 779 398 
Q 353 888 353 1747 
Q 353 2609 779 3096 
Q 1206 3584 1959 3584 
z
" transform="scale(0.015625)"/>
      <path id="DejaVuSans-74" d="M 1172 4494 
L 1172 3500 
L 2356 3500 
L 2356 3053 
L 1172 3053 
L 1172 1153 
Q 1172 725 1289 603 
Q 1406 481 1766 481 
L 2356 481 
L 2356 0 
L 1766 0 
Q 1100 0 847 248 
Q 594 497 594 1153 
L 594 3053 
L 172 3053 
L 172 3500 
L 594 3500 
L 594 4494 
L 1172 4494 
z
" transform="scale(0.015625)"/>
      <path id="DejaVuSans-45" d="M 628 4666 
L 3578 4666 
L 3578 4134 
L 1259 4134 
L 1259 2753 
L 3481 2753 
L 3481 2222 
L 1259 2222 
L 1259 531 
L 3634 531 
L 3634 0 
L 628 0 
L 628 4666 
z
" transform="scale(0.015625)"/>
      <path id="DejaVuSans-63" d="M 3122 3366 
L 3122 2828 
Q 2878 2963 2633 3030 
Q 2388 3097 2138 3097 
Q 1578 3097 1268 2742 
Q 959 2388 959 1747 
Q 959 1106 1268 751 
Q 1578 397 2138 397 
Q 2388 397 2633 464 
Q 2878 531 3122 666 
L 3122 134 
Q 2881 22 2623 -34 
Q 2366 -91 2075 -91 
Q 1284 -91 818 406 
Q 353 903 353 1747 
Q 353 2603 823 3093 
Q 1294 3584 2113 3584 
Q 2378 3584 2631 3529 
Q 2884 3475 3122 3366 
z
" transform="scale(0.015625)"/>
     </defs>
     <use xlink:href="#DejaVuSans-50"/>
     <use xlink:href="#DejaVuSans-6f" transform="translate(56.677734 0)"/>
     <use xlink:href="#DejaVuSans-73" transform="translate(117.859375 0)"/>
     <use xlink:href="#DejaVuSans-69" transform="translate(169.958984 0)"/>
     <use xlink:href="#DejaVuSans-74" transform="translate(197.742188 0)"/>
     <use xlink:href="#DejaVuSans-69" transform="translate(236.951172 0)"/>
     <use xlink:href="#DejaVuSans-6f" transform="translate(264.734375 0)"/>
     <use xlink:href="#DejaVuSans-6e" transform="translate(325.916016 0)"/>
     <use xlink:href="#DejaVuSans-61" transform="translate(389.294922 0)"/>
     <use xlink:href="#DejaVuSans-6c" transform="translate(450.574219 0)"/>
     <use xlink:href="#DejaVuSans-20" transform="translate(478.357422 0)"/>
     <use xlink:href="#DejaVuSans-45" transform="translate(510.144531 0)"/>
     <use xlink:href="#DejaVuSans-6e" transform="translate(573.328125 0)"/>
     <use xlink:href="#DejaVuSans-63" transform="translate(636.707031 0)"/>
     <use xlink:href="#DejaVuSans-6f" transform="translate(691.6875 0)"/>
     <use xlink:href="#DejaVuSans-64" transform="translate(752.869141 0)"/>
     <use xlink:href="#DejaVuSans-69" transform="translate(816.345703 0)"/>
     <use xlink:href="#DejaVuSans-6e" transform="translate(844.128906 0)"/>
     <use xlink:href="#DejaVuSans-67" transform="translate(907.507812 0)"/>
    </g>
   </g>
   <g id="text_19">
    <!-- Feature Normalization -->
    <g transform="translate(265.1075 230.027187) scale(0.13 -0.13)">
     <defs>
      <path id="DejaVuSans-46" d="M 628 4666 
L 3309 4666 
L 3309 4134 
L 1259 4134 
L 1259 2759 
L 3109 2759 
L 3109 2228 
L 1259 2228 
L 1259 0 
L 628 0 
L 628 4666 
z
" transform="scale(0.015625)"/>
      <path id="DejaVuSans-72" d="M 2631 2963 
Q 2534 3019 2420 3045 
Q 2306 3072 2169 3072 
Q 1681 3072 1420 2755 
Q 1159 2438 1159 1844 
L 1159 0 
L 581 0 
L 581 3500 
L 1159 3500 
L 1159 2956 
Q 1341 3275 1631 3429 
Q 1922 3584 2338 3584 
Q 2397 3584 2469 3576 
Q 2541 3569 2628 3553 
L 2631 2963 
z
" transform="scale(0.015625)"/>
      <path id="DejaVuSans-4e" d="M 628 4666 
L 1478 4666 
L 3547 763 
L 3547 4666 
L 4159 4666 
L 4159 0 
L 3309 0 
L 1241 3903 
L 1241 0 
L 628 0 
L 628 4666 
z
" transform="scale(0.015625)"/>
      <path id="DejaVuSans-6d" d="M 3328 2828 
Q 3544 3216 3844 3400 
Q 4144 3584 4550 3584 
Q 5097 3584 5394 3201 
Q 5691 2819 5691 2113 
L 5691 0 
L 5113 0 
L 5113 2094 
Q 5113 2597 4934 2840 
Q 4756 3084 4391 3084 
Q 3944 3084 3684 2787 
Q 3425 2491 3425 1978 
L 3425 0 
L 2847 0 
L 2847 2094 
Q 2847 2600 2669 2842 
Q 2491 3084 2119 3084 
Q 1678 3084 1418 2786 
Q 1159 2488 1159 1978 
L 1159 0 
L 581 0 
L 581 3500 
L 1159 3500 
L 1159 2956 
Q 1356 3278 1631 3431 
Q 1906 3584 2284 3584 
Q 2666 3584 2933 3390 
Q 3200 3197 3328 2828 
z
" transform="scale(0.015625)"/>
      <path id="DejaVuSans-7a" d="M 353 3500 
L 3084 3500 
L 3084 2975 
L 922 459 
L 3084 459 
L 3084 0 
L 275 0 
L 275 525 
L 2438 3041 
L 353 3041 
L 353 3500 
z
" transform="scale(0.015625)"/>
     </defs>
     <use xlink:href="#DejaVuSans-46"/>
     <use xlink:href="#DejaVuSans-65" transform="translate(52.019531 0)"/>
     <use xlink:href="#DejaVuSans-61" transform="translate(113.542969 0)"/>
     <use xlink:href="#DejaVuSans-74" transform="translate(174.822266 0)"/>
     <use xlink:href="#DejaVuSans-75" transform="translate(214.03125 0)"/>
     <use xlink:href="#DejaVuSans-72" transform="translate(277.410156 0)"/>
     <use xlink:href="#DejaVuSans-65" transform="translate(316.273438 0)"/>
     <use xlink:href="#DejaVuSans-20" transform="translate(377.796875 0)"/>
     <use xlink:href="#DejaVuSans-4e" transform="translate(409.583984 0)"/>
     <use xlink:href="#DejaVuSans-6f" transform="translate(484.388672 0)"/>
     <use xlink:href="#DejaVuSans-72" transform="translate(545.570312 0)"/>
     <use xlink:href="#DejaVuSans-6d" transform="translate(584.933594 0)"/>
     <use xlink:href="#DejaVuSans-61" transform="translate(682.345703 0)"/>
     <use xlink:href="#DejaVuSans-6c" transform="translate(743.625 0)"/>
     <use xlink:href="#DejaVuSans-69" transform="translate(771.408203 0)"/>
     <use xlink:href="#DejaVuSans-7a" transform="translate(799.191406 0)"/>
     <use xlink:href="#DejaVuSans-61" transform="translate(851.681641 0)"/>
     <use xlink:href="#DejaVuSans-74" transform="translate(912.960938 0)"/>
     <use xlink:href="#DejaVuSans-69" transform="translate(952.169922 0)"/>
     <use xlink:href="#DejaVuSans-6f" transform="translate(979.953125 0)"/>
     <use xlink:href="#DejaVuSans-6e" transform="translate(1041.134766 0)"/>
    </g>
   </g>
   <g id="text_20">
    <!-- Dimensions: Nx(P+1)xE -->
    <g style="fill: #333333" transform="translate(388.050469 498.539062) scale(0.15 -0.15)">
     <defs>
      <path id="DejaVuSans-Bold-2b" d="M 3053 4013 
L 3053 2375 
L 4684 2375 
L 4684 1638 
L 3053 1638 
L 3053 0 
L 2309 0 
L 2309 1638 
L 678 1638 
L 678 2375 
L 2309 2375 
L 2309 4013 
L 3053 4013 
z
" transform="scale(0.015625)"/>
      <path id="DejaVuSans-Bold-31" d="M 750 831 
L 1813 831 
L 1813 3847 
L 722 3622 
L 722 4441 
L 1806 4666 
L 2950 4666 
L 2950 831 
L 4013 831 
L 4013 0 
L 750 0 
L 750 831 
z
" transform="scale(0.015625)"/>
     </defs>
     <use xlink:href="#DejaVuSans-Bold-44"/>
     <use xlink:href="#DejaVuSans-Bold-69" transform="translate(83.007812 0)"/>
     <use xlink:href="#DejaVuSans-Bold-6d" transform="translate(117.285156 0)"/>
     <use xlink:href="#DejaVuSans-Bold-65" transform="translate(221.484375 0)"/>
     <use xlink:href="#DejaVuSans-Bold-6e" transform="translate(289.306641 0)"/>
     <use xlink:href="#DejaVuSans-Bold-73" transform="translate(360.498047 0)"/>
     <use xlink:href="#DejaVuSans-Bold-69" transform="translate(420.019531 0)"/>
     <use xlink:href="#DejaVuSans-Bold-6f" transform="translate(454.296875 0)"/>
     <use xlink:href="#DejaVuSans-Bold-6e" transform="translate(522.998047 0)"/>
     <use xlink:href="#DejaVuSans-Bold-73" transform="translate(594.189453 0)"/>
     <use xlink:href="#DejaVuSans-Bold-3a" transform="translate(653.710938 0)"/>
     <use xlink:href="#DejaVuSans-Bold-20" transform="translate(693.701172 0)"/>
     <use xlink:href="#DejaVuSans-Bold-4e" transform="translate(728.515625 0)"/>
     <use xlink:href="#DejaVuSans-Bold-78" transform="translate(812.207031 0)"/>
     <use xlink:href="#DejaVuSans-Bold-28" transform="translate(876.708984 0)"/>
     <use xlink:href="#DejaVuSans-Bold-50" transform="translate(922.412109 0)"/>
     <use xlink:href="#DejaVuSans-Bold-2b" transform="translate(995.703125 0)"/>
     <use xlink:href="#DejaVuSans-Bold-31" transform="translate(1079.492188 0)"/>
     <use xlink:href="#DejaVuSans-Bold-29" transform="translate(1149.072266 0)"/>
     <use xlink:href="#DejaVuSans-Bold-78" transform="translate(1194.775391 0)"/>
     <use xlink:href="#DejaVuSans-Bold-45" transform="translate(1259.277344 0)"/>
    </g>
   </g>
   <g id="text_21">
    <!-- Each row is transformed into a PxE matrix by -->
    <g style="fill: #333333" transform="translate(352.130625 533.97975) scale(0.12 -0.12)">
     <defs>
      <path id="DejaVuSans-68" d="M 3513 2113 
L 3513 0 
L 2938 0 
L 2938 2094 
Q 2938 2591 2744 2837 
Q 2550 3084 2163 3084 
Q 1697 3084 1428 2787 
Q 1159 2491 1159 1978 
L 1159 0 
L 581 0 
L 581 4863 
L 1159 4863 
L 1159 2956 
Q 1366 3272 1645 3428 
Q 1925 3584 2291 3584 
Q 2894 3584 3203 3211 
Q 3513 2838 3513 2113 
z
" transform="scale(0.015625)"/>
      <path id="DejaVuSans-77" d="M 269 3500 
L 844 3500 
L 1563 769 
L 2278 3500 
L 2956 3500 
L 3675 769 
L 4391 3500 
L 4966 3500 
L 4050 0 
L 3372 0 
L 2619 2869 
L 1863 0 
L 1184 0 
L 269 3500 
z
" transform="scale(0.015625)"/>
      <path id="DejaVuSans-66" d="M 2375 4863 
L 2375 4384 
L 1825 4384 
Q 1516 4384 1395 4259 
Q 1275 4134 1275 3809 
L 1275 3500 
L 2222 3500 
L 2222 3053 
L 1275 3053 
L 1275 0 
L 697 0 
L 697 3053 
L 147 3053 
L 147 3500 
L 697 3500 
L 697 3744 
Q 697 4328 969 4595 
Q 1241 4863 1831 4863 
L 2375 4863 
z
" transform="scale(0.015625)"/>
      <path id="DejaVuSans-78" d="M 3513 3500 
L 2247 1797 
L 3578 0 
L 2900 0 
L 1881 1375 
L 863 0 
L 184 0 
L 1544 1831 
L 300 3500 
L 978 3500 
L 1906 2253 
L 2834 3500 
L 3513 3500 
z
" transform="scale(0.015625)"/>
      <path id="DejaVuSans-62" d="M 3116 1747 
Q 3116 2381 2855 2742 
Q 2594 3103 2138 3103 
Q 1681 3103 1420 2742 
Q 1159 2381 1159 1747 
Q 1159 1113 1420 752 
Q 1681 391 2138 391 
Q 2594 391 2855 752 
Q 3116 1113 3116 1747 
z
M 1159 2969 
Q 1341 3281 1617 3432 
Q 1894 3584 2278 3584 
Q 2916 3584 3314 3078 
Q 3713 2572 3713 1747 
Q 3713 922 3314 415 
Q 2916 -91 2278 -91 
Q 1894 -91 1617 61 
Q 1341 213 1159 525 
L 1159 0 
L 581 0 
L 581 4863 
L 1159 4863 
L 1159 2969 
z
" transform="scale(0.015625)"/>
      <path id="DejaVuSans-79" d="M 2059 -325 
Q 1816 -950 1584 -1140 
Q 1353 -1331 966 -1331 
L 506 -1331 
L 506 -850 
L 844 -850 
Q 1081 -850 1212 -737 
Q 1344 -625 1503 -206 
L 1606 56 
L 191 3500 
L 800 3500 
L 1894 763 
L 2988 3500 
L 3597 3500 
L 2059 -325 
z
" transform="scale(0.015625)"/>
     </defs>
     <use xlink:href="#DejaVuSans-45"/>
     <use xlink:href="#DejaVuSans-61" transform="translate(63.183594 0)"/>
     <use xlink:href="#DejaVuSans-63" transform="translate(124.462891 0)"/>
     <use xlink:href="#DejaVuSans-68" transform="translate(179.443359 0)"/>
     <use xlink:href="#DejaVuSans-20" transform="translate(242.822266 0)"/>
     <use xlink:href="#DejaVuSans-72" transform="translate(274.609375 0)"/>
     <use xlink:href="#DejaVuSans-6f" transform="translate(313.472656 0)"/>
     <use xlink:href="#DejaVuSans-77" transform="translate(374.654297 0)"/>
     <use xlink:href="#DejaVuSans-20" transform="translate(456.441406 0)"/>
     <use xlink:href="#DejaVuSans-69" transform="translate(488.228516 0)"/>
     <use xlink:href="#DejaVuSans-73" transform="translate(516.011719 0)"/>
     <use xlink:href="#DejaVuSans-20" transform="translate(568.111328 0)"/>
     <use xlink:href="#DejaVuSans-74" transform="translate(599.898438 0)"/>
     <use xlink:href="#DejaVuSans-72" transform="translate(639.107422 0)"/>
     <use xlink:href="#DejaVuSans-61" transform="translate(680.220703 0)"/>
     <use xlink:href="#DejaVuSans-6e" transform="translate(741.5 0)"/>
     <use xlink:href="#DejaVuSans-73" transform="translate(804.878906 0)"/>
     <use xlink:href="#DejaVuSans-66" transform="translate(856.978516 0)"/>
     <use xlink:href="#DejaVuSans-6f" transform="translate(892.183594 0)"/>
     <use xlink:href="#DejaVuSans-72" transform="translate(953.365234 0)"/>
     <use xlink:href="#DejaVuSans-6d" transform="translate(992.728516 0)"/>
     <use xlink:href="#DejaVuSans-65" transform="translate(1090.140625 0)"/>
     <use xlink:href="#DejaVuSans-64" transform="translate(1151.664062 0)"/>
     <use xlink:href="#DejaVuSans-20" transform="translate(1215.140625 0)"/>
     <use xlink:href="#DejaVuSans-69" transform="translate(1246.927734 0)"/>
     <use xlink:href="#DejaVuSans-6e" transform="translate(1274.710938 0)"/>
     <use xlink:href="#DejaVuSans-74" transform="translate(1338.089844 0)"/>
     <use xlink:href="#DejaVuSans-6f" transform="translate(1377.298828 0)"/>
     <use xlink:href="#DejaVuSans-20" transform="translate(1438.480469 0)"/>
     <use xlink:href="#DejaVuSans-61" transform="translate(1470.267578 0)"/>
     <use xlink:href="#DejaVuSans-20" transform="translate(1531.546875 0)"/>
     <use xlink:href="#DejaVuSans-50" transform="translate(1563.333984 0)"/>
     <use xlink:href="#DejaVuSans-78" transform="translate(1623.636719 0)"/>
     <use xlink:href="#DejaVuSans-45" transform="translate(1682.816406 0)"/>
     <use xlink:href="#DejaVuSans-20" transform="translate(1746 0)"/>
     <use xlink:href="#DejaVuSans-6d" transform="translate(1777.787109 0)"/>
     <use xlink:href="#DejaVuSans-61" transform="translate(1875.199219 0)"/>
     <use xlink:href="#DejaVuSans-74" transform="translate(1936.478516 0)"/>
     <use xlink:href="#DejaVuSans-72" transform="translate(1975.6875 0)"/>
     <use xlink:href="#DejaVuSans-69" transform="translate(2016.800781 0)"/>
     <use xlink:href="#DejaVuSans-78" transform="translate(2044.583984 0)"/>
     <use xlink:href="#DejaVuSans-20" transform="translate(2103.763672 0)"/>
     <use xlink:href="#DejaVuSans-62" transform="translate(2135.550781 0)"/>
     <use xlink:href="#DejaVuSans-79" transform="translate(2199.027344 0)"/>
    </g>
    <!-- multiplying each entry with a common weight vector -->
    <g style="fill: #333333" transform="translate(328.499063 549.24075) scale(0.12 -0.12)">
     <defs>
      <path id="DejaVuSans-70" d="M 1159 525 
L 1159 -1331 
L 581 -1331 
L 581 3500 
L 1159 3500 
L 1159 2969 
Q 1341 3281 1617 3432 
Q 1894 3584 2278 3584 
Q 2916 3584 3314 3078 
Q 3713 2572 3713 1747 
Q 3713 922 3314 415 
Q 2916 -91 2278 -91 
Q 1894 -91 1617 61 
Q 1341 213 1159 525 
z
M 3116 1747 
Q 3116 2381 2855 2742 
Q 2594 3103 2138 3103 
Q 1681 3103 1420 2742 
Q 1159 2381 1159 1747 
Q 1159 1113 1420 752 
Q 1681 391 2138 391 
Q 2594 391 2855 752 
Q 3116 1113 3116 1747 
z
" transform="scale(0.015625)"/>
      <path id="DejaVuSans-76" d="M 191 3500 
L 800 3500 
L 1894 563 
L 2988 3500 
L 3597 3500 
L 2284 0 
L 1503 0 
L 191 3500 
z
" transform="scale(0.015625)"/>
     </defs>
     <use xlink:href="#DejaVuSans-6d"/>
     <use xlink:href="#DejaVuSans-75" transform="translate(97.412109 0)"/>
     <use xlink:href="#DejaVuSans-6c" transform="translate(160.791016 0)"/>
     <use xlink:href="#DejaVuSans-74" transform="translate(188.574219 0)"/>
     <use xlink:href="#DejaVuSans-69" transform="translate(227.783203 0)"/>
     <use xlink:href="#DejaVuSans-70" transform="translate(255.566406 0)"/>
     <use xlink:href="#DejaVuSans-6c" transform="translate(319.042969 0)"/>
     <use xlink:href="#DejaVuSans-79" transform="translate(346.826172 0)"/>
     <use xlink:href="#DejaVuSans-69" transform="translate(406.005859 0)"/>
     <use xlink:href="#DejaVuSans-6e" transform="translate(433.789062 0)"/>
     <use xlink:href="#DejaVuSans-67" transform="translate(497.167969 0)"/>
     <use xlink:href="#DejaVuSans-20" transform="translate(560.644531 0)"/>
     <use xlink:href="#DejaVuSans-65" transform="translate(592.431641 0)"/>
     <use xlink:href="#DejaVuSans-61" transform="translate(653.955078 0)"/>
     <use xlink:href="#DejaVuSans-63" transform="translate(715.234375 0)"/>
     <use xlink:href="#DejaVuSans-68" transform="translate(770.214844 0)"/>
     <use xlink:href="#DejaVuSans-20" transform="translate(833.59375 0)"/>
     <use xlink:href="#DejaVuSans-65" transform="translate(865.380859 0)"/>
     <use xlink:href="#DejaVuSans-6e" transform="translate(926.904297 0)"/>
     <use xlink:href="#DejaVuSans-74" transform="translate(990.283203 0)"/>
     <use xlink:href="#DejaVuSans-72" transform="translate(1029.492188 0)"/>
     <use xlink:href="#DejaVuSans-79" transform="translate(1070.605469 0)"/>
     <use xlink:href="#DejaVuSans-20" transform="translate(1129.785156 0)"/>
     <use xlink:href="#DejaVuSans-77" transform="translate(1161.572266 0)"/>
     <use xlink:href="#DejaVuSans-69" transform="translate(1243.359375 0)"/>
     <use xlink:href="#DejaVuSans-74" transform="translate(1271.142578 0)"/>
     <use xlink:href="#DejaVuSans-68" transform="translate(1310.351562 0)"/>
     <use xlink:href="#DejaVuSans-20" transform="translate(1373.730469 0)"/>
     <use xlink:href="#DejaVuSans-61" transform="translate(1405.517578 0)"/>
     <use xlink:href="#DejaVuSans-20" transform="translate(1466.796875 0)"/>
     <use xlink:href="#DejaVuSans-63" transform="translate(1498.583984 0)"/>
     <use xlink:href="#DejaVuSans-6f" transform="translate(1553.564453 0)"/>
     <use xlink:href="#DejaVuSans-6d" transform="translate(1614.746094 0)"/>
     <use xlink:href="#DejaVuSans-6d" transform="translate(1712.158203 0)"/>
     <use xlink:href="#DejaVuSans-6f" transform="translate(1809.570312 0)"/>
     <use xlink:href="#DejaVuSans-6e" transform="translate(1870.751953 0)"/>
     <use xlink:href="#DejaVuSans-20" transform="translate(1934.130859 0)"/>
     <use xlink:href="#DejaVuSans-77" transform="translate(1965.917969 0)"/>
     <use xlink:href="#DejaVuSans-65" transform="translate(2047.705078 0)"/>
     <use xlink:href="#DejaVuSans-69" transform="translate(2109.228516 0)"/>
     <use xlink:href="#DejaVuSans-67" transform="translate(2137.011719 0)"/>
     <use xlink:href="#DejaVuSans-68" transform="translate(2200.488281 0)"/>
     <use xlink:href="#DejaVuSans-74" transform="translate(2263.867188 0)"/>
     <use xlink:href="#DejaVuSans-20" transform="translate(2303.076172 0)"/>
     <use xlink:href="#DejaVuSans-76" transform="translate(2334.863281 0)"/>
     <use xlink:href="#DejaVuSans-65" transform="translate(2394.042969 0)"/>
     <use xlink:href="#DejaVuSans-63" transform="translate(2455.566406 0)"/>
     <use xlink:href="#DejaVuSans-74" transform="translate(2510.546875 0)"/>
     <use xlink:href="#DejaVuSans-6f" transform="translate(2549.755859 0)"/>
     <use xlink:href="#DejaVuSans-72" transform="translate(2610.9375 0)"/>
    </g>
    <!-- and adding a random but distinct per column vector. -->
    <g style="fill: #333333" transform="translate(329.071875 564.50175) scale(0.12 -0.12)">
     <use xlink:href="#DejaVuSans-61"/>
     <use xlink:href="#DejaVuSans-6e" transform="translate(61.279297 0)"/>
     <use xlink:href="#DejaVuSans-64" transform="translate(124.658203 0)"/>
     <use xlink:href="#DejaVuSans-20" transform="translate(188.134766 0)"/>
     <use xlink:href="#DejaVuSans-61" transform="translate(219.921875 0)"/>
     <use xlink:href="#DejaVuSans-64" transform="translate(281.201172 0)"/>
     <use xlink:href="#DejaVuSans-64" transform="translate(344.677734 0)"/>
     <use xlink:href="#DejaVuSans-69" transform="translate(408.154297 0)"/>
     <use xlink:href="#DejaVuSans-6e" transform="translate(435.9375 0)"/>
     <use xlink:href="#DejaVuSans-67" transform="translate(499.316406 0)"/>
     <use xlink:href="#DejaVuSans-20" transform="translate(562.792969 0)"/>
     <use xlink:href="#DejaVuSans-61" transform="translate(594.580078 0)"/>
     <use xlink:href="#DejaVuSans-20" transform="translate(655.859375 0)"/>
     <use xlink:href="#DejaVuSans-72" transform="translate(687.646484 0)"/>
     <use xlink:href="#DejaVuSans-61" transform="translate(728.759766 0)"/>
     <use xlink:href="#DejaVuSans-6e" transform="translate(790.039062 0)"/>
     <use xlink:href="#DejaVuSans-64" transform="translate(853.417969 0)"/>
     <use xlink:href="#DejaVuSans-6f" transform="translate(916.894531 0)"/>
     <use xlink:href="#DejaVuSans-6d" transform="translate(978.076172 0)"/>
     <use xlink:href="#DejaVuSans-20" transform="translate(1075.488281 0)"/>
     <use xlink:href="#DejaVuSans-62" transform="translate(1107.275391 0)"/>
     <use xlink:href="#DejaVuSans-75" transform="translate(1170.751953 0)"/>
     <use xlink:href="#DejaVuSans-74" transform="translate(1234.130859 0)"/>
     <use xlink:href="#DejaVuSans-20" transform="translate(1273.339844 0)"/>
     <use xlink:href="#DejaVuSans-64" transform="translate(1305.126953 0)"/>
     <use xlink:href="#DejaVuSans-69" transform="translate(1368.603516 0)"/>
     <use xlink:href="#DejaVuSans-73" transform="translate(1396.386719 0)"/>
     <use xlink:href="#DejaVuSans-74" transform="translate(1448.486328 0)"/>
     <use xlink:href="#DejaVuSans-69" transform="translate(1487.695312 0)"/>
     <use xlink:href="#DejaVuSans-6e" transform="translate(1515.478516 0)"/>
     <use xlink:href="#DejaVuSans-63" transform="translate(1578.857422 0)"/>
     <use xlink:href="#DejaVuSans-74" transform="translate(1633.837891 0)"/>
     <use xlink:href="#DejaVuSans-20" transform="translate(1673.046875 0)"/>
     <use xlink:href="#DejaVuSans-70" transform="translate(1704.833984 0)"/>
     <use xlink:href="#DejaVuSans-65" transform="translate(1768.310547 0)"/>
     <use xlink:href="#DejaVuSans-72" transform="translate(1829.833984 0)"/>
     <use xlink:href="#DejaVuSans-20" transform="translate(1870.947266 0)"/>
     <use xlink:href="#DejaVuSans-63" transform="translate(1902.734375 0)"/>
     <use xlink:href="#DejaVuSans-6f" transform="translate(1957.714844 0)"/>
     <use xlink:href="#DejaVuSans-6c" transform="translate(2018.896484 0)"/>
     <use xlink:href="#DejaVuSans-75" transform="translate(2046.679688 0)"/>
     <use xlink:href="#DejaVuSans-6d" transform="translate(2110.058594 0)"/>
     <use xlink:href="#DejaVuSans-6e" transform="translate(2207.470703 0)"/>
     <use xlink:href="#DejaVuSans-20" transform="translate(2270.849609 0)"/>
     <use xlink:href="#DejaVuSans-76" transform="translate(2302.636719 0)"/>
     <use xlink:href="#DejaVuSans-65" transform="translate(2361.816406 0)"/>
     <use xlink:href="#DejaVuSans-63" transform="translate(2423.339844 0)"/>
     <use xlink:href="#DejaVuSans-74" transform="translate(2478.320312 0)"/>
     <use xlink:href="#DejaVuSans-6f" transform="translate(2517.529297 0)"/>
     <use xlink:href="#DejaVuSans-72" transform="translate(2578.710938 0)"/>
     <use xlink:href="#DejaVuSans-2e" transform="translate(2610.699219 0)"/>
    </g>
    <!-- The additional feature holds the label information. -->
    <g style="fill: #333333" transform="translate(336.593438 579.76275) scale(0.12 -0.12)">
     <defs>
      <path id="DejaVuSans-54" d="M -19 4666 
L 3928 4666 
L 3928 4134 
L 2272 4134 
L 2272 0 
L 1638 0 
L 1638 4134 
L -19 4134 
L -19 4666 
z
" transform="scale(0.015625)"/>
     </defs>
     <use xlink:href="#DejaVuSans-54"/>
     <use xlink:href="#DejaVuSans-68" transform="translate(61.083984 0)"/>
     <use xlink:href="#DejaVuSans-65" transform="translate(124.462891 0)"/>
     <use xlink:href="#DejaVuSans-20" transform="translate(185.986328 0)"/>
     <use xlink:href="#DejaVuSans-61" transform="translate(217.773438 0)"/>
     <use xlink:href="#DejaVuSans-64" transform="translate(279.052734 0)"/>
     <use xlink:href="#DejaVuSans-64" transform="translate(342.529297 0)"/>
     <use xlink:href="#DejaVuSans-69" transform="translate(406.005859 0)"/>
     <use xlink:href="#DejaVuSans-74" transform="translate(433.789062 0)"/>
     <use xlink:href="#DejaVuSans-69" transform="translate(472.998047 0)"/>
     <use xlink:href="#DejaVuSans-6f" transform="translate(500.78125 0)"/>
     <use xlink:href="#DejaVuSans-6e" transform="translate(561.962891 0)"/>
     <use xlink:href="#DejaVuSans-61" transform="translate(625.341797 0)"/>
     <use xlink:href="#DejaVuSans-6c" transform="translate(686.621094 0)"/>
     <use xlink:href="#DejaVuSans-20" transform="translate(714.404297 0)"/>
     <use xlink:href="#DejaVuSans-66" transform="translate(746.191406 0)"/>
     <use xlink:href="#DejaVuSans-65" transform="translate(781.396484 0)"/>
     <use xlink:href="#DejaVuSans-61" transform="translate(842.919922 0)"/>
     <use xlink:href="#DejaVuSans-74" transform="translate(904.199219 0)"/>
     <use xlink:href="#DejaVuSans-75" transform="translate(943.408203 0)"/>
     <use xlink:href="#DejaVuSans-72" transform="translate(1006.787109 0)"/>
     <use xlink:href="#DejaVuSans-65" transform="translate(1045.650391 0)"/>
     <use xlink:href="#DejaVuSans-20" transform="translate(1107.173828 0)"/>
     <use xlink:href="#DejaVuSans-68" transform="translate(1138.960938 0)"/>
     <use xlink:href="#DejaVuSans-6f" transform="translate(1202.339844 0)"/>
     <use xlink:href="#DejaVuSans-6c" transform="translate(1263.521484 0)"/>
     <use xlink:href="#DejaVuSans-64" transform="translate(1291.304688 0)"/>
     <use xlink:href="#DejaVuSans-73" transform="translate(1354.78125 0)"/>
     <use xlink:href="#DejaVuSans-20" transform="translate(1406.880859 0)"/>
     <use xlink:href="#DejaVuSans-74" transform="translate(1438.667969 0)"/>
     <use xlink:href="#DejaVuSans-68" transform="translate(1477.876953 0)"/>
     <use xlink:href="#DejaVuSans-65" transform="translate(1541.255859 0)"/>
     <use xlink:href="#DejaVuSans-20" transform="translate(1602.779297 0)"/>
     <use xlink:href="#DejaVuSans-6c" transform="translate(1634.566406 0)"/>
     <use xlink:href="#DejaVuSans-61" transform="translate(1662.349609 0)"/>
     <use xlink:href="#DejaVuSans-62" transform="translate(1723.628906 0)"/>
     <use xlink:href="#DejaVuSans-65" transform="translate(1787.105469 0)"/>
     <use xlink:href="#DejaVuSans-6c" transform="translate(1848.628906 0)"/>
     <use xlink:href="#DejaVuSans-20" transform="translate(1876.412109 0)"/>
     <use xlink:href="#DejaVuSans-69" transform="translate(1908.199219 0)"/>
     <use xlink:href="#DejaVuSans-6e" transform="translate(1935.982422 0)"/>
     <use xlink:href="#DejaVuSans-66" transform="translate(1999.361328 0)"/>
     <use xlink:href="#DejaVuSans-6f" transform="translate(2034.566406 0)"/>
     <use xlink:href="#DejaVuSans-72" transform="translate(2095.748047 0)"/>
     <use xlink:href="#DejaVuSans-6d" transform="translate(2135.111328 0)"/>
     <use xlink:href="#DejaVuSans-61" transform="translate(2232.523438 0)"/>
     <use xlink:href="#DejaVuSans-74" transform="translate(2293.802734 0)"/>
     <use xlink:href="#DejaVuSans-69" transform="translate(2333.011719 0)"/>
     <use xlink:href="#DejaVuSans-6f" transform="translate(2360.794922 0)"/>
     <use xlink:href="#DejaVuSans-6e" transform="translate(2421.976562 0)"/>
     <use xlink:href="#DejaVuSans-2e" transform="translate(2485.355469 0)"/>
    </g>
   </g>
   <g id="text_22">
    <!-- Multi-Head Self-Attention -->
    <g transform="translate(569.544375 421.427187) scale(0.13 -0.13)">
     <defs>
      <path id="DejaVuSans-2d" d="M 313 2009 
L 1997 2009 
L 1997 1497 
L 313 1497 
L 313 2009 
z
" transform="scale(0.015625)"/>
      <path id="DejaVuSans-53" d="M 3425 4513 
L 3425 3897 
Q 3066 4069 2747 4153 
Q 2428 4238 2131 4238 
Q 1616 4238 1336 4038 
Q 1056 3838 1056 3469 
Q 1056 3159 1242 3001 
Q 1428 2844 1947 2747 
L 2328 2669 
Q 3034 2534 3370 2195 
Q 3706 1856 3706 1288 
Q 3706 609 3251 259 
Q 2797 -91 1919 -91 
Q 1588 -91 1214 -16 
Q 841 59 441 206 
L 441 856 
Q 825 641 1194 531 
Q 1563 422 1919 422 
Q 2459 422 2753 634 
Q 3047 847 3047 1241 
Q 3047 1584 2836 1778 
Q 2625 1972 2144 2069 
L 1759 2144 
Q 1053 2284 737 2584 
Q 422 2884 422 3419 
Q 422 4038 858 4394 
Q 1294 4750 2059 4750 
Q 2388 4750 2728 4690 
Q 3069 4631 3425 4513 
z
" transform="scale(0.015625)"/>
      <path id="DejaVuSans-41" d="M 2188 4044 
L 1331 1722 
L 3047 1722 
L 2188 4044 
z
M 1831 4666 
L 2547 4666 
L 4325 0 
L 3669 0 
L 3244 1197 
L 1141 1197 
L 716 0 
L 50 0 
L 1831 4666 
z
" transform="scale(0.015625)"/>
     </defs>
     <use xlink:href="#DejaVuSans-4d"/>
     <use xlink:href="#DejaVuSans-75" transform="translate(86.279297 0)"/>
     <use xlink:href="#DejaVuSans-6c" transform="translate(149.658203 0)"/>
     <use xlink:href="#DejaVuSans-74" transform="translate(177.441406 0)"/>
     <use xlink:href="#DejaVuSans-69" transform="translate(216.650391 0)"/>
     <use xlink:href="#DejaVuSans-2d" transform="translate(244.433594 0)"/>
     <use xlink:href="#DejaVuSans-48" transform="translate(280.517578 0)"/>
     <use xlink:href="#DejaVuSans-65" transform="translate(355.712891 0)"/>
     <use xlink:href="#DejaVuSans-61" transform="translate(417.236328 0)"/>
     <use xlink:href="#DejaVuSans-64" transform="translate(478.515625 0)"/>
     <use xlink:href="#DejaVuSans-20" transform="translate(541.992188 0)"/>
     <use xlink:href="#DejaVuSans-53" transform="translate(573.779297 0)"/>
     <use xlink:href="#DejaVuSans-65" transform="translate(637.255859 0)"/>
     <use xlink:href="#DejaVuSans-6c" transform="translate(698.779297 0)"/>
     <use xlink:href="#DejaVuSans-66" transform="translate(726.5625 0)"/>
     <use xlink:href="#DejaVuSans-2d" transform="translate(756.267578 0)"/>
     <use xlink:href="#DejaVuSans-41" transform="translate(790.101562 0)"/>
     <use xlink:href="#DejaVuSans-74" transform="translate(856.759766 0)"/>
     <use xlink:href="#DejaVuSans-74" transform="translate(895.96875 0)"/>
     <use xlink:href="#DejaVuSans-65" transform="translate(935.177734 0)"/>
     <use xlink:href="#DejaVuSans-6e" transform="translate(996.701172 0)"/>
     <use xlink:href="#DejaVuSans-74" transform="translate(1060.080078 0)"/>
     <use xlink:href="#DejaVuSans-69" transform="translate(1099.289062 0)"/>
     <use xlink:href="#DejaVuSans-6f" transform="translate(1127.072266 0)"/>
     <use xlink:href="#DejaVuSans-6e" transform="translate(1188.253906 0)"/>
    </g>
   </g>
   <g id="text_23">
    <!-- Feed-Forward Networks -->
    <g transform="translate(574.320859 317.027187) scale(0.13 -0.13)">
     <defs>
      <path id="DejaVuSans-6b" d="M 581 4863 
L 1159 4863 
L 1159 1991 
L 2875 3500 
L 3609 3500 
L 1753 1863 
L 3688 0 
L 2938 0 
L 1159 1709 
L 1159 0 
L 581 0 
L 581 4863 
z
" transform="scale(0.015625)"/>
     </defs>
     <use xlink:href="#DejaVuSans-46"/>
     <use xlink:href="#DejaVuSans-65" transform="translate(52.019531 0)"/>
     <use xlink:href="#DejaVuSans-65" transform="translate(113.542969 0)"/>
     <use xlink:href="#DejaVuSans-64" transform="translate(175.066406 0)"/>
     <use xlink:href="#DejaVuSans-2d" transform="translate(238.542969 0)"/>
     <use xlink:href="#DejaVuSans-46" transform="translate(274.626953 0)"/>
     <use xlink:href="#DejaVuSans-6f" transform="translate(328.521484 0)"/>
     <use xlink:href="#DejaVuSans-72" transform="translate(389.703125 0)"/>
     <use xlink:href="#DejaVuSans-77" transform="translate(430.816406 0)"/>
     <use xlink:href="#DejaVuSans-61" transform="translate(512.603516 0)"/>
     <use xlink:href="#DejaVuSans-72" transform="translate(573.882812 0)"/>
     <use xlink:href="#DejaVuSans-64" transform="translate(613.246094 0)"/>
     <use xlink:href="#DejaVuSans-20" transform="translate(676.722656 0)"/>
     <use xlink:href="#DejaVuSans-4e" transform="translate(708.509766 0)"/>
     <use xlink:href="#DejaVuSans-65" transform="translate(783.314453 0)"/>
     <use xlink:href="#DejaVuSans-74" transform="translate(844.837891 0)"/>
     <use xlink:href="#DejaVuSans-77" transform="translate(884.046875 0)"/>
     <use xlink:href="#DejaVuSans-6f" transform="translate(965.833984 0)"/>
     <use xlink:href="#DejaVuSans-72" transform="translate(1027.015625 0)"/>
     <use xlink:href="#DejaVuSans-6b" transform="translate(1068.128906 0)"/>
     <use xlink:href="#DejaVuSans-73" transform="translate(1126.039062 0)"/>
    </g>
   </g>
   <g id="text_24">
    <!-- Layer Normalization -->
    <g transform="translate(585.540469 212.627187) scale(0.13 -0.13)">
     <defs>
      <path id="DejaVuSans-4c" d="M 628 4666 
L 1259 4666 
L 1259 531 
L 3531 531 
L 3531 0 
L 628 0 
L 628 4666 
z
" transform="scale(0.015625)"/>
     </defs>
     <use xlink:href="#DejaVuSans-4c"/>
     <use xlink:href="#DejaVuSans-61" transform="translate(55.712891 0)"/>
     <use xlink:href="#DejaVuSans-79" transform="translate(116.992188 0)"/>
     <use xlink:href="#DejaVuSans-65" transform="translate(176.171875 0)"/>
     <use xlink:href="#DejaVuSans-72" transform="translate(237.695312 0)"/>
     <use xlink:href="#DejaVuSans-20" transform="translate(278.808594 0)"/>
     <use xlink:href="#DejaVuSans-4e" transform="translate(310.595703 0)"/>
     <use xlink:href="#DejaVuSans-6f" transform="translate(385.400391 0)"/>
     <use xlink:href="#DejaVuSans-72" transform="translate(446.582031 0)"/>
     <use xlink:href="#DejaVuSans-6d" transform="translate(485.945312 0)"/>
     <use xlink:href="#DejaVuSans-61" transform="translate(583.357422 0)"/>
     <use xlink:href="#DejaVuSans-6c" transform="translate(644.636719 0)"/>
     <use xlink:href="#DejaVuSans-69" transform="translate(672.419922 0)"/>
     <use xlink:href="#DejaVuSans-7a" transform="translate(700.203125 0)"/>
     <use xlink:href="#DejaVuSans-61" transform="translate(752.693359 0)"/>
     <use xlink:href="#DejaVuSans-74" transform="translate(813.972656 0)"/>
     <use xlink:href="#DejaVuSans-69" transform="translate(853.181641 0)"/>
     <use xlink:href="#DejaVuSans-6f" transform="translate(880.964844 0)"/>
     <use xlink:href="#DejaVuSans-6e" transform="translate(942.146484 0)"/>
    </g>
   </g>
   <g id="text_25">
    <!-- Uncertainty Estimates -->
    <g transform="translate(924.164219 424.907187) scale(0.13 -0.13)">
     <defs>
      <path id="DejaVuSans-55" d="M 556 4666 
L 1191 4666 
L 1191 1831 
Q 1191 1081 1462 751 
Q 1734 422 2344 422 
Q 2950 422 3222 751 
Q 3494 1081 3494 1831 
L 3494 4666 
L 4128 4666 
L 4128 1753 
Q 4128 841 3676 375 
Q 3225 -91 2344 -91 
Q 1459 -91 1007 375 
Q 556 841 556 1753 
L 556 4666 
z
" transform="scale(0.015625)"/>
     </defs>
     <use xlink:href="#DejaVuSans-55"/>
     <use xlink:href="#DejaVuSans-6e" transform="translate(73.193359 0)"/>
     <use xlink:href="#DejaVuSans-63" transform="translate(136.572266 0)"/>
     <use xlink:href="#DejaVuSans-65" transform="translate(191.552734 0)"/>
     <use xlink:href="#DejaVuSans-72" transform="translate(253.076172 0)"/>
     <use xlink:href="#DejaVuSans-74" transform="translate(294.189453 0)"/>
     <use xlink:href="#DejaVuSans-61" transform="translate(333.398438 0)"/>
     <use xlink:href="#DejaVuSans-69" transform="translate(394.677734 0)"/>
     <use xlink:href="#DejaVuSans-6e" transform="translate(422.460938 0)"/>
     <use xlink:href="#DejaVuSans-74" transform="translate(485.839844 0)"/>
     <use xlink:href="#DejaVuSans-79" transform="translate(525.048828 0)"/>
     <use xlink:href="#DejaVuSans-20" transform="translate(584.228516 0)"/>
     <use xlink:href="#DejaVuSans-45" transform="translate(616.015625 0)"/>
     <use xlink:href="#DejaVuSans-73" transform="translate(679.199219 0)"/>
     <use xlink:href="#DejaVuSans-74" transform="translate(731.298828 0)"/>
     <use xlink:href="#DejaVuSans-69" transform="translate(770.507812 0)"/>
     <use xlink:href="#DejaVuSans-6d" transform="translate(798.291016 0)"/>
     <use xlink:href="#DejaVuSans-61" transform="translate(895.703125 0)"/>
     <use xlink:href="#DejaVuSans-74" transform="translate(956.982422 0)"/>
     <use xlink:href="#DejaVuSans-65" transform="translate(996.191406 0)"/>
     <use xlink:href="#DejaVuSans-73" transform="translate(1057.714844 0)"/>
    </g>
   </g>
   <g id="text_26">
    <!-- Probability Predictions -->
    <g transform="translate(924.202813 327.467187) scale(0.13 -0.13)">
     <use xlink:href="#DejaVuSans-50"/>
     <use xlink:href="#DejaVuSans-72" transform="translate(58.552734 0)"/>
     <use xlink:href="#DejaVuSans-6f" transform="translate(97.416016 0)"/>
     <use xlink:href="#DejaVuSans-62" transform="translate(158.597656 0)"/>
     <use xlink:href="#DejaVuSans-61" transform="translate(222.074219 0)"/>
     <use xlink:href="#DejaVuSans-62" transform="translate(283.353516 0)"/>
     <use xlink:href="#DejaVuSans-69" transform="translate(346.830078 0)"/>
     <use xlink:href="#DejaVuSans-6c" transform="translate(374.613281 0)"/>
     <use xlink:href="#DejaVuSans-69" transform="translate(402.396484 0)"/>
     <use xlink:href="#DejaVuSans-74" transform="translate(430.179688 0)"/>
     <use xlink:href="#DejaVuSans-79" transform="translate(469.388672 0)"/>
     <use xlink:href="#DejaVuSans-20" transform="translate(528.568359 0)"/>
     <use xlink:href="#DejaVuSans-50" transform="translate(560.355469 0)"/>
     <use xlink:href="#DejaVuSans-72" transform="translate(618.908203 0)"/>
     <use xlink:href="#DejaVuSans-65" transform="translate(657.771484 0)"/>
     <use xlink:href="#DejaVuSans-64" transform="translate(719.294922 0)"/>
     <use xlink:href="#DejaVuSans-69" transform="translate(782.771484 0)"/>
     <use xlink:href="#DejaVuSans-63" transform="translate(810.554688 0)"/>
     <use xlink:href="#DejaVuSans-74" transform="translate(865.535156 0)"/>
     <use xlink:href="#DejaVuSans-69" transform="translate(904.744141 0)"/>
     <use xlink:href="#DejaVuSans-6f" transform="translate(932.527344 0)"/>
     <use xlink:href="#DejaVuSans-6e" transform="translate(993.708984 0)"/>
     <use xlink:href="#DejaVuSans-73" transform="translate(1057.087891 0)"/>
    </g>
   </g>
   <g id="text_27">
    <!-- Classification Head -->
    <g transform="translate(934.229063 230.027187) scale(0.13 -0.13)">
     <defs>
      <path id="DejaVuSans-43" d="M 4122 4306 
L 4122 3641 
Q 3803 3938 3442 4084 
Q 3081 4231 2675 4231 
Q 1875 4231 1450 3742 
Q 1025 3253 1025 2328 
Q 1025 1406 1450 917 
Q 1875 428 2675 428 
Q 3081 428 3442 575 
Q 3803 722 4122 1019 
L 4122 359 
Q 3791 134 3420 21 
Q 3050 -91 2638 -91 
Q 1578 -91 968 557 
Q 359 1206 359 2328 
Q 359 3453 968 4101 
Q 1578 4750 2638 4750 
Q 3056 4750 3426 4639 
Q 3797 4528 4122 4306 
z
" transform="scale(0.015625)"/>
     </defs>
     <use xlink:href="#DejaVuSans-43"/>
     <use xlink:href="#DejaVuSans-6c" transform="translate(69.824219 0)"/>
     <use xlink:href="#DejaVuSans-61" transform="translate(97.607422 0)"/>
     <use xlink:href="#DejaVuSans-73" transform="translate(158.886719 0)"/>
     <use xlink:href="#DejaVuSans-73" transform="translate(210.986328 0)"/>
     <use xlink:href="#DejaVuSans-69" transform="translate(263.085938 0)"/>
     <use xlink:href="#DejaVuSans-66" transform="translate(290.869141 0)"/>
     <use xlink:href="#DejaVuSans-69" transform="translate(326.074219 0)"/>
     <use xlink:href="#DejaVuSans-63" transform="translate(353.857422 0)"/>
     <use xlink:href="#DejaVuSans-61" transform="translate(408.837891 0)"/>
     <use xlink:href="#DejaVuSans-74" transform="translate(470.117188 0)"/>
     <use xlink:href="#DejaVuSans-69" transform="translate(509.326172 0)"/>
     <use xlink:href="#DejaVuSans-6f" transform="translate(537.109375 0)"/>
     <use xlink:href="#DejaVuSans-6e" transform="translate(598.291016 0)"/>
     <use xlink:href="#DejaVuSans-20" transform="translate(661.669922 0)"/>
     <use xlink:href="#DejaVuSans-48" transform="translate(693.457031 0)"/>
     <use xlink:href="#DejaVuSans-65" transform="translate(768.652344 0)"/>
     <use xlink:href="#DejaVuSans-61" transform="translate(830.175781 0)"/>
     <use xlink:href="#DejaVuSans-64" transform="translate(891.455078 0)"/>
    </g>
   </g>
   <g id="patch_27">
    <path d="M 455.082747 320.4 
Q 487.620373 320.4 517.362914 320.4 
" style="fill: none; stroke: #444444; stroke-width: 2.5; stroke-linecap: round"/>
    <path d="M 509.362914 316.4 
L 517.362914 320.4 
L 509.362914 324.4 
" style="fill: none; stroke: #444444; stroke-width: 2.5; stroke-linecap: round"/>
   </g>
   <g id="patch_28">
    <path d="M 800.478147 320.4 
Q 839.300148 320.4 875.327063 320.4 
" style="fill: none; stroke: #444444; stroke-width: 2.5; stroke-linecap: round"/>
    <path d="M 867.327063 316.4 
L 875.327063 320.4 
L 867.327063 324.4 
" style="fill: none; stroke: #444444; stroke-width: 2.5; stroke-linecap: round"/>
   </g>
   <g id="text_28">
    <!-- N Layers -->
    <g style="fill: #d35400" transform="translate(785.92 160.32) scale(0.1 -0.1)">
     <use xlink:href="#DejaVuSans-Bold-4e"/>
     <use xlink:href="#DejaVuSans-Bold-20" transform="translate(83.691406 0)"/>
     <use xlink:href="#DejaVuSans-Bold-4c" transform="translate(118.505859 0)"/>
     <use xlink:href="#DejaVuSans-Bold-61" transform="translate(182.226562 0)"/>
     <use xlink:href="#DejaVuSans-Bold-79" transform="translate(246.582031 0)"/>
     <use xlink:href="#DejaVuSans-Bold-65" transform="translate(311.767578 0)"/>
     <use xlink:href="#DejaVuSans-Bold-72" transform="translate(379.589844 0)"/>
     <use xlink:href="#DejaVuSans-Bold-73" transform="translate(428.90625 0)"/>
    </g>
   </g>
  </g>
 </g>
 <defs>
  <clipPath id="p2d32643a3d">
   <rect x="7.2" y="7.2" width="1130.4" height="626.4"/>
  </clipPath>
 </defs>
</svg>
