<?xml version="1.0" encoding="utf-8" standalone="no"?>
<!DOCTYPE svg PUBLIC "-//W3C//DTD SVG 1.1//EN"
  "http://www.w3.org/Graphics/SVG/1.1/DTD/svg11.dtd">
<svg xmlns:xlink="http://www.w3.org/1999/xlink" width="247.44pt" height="72.96pt" viewBox="0 0 247.44 72.96" xmlns="http://www.w3.org/2000/svg" version="1.1">
 <metadata>
  <rdf:RDF xmlns:dc="http://purl.org/dc/elements/1.1/" xmlns:cc="http://creativecommons.org/ns#" xmlns:rdf="http://www.w3.org/1999/02/22-rdf-syntax-ns#">
   <cc:Work>
    <dc:type rdf:resource="http://purl.org/dc/dcmitype/StillImage"/>
    <dc:date>2026-05-23T13:59:53.830525</dc:date>
    <dc:format>image/svg+xml</dc:format>
    <dc:creator>
     <cc:Agent>
      <dc:title>Matplotlib v3.10.8, https://matplotlib.org/</dc:title>
     </cc:Agent>
    </dc:creator>
   </cc:Work>
  </rdf:RDF>
 </metadata>
 <defs>
  <style type="text/css">*{stroke-linejoin: round; stroke-linecap: butt}</style>
 </defs>
 <g id="figure_1">
  <g id="patch_1">
   <path d="M 0 72.96 
L 247.44 72.96 
L 247.44 -0 
L 0 -0 
L 0 72.96 
z
" style="fill: none; opacity: 0"/>
  </g>
  <g id="text_1">
   <!-- $P(x_i) = \sum_{j=1}^{n} w_j \cdot P(x_i | \mathcal{C}_j)$ -->
   <g transform="translate(3.6 42) scale(0.24 -0.24)">
    <defs>
     <path id="DejaVuSans-Oblique-50" d="M 1081 4666 
L 2541 4666 
Q 3178 4666 3512 4369 
Q 3847 4072 3847 3500 
Q 3847 2731 3353 2303 
Q 2859 1875 1966 1875 
L 1172 1875 
L 806 0 
L 172 0 
L 1081 4666 
z
M 1613 4147 
L 1275 2394 
L 2069 2394 
Q 2606 2394 2893 2669 
Q 3181 2944 3181 3456 
Q 3181 3784 2986 3965 
Q 2791 4147 2438 4147 
L 1613 4147 
z
" transform="scale(0.015625)"/>
     <path id="DejaVuSans-28" d="M 1984 4856 
Q 1566 4138 1362 3434 
Q 1159 2731 1159 2009 
Q 1159 1288 1364 580 
Q 1569 -128 1984 -844 
L 1484 -844 
Q 1016 -109 783 600 
Q 550 1309 550 2009 
Q 550 2706 781 3412 
Q 1013 4119 1484 4856 
L 1984 4856 
z
" transform="scale(0.015625)"/>
     <path id="DejaVuSans-Oblique-78" d="M 3841 3500 
L 2234 1784 
L 3219 0 
L 2559 0 
L 1819 1388 
L 531 0 
L -166 0 
L 1556 1844 
L 641 3500 
L 1300 3500 
L 1972 2234 
L 3144 3500 
L 3841 3500 
z
" transform="scale(0.015625)"/>
     <path id="DejaVuSans-Oblique-69" d="M 1172 4863 
L 1747 4863 
L 1606 4134 
L 1031 4134 
L 1172 4863 
z
M 909 3500 
L 1484 3500 
L 800 0 
L 225 0 
L 909 3500 
z
" transform="scale(0.015625)"/>
     <path id="DejaVuSans-29" d="M 513 4856 
L 1013 4856 
Q 1481 4119 1714 3412 
Q 1947 2706 1947 2009 
Q 1947 1309 1714 600 
Q 1481 -109 1013 -844 
L 513 -844 
Q 928 -128 1133 580 
Q 1338 1288 1338 2009 
Q 1338 2731 1133 3434 
Q 928 4138 513 4856 
z
" transform="scale(0.015625)"/>
     <path id="DejaVuSans-3d" d="M 678 2906 
L 4684 2906 
L 4684 2381 
L 678 2381 
L 678 2906 
z
M 678 1631 
L 4684 1631 
L 4684 1100 
L 678 1100 
L 678 1631 
z
" transform="scale(0.015625)"/>
     <path id="DejaVuSans-Oblique-6e" d="M 3566 2113 
L 3156 0 
L 2578 0 
L 2988 2091 
Q 3016 2238 3031 2350 
Q 3047 2463 3047 2528 
Q 3047 2791 2881 2937 
Q 2716 3084 2419 3084 
Q 1956 3084 1622 2776 
Q 1288 2469 1184 1941 
L 800 0 
L 225 0 
L 903 3500 
L 1478 3500 
L 1363 2950 
Q 1603 3253 1940 3418 
Q 2278 3584 2650 3584 
Q 3113 3584 3367 3334 
Q 3622 3084 3622 2631 
Q 3622 2519 3608 2391 
Q 3594 2263 3566 2113 
z
" transform="scale(0.015625)"/>
     <path id="DejaVuSansDisplay-2211" d="M 244 6509 
L 5803 6509 
L 5803 5656 
L 1566 5656 
L 4534 2488 
L 1469 -888 
L 5919 -888 
L 5919 -1738 
L 109 -1738 
L 109 -1078 
L 3316 2463 
L 244 5728 
L 244 6509 
z
" transform="scale(0.015625)"/>
     <path id="DejaVuSans-Oblique-6a" d="M 928 3500 
L 1503 3500 
L 813 -63 
L 809 -78 
Q 694 -675 544 -897 
Q 403 -1106 132 -1218 
Q -138 -1331 -506 -1331 
L -722 -1331 
L -628 -844 
L -481 -844 
Q -144 -844 -1 -703 
Q 141 -563 238 -63 
L 928 3500 
z
M 1197 4863 
L 1772 4863 
L 1631 4134 
L 1056 4134 
L 1197 4863 
z
" transform="scale(0.015625)"/>
     <path id="DejaVuSans-31" d="M 794 531 
L 1825 531 
L 1825 4091 
L 703 3866 
L 703 4441 
L 1819 4666 
L 2450 4666 
L 2450 531 
L 3481 531 
L 3481 0 
L 794 0 
L 794 531 
z
" transform="scale(0.015625)"/>
     <path id="DejaVuSans-Oblique-77" d="M 544 3500 
L 1113 3500 
L 1259 684 
L 2566 3500 
L 3231 3500 
L 3425 684 
L 4666 3500 
L 5241 3500 
L 3641 0 
L 2969 0 
L 2797 2900 
L 1459 0 
L 781 0 
L 544 3500 
z
" transform="scale(0.015625)"/>
     <path id="DejaVuSans-22c5" d="M 684 2619 
L 1344 2619 
L 1344 1825 
L 684 1825 
L 684 2619 
z
" transform="scale(0.015625)"/>
     <path id="DejaVuSans-7c" d="M 1344 4891 
L 1344 -1509 
L 813 -1509 
L 813 4891 
L 1344 4891 
z
" transform="scale(0.015625)"/>
     <path id="STIXNonUnicode-Italic-e22f" d="M 3290 896 
L 3386 794 
Q 3354 742 3309 684 
Q 3264 627 3110 476 
Q 2957 326 2787 217 
Q 2618 109 2346 19 
Q 2074 -70 1786 -70 
Q 1158 -70 716 298 
Q 275 666 275 1402 
Q 275 2432 947 3232 
Q 1619 4032 2560 4243 
Q 2803 4294 2989 4294 
Q 3334 4294 3542 4134 
Q 3750 3974 3750 3693 
Q 3750 3520 3609 3334 
Q 3469 3149 3270 3149 
Q 3104 3149 3008 3245 
Q 2912 3341 2912 3482 
Q 2912 3590 2963 3664 
Q 3014 3738 3072 3763 
Q 3130 3789 3181 3827 
Q 3232 3866 3232 3923 
Q 3232 3987 3136 4028 
Q 3040 4070 2925 4070 
Q 2406 4070 1939 3708 
Q 1472 3347 1210 2701 
Q 960 2074 960 1370 
Q 960 787 1251 496 
Q 1542 205 1997 205 
Q 2637 205 3290 896 
z
" transform="scale(0.015625)"/>
    </defs>
    <use xlink:href="#DejaVuSans-Oblique-50" transform="translate(0 0.346875)"/>
    <use xlink:href="#DejaVuSans-28" transform="translate(60.302734 0.346875)"/>
    <use xlink:href="#DejaVuSans-Oblique-78" transform="translate(99.316406 0.346875)"/>
    <use xlink:href="#DejaVuSans-Oblique-69" transform="translate(158.496094 -16.059375) scale(0.7)"/>
    <use xlink:href="#DejaVuSans-29" transform="translate(180.678711 0.346875)"/>
    <use xlink:href="#DejaVuSans-3d" transform="translate(239.174805 0.346875)"/>
    <use xlink:href="#DejaVuSans-Oblique-6e" transform="translate(395.446289 120.8) scale(0.7)"/>
    <use xlink:href="#DejaVuSansDisplay-2211" transform="translate(372.446289 0.346875)"/>
    <use xlink:href="#DejaVuSans-Oblique-6a" transform="translate(342.446289 -98.748438) scale(0.7)"/>
    <use xlink:href="#DejaVuSans-3d" transform="translate(375.532227 -98.748438) scale(0.7)"/>
    <use xlink:href="#DejaVuSans-31" transform="translate(447.822266 -98.748438) scale(0.7)"/>
    <use xlink:href="#DejaVuSans-Oblique-77" transform="translate(492.358398 0.346875)"/>
    <use xlink:href="#DejaVuSans-Oblique-6a" transform="translate(574.145508 -16.059375) scale(0.7)"/>
    <use xlink:href="#DejaVuSans-22c5" transform="translate(615.810547 0.346875)"/>
    <use xlink:href="#DejaVuSans-Oblique-50" transform="translate(667.080078 0.346875)"/>
    <use xlink:href="#DejaVuSans-28" transform="translate(727.382812 0.346875)"/>
    <use xlink:href="#DejaVuSans-Oblique-78" transform="translate(766.396484 0.346875)"/>
    <use xlink:href="#DejaVuSans-Oblique-69" transform="translate(825.576172 -16.059375) scale(0.7)"/>
    <use xlink:href="#DejaVuSans-7c" transform="translate(847.758789 0.346875)"/>
    <use xlink:href="#STIXNonUnicode-Italic-e22f" transform="translate(881.450195 0.346875)"/>
    <use xlink:href="#DejaVuSans-Oblique-6a" transform="translate(939.30722 -16.059375) scale(0.7)"/>
    <use xlink:href="#DejaVuSans-29" transform="translate(961.489838 0.346875)"/>
   </g>
  </g>
 </g>
</svg>
