<?xml version="1.0" encoding="utf-8" standalone="no"?>
<!DOCTYPE svg PUBLIC "-//W3C//DTD SVG 1.1//EN"
  "http://www.w3.org/Graphics/SVG/1.1/DTD/svg11.dtd">
<svg xmlns:xlink="http://www.w3.org/1999/xlink" width="422.88pt" height="72.96pt" viewBox="0 0 422.88 72.96" xmlns="http://www.w3.org/2000/svg" version="1.1">
 <metadata>
  <rdf:RDF xmlns:dc="http://purl.org/dc/elements/1.1/" xmlns:cc="http://creativecommons.org/ns#" xmlns:rdf="http://www.w3.org/1999/02/22-rdf-syntax-ns#">
   <cc:Work>
    <dc:type rdf:resource="http://purl.org/dc/dcmitype/StillImage"/>
    <dc:date>2026-05-11T14:31:16.838155</dc:date>
    <dc:format>image/svg+xml</dc:format>
    <dc:creator>
     <cc:Agent>
      <dc:title>Matplotlib v3.10.7, https://matplotlib.org/</dc:title>
     </cc:Agent>
    </dc:creator>
   </cc:Work>
  </rdf:RDF>
 </metadata>
 <defs>
  <style type="text/css">*{stroke-linejoin: round; stroke-linecap: butt}</style>
 </defs>
 <g id="figure_1">
  <g id="patch_1">
   <path d="M 0 72.96 
L 422.88 72.96 
L 422.88 -0 
L 0 -0 
L 0 72.96 
z
" style="fill: none; opacity: 0"/>
  </g>
  <g id="text_1">
   <!-- $\log P(x_i) = \sum_{j=1}^{n} w_j \cdot \log P(x_i | \mathcal{C}_j) + \text{const}$ -->
   <g transform="translate(3.6 42) scale(0.24 -0.24)">
    <defs>
     <path id="DejaVuSans-6c" d="M 603 4863 
L 1178 4863 
L 1178 0 
L 603 0 
L 603 4863 
z
" transform="scale(0.015625)"/>
     <path id="DejaVuSans-6f" d="M 1959 3097 
Q 1497 3097 1228 2736 
Q 959 2375 959 1747 
Q 959 1119 1226 758 
Q 1494 397 1959 397 
Q 2419 397 2687 759 
Q 2956 1122 2956 1747 
Q 2956 2369 2687 2733 
Q 2419 3097 1959 3097 
z
M 1959 3584 
Q 2709 3584 3137 3096 
Q 3566 2609 3566 1747 
Q 3566 888 3137 398 
Q 2709 -91 1959 -91 
Q 1206 -91 779 398 
Q 353 888 353 1747 
Q 353 2609 779 3096 
Q 1206 3584 1959 3584 
z
" transform="scale(0.015625)"/>
     <path id="DejaVuSans-67" d="M 2906 1791 
Q 2906 2416 2648 2759 
Q 2391 3103 1925 3103 
Q 1463 3103 1205 2759 
Q 947 2416 947 1791 
Q 947 1169 1205 825 
Q 1463 481 1925 481 
Q 2391 481 2648 825 
Q 2906 1169 2906 1791 
z
M 3481 434 
Q 3481 -459 3084 -895 
Q 2688 -1331 1869 -1331 
Q 1566 -1331 1297 -1286 
Q 1028 -1241 775 -1147 
L 775 -588 
Q 1028 -725 1275 -790 
Q 1522 -856 1778 -856 
Q 2344 -856 2625 -561 
Q 2906 -266 2906 331 
L 2906 616 
Q 2728 306 2450 153 
Q 2172 0 1784 0 
Q 1141 0 747 490 
Q 353 981 353 1791 
Q 353 2603 747 3093 
Q 1141 3584 1784 3584 
Q 2172 3584 2450 3431 
Q 2728 3278 2906 2969 
L 2906 3500 
L 3481 3500 
L 3481 434 
z
" transform="scale(0.015625)"/>
     <path id="DejaVuSans-Oblique-50" d="M 1081 4666 
L 2541 4666 
Q 3178 4666 3512 4369 
Q 3847 4072 3847 3500 
Q 3847 2731 3353 2303 
Q 2859 1875 1966 1875 
L 1172 1875 
L 806 0 
L 172 0 
L 1081 4666 
z
M 1613 4147 
L 1275 2394 
L 2069 2394 
Q 2606 2394 2893 2669 
Q 3181 2944 3181 3456 
Q 3181 3784 2986 3965 
Q 2791 4147 2438 4147 
L 1613 4147 
z
" transform="scale(0.015625)"/>
     <path id="DejaVuSans-28" d="M 1984 4856 
Q 1566 4138 1362 3434 
Q 1159 2731 1159 2009 
Q 1159 1288 1364 580 
Q 1569 -128 1984 -844 
L 1484 -844 
Q 1016 -109 783 600 
Q 550 1309 550 2009 
Q 550 2706 781 3412 
Q 1013 4119 1484 4856 
L 1984 4856 
z
" transform="scale(0.015625)"/>
     <path id="DejaVuSans-Oblique-78" d="M 3841 3500 
L 2234 1784 
L 3219 0 
L 2559 0 
L 1819 1388 
L 531 0 
L -166 0 
L 1556 1844 
L 641 3500 
L 1300 3500 
L 1972 2234 
L 3144 3500 
L 3841 3500 
z
" transform="scale(0.015625)"/>
     <path id="DejaVuSans-Oblique-69" d="M 1172 4863 
L 1747 4863 
L 1606 4134 
L 1031 4134 
L 1172 4863 
z
M 909 3500 
L 1484 3500 
L 800 0 
L 225 0 
L 909 3500 
z
" transform="scale(0.015625)"/>
     <path id="DejaVuSans-29" d="M 513 4856 
L 1013 4856 
Q 1481 4119 1714 3412 
Q 1947 2706 1947 2009 
Q 1947 1309 1714 600 
Q 1481 -109 1013 -844 
L 513 -844 
Q 928 -128 1133 580 
Q 1338 1288 1338 2009 
Q 1338 2731 1133 3434 
Q 928 4138 513 4856 
z
" transform="scale(0.015625)"/>
     <path id="DejaVuSans-3d" d="M 678 2906 
L 4684 2906 
L 4684 2381 
L 678 2381 
L 678 2906 
z
M 678 1631 
L 4684 1631 
L 4684 1100 
L 678 1100 
L 678 1631 
z
" transform="scale(0.015625)"/>
     <path id="DejaVuSans-Oblique-6e" d="M 3566 2113 
L 3156 0 
L 2578 0 
L 2988 2091 
Q 3016 2238 3031 2350 
Q 3047 2463 3047 2528 
Q 3047 2791 2881 2937 
Q 2716 3084 2419 3084 
Q 1956 3084 1622 2776 
Q 1288 2469 1184 1941 
L 800 0 
L 225 0 
L 903 3500 
L 1478 3500 
L 1363 2950 
Q 1603 3253 1940 3418 
Q 2278 3584 2650 3584 
Q 3113 3584 3367 3334 
Q 3622 3084 3622 2631 
Q 3622 2519 3608 2391 
Q 3594 2263 3566 2113 
z
" transform="scale(0.015625)"/>
     <path id="DejaVuSansDisplay-2211" d="M 244 6509 
L 5803 6509 
L 5803 5656 
L 1566 5656 
L 4534 2488 
L 1469 -888 
L 5919 -888 
L 5919 -1738 
L 109 -1738 
L 109 -1078 
L 3316 2463 
L 244 5728 
L 244 6509 
z
" transform="scale(0.015625)"/>
     <path id="DejaVuSans-Oblique-6a" d="M 928 3500 
L 1503 3500 
L 813 -63 
L 809 -78 
Q 694 -675 544 -897 
Q 403 -1106 132 -1218 
Q -138 -1331 -506 -1331 
L -722 -1331 
L -628 -844 
L -481 -844 
Q -144 -844 -1 -703 
Q 141 -563 238 -63 
L 928 3500 
z
M 1197 4863 
L 1772 4863 
L 1631 4134 
L 1056 4134 
L 1197 4863 
z
" transform="scale(0.015625)"/>
     <path id="DejaVuSans-31" d="M 794 531 
L 1825 531 
L 1825 4091 
L 703 3866 
L 703 4441 
L 1819 4666 
L 2450 4666 
L 2450 531 
L 3481 531 
L 3481 0 
L 794 0 
L 794 531 
z
" transform="scale(0.015625)"/>
     <path id="DejaVuSans-Oblique-77" d="M 544 3500 
L 1113 3500 
L 1259 684 
L 2566 3500 
L 3231 3500 
L 3425 684 
L 4666 3500 
L 5241 3500 
L 3641 0 
L 2969 0 
L 2797 2900 
L 1459 0 
L 781 0 
L 544 3500 
z
" transform="scale(0.015625)"/>
     <path id="DejaVuSans-22c5" d="M 684 2619 
L 1344 2619 
L 1344 1825 
L 684 1825 
L 684 2619 
z
" transform="scale(0.015625)"/>
     <path id="DejaVuSans-7c" d="M 1344 4891 
L 1344 -1509 
L 813 -1509 
L 813 4891 
L 1344 4891 
z
" transform="scale(0.015625)"/>
     <path id="STIXNonUnicode-Italic-e22f" d="M 3290 896 
L 3386 794 
Q 3354 742 3309 684 
Q 3264 627 3110 476 
Q 2957 326 2787 217 
Q 2618 109 2346 19 
Q 2074 -70 1786 -70 
Q 1158 -70 716 298 
Q 275 666 275 1402 
Q 275 2432 947 3232 
Q 1619 4032 2560 4243 
Q 2803 4294 2989 4294 
Q 3334 4294 3542 4134 
Q 3750 3974 3750 3693 
Q 3750 3520 3609 3334 
Q 3469 3149 3270 3149 
Q 3104 3149 3008 3245 
Q 2912 3341 2912 3482 
Q 2912 3590 2963 3664 
Q 3014 3738 3072 3763 
Q 3130 3789 3181 3827 
Q 3232 3866 3232 3923 
Q 3232 3987 3136 4028 
Q 3040 4070 2925 4070 
Q 2406 4070 1939 3708 
Q 1472 3347 1210 2701 
Q 960 2074 960 1370 
Q 960 787 1251 496 
Q 1542 205 1997 205 
Q 2637 205 3290 896 
z
" transform="scale(0.015625)"/>
     <path id="DejaVuSans-2b" d="M 2944 4013 
L 2944 2272 
L 4684 2272 
L 4684 1741 
L 2944 1741 
L 2944 0 
L 2419 0 
L 2419 1741 
L 678 1741 
L 678 2272 
L 2419 2272 
L 2419 4013 
L 2944 4013 
z
" transform="scale(0.015625)"/>
     <path id="DejaVuSans-63" d="M 3122 3366 
L 3122 2828 
Q 2878 2963 2633 3030 
Q 2388 3097 2138 3097 
Q 1578 3097 1268 2742 
Q 959 2388 959 1747 
Q 959 1106 1268 751 
Q 1578 397 2138 397 
Q 2388 397 2633 464 
Q 2878 531 3122 666 
L 3122 134 
Q 2881 22 2623 -34 
Q 2366 -91 2075 -91 
Q 1284 -91 818 406 
Q 353 903 353 1747 
Q 353 2603 823 3093 
Q 1294 3584 2113 3584 
Q 2378 3584 2631 3529 
Q 2884 3475 3122 3366 
z
" transform="scale(0.015625)"/>
     <path id="DejaVuSans-6e" d="M 3513 2113 
L 3513 0 
L 2938 0 
L 2938 2094 
Q 2938 2591 2744 2837 
Q 2550 3084 2163 3084 
Q 1697 3084 1428 2787 
Q 1159 2491 1159 1978 
L 1159 0 
L 581 0 
L 581 3500 
L 1159 3500 
L 1159 2956 
Q 1366 3272 1645 3428 
Q 1925 3584 2291 3584 
Q 2894 3584 3203 3211 
Q 3513 2838 3513 2113 
z
" transform="scale(0.015625)"/>
     <path id="DejaVuSans-73" d="M 2834 3397 
L 2834 2853 
Q 2591 2978 2328 3040 
Q 2066 3103 1784 3103 
Q 1356 3103 1142 2972 
Q 928 2841 928 2578 
Q 928 2378 1081 2264 
Q 1234 2150 1697 2047 
L 1894 2003 
Q 2506 1872 2764 1633 
Q 3022 1394 3022 966 
Q 3022 478 2636 193 
Q 2250 -91 1575 -91 
Q 1294 -91 989 -36 
Q 684 19 347 128 
L 347 722 
Q 666 556 975 473 
Q 1284 391 1588 391 
Q 1994 391 2212 530 
Q 2431 669 2431 922 
Q 2431 1156 2273 1281 
Q 2116 1406 1581 1522 
L 1381 1569 
Q 847 1681 609 1914 
Q 372 2147 372 2553 
Q 372 3047 722 3315 
Q 1072 3584 1716 3584 
Q 2034 3584 2315 3537 
Q 2597 3491 2834 3397 
z
" transform="scale(0.015625)"/>
     <path id="DejaVuSans-74" d="M 1172 4494 
L 1172 3500 
L 2356 3500 
L 2356 3053 
L 1172 3053 
L 1172 1153 
Q 1172 725 1289 603 
Q 1406 481 1766 481 
L 2356 481 
L 2356 0 
L 1766 0 
Q 1100 0 847 248 
Q 594 497 594 1153 
L 594 3053 
L 172 3053 
L 172 3500 
L 594 3500 
L 594 4494 
L 1172 4494 
z
" transform="scale(0.015625)"/>
    </defs>
    <use xlink:href="#DejaVuSans-6c" transform="translate(0 0.346875)"/>
    <use xlink:href="#DejaVuSans-6f" transform="translate(27.783203 0.346875)"/>
    <use xlink:href="#DejaVuSans-67" transform="translate(88.964844 0.346875)"/>
    <use xlink:href="#DejaVuSans-Oblique-50" transform="translate(168.677083 0.346875)"/>
    <use xlink:href="#DejaVuSans-28" transform="translate(228.979817 0.346875)"/>
    <use xlink:href="#DejaVuSans-Oblique-78" transform="translate(267.993489 0.346875)"/>
    <use xlink:href="#DejaVuSans-Oblique-69" transform="translate(327.173176 -16.059375) scale(0.7)"/>
    <use xlink:href="#DejaVuSans-29" transform="translate(349.355793 0.346875)"/>
    <use xlink:href="#DejaVuSans-3d" transform="translate(407.851887 0.346875)"/>
    <use xlink:href="#DejaVuSans-Oblique-6e" transform="translate(564.123372 120.8) scale(0.7)"/>
    <use xlink:href="#DejaVuSansDisplay-2211" transform="translate(541.123372 0.346875)"/>
    <use xlink:href="#DejaVuSans-Oblique-6a" transform="translate(511.123372 -98.748438) scale(0.7)"/>
    <use xlink:href="#DejaVuSans-3d" transform="translate(544.209309 -98.748438) scale(0.7)"/>
    <use xlink:href="#DejaVuSans-31" transform="translate(616.499348 -98.748438) scale(0.7)"/>
    <use xlink:href="#DejaVuSans-Oblique-77" transform="translate(661.035481 0.346875)"/>
    <use xlink:href="#DejaVuSans-Oblique-6a" transform="translate(742.82259 -16.059375) scale(0.7)"/>
    <use xlink:href="#DejaVuSans-22c5" transform="translate(784.487629 0.346875)"/>
    <use xlink:href="#DejaVuSans-6c" transform="translate(835.757161 0.346875)"/>
    <use xlink:href="#DejaVuSans-6f" transform="translate(863.540364 0.346875)"/>
    <use xlink:href="#DejaVuSans-67" transform="translate(924.722004 0.346875)"/>
    <use xlink:href="#DejaVuSans-Oblique-50" transform="translate(1004.434243 0.346875)"/>
    <use xlink:href="#DejaVuSans-28" transform="translate(1064.736978 0.346875)"/>
    <use xlink:href="#DejaVuSans-Oblique-78" transform="translate(1103.750649 0.346875)"/>
    <use xlink:href="#DejaVuSans-Oblique-69" transform="translate(1162.930337 -16.059375) scale(0.7)"/>
    <use xlink:href="#DejaVuSans-7c" transform="translate(1185.112954 0.346875)"/>
    <use xlink:href="#STIXNonUnicode-Italic-e22f" transform="translate(1218.80436 0.346875)"/>
    <use xlink:href="#DejaVuSans-Oblique-6a" transform="translate(1276.661385 -16.059375) scale(0.7)"/>
    <use xlink:href="#DejaVuSans-29" transform="translate(1298.844003 0.346875)"/>
    <use xlink:href="#DejaVuSans-2b" transform="translate(1357.340096 0.346875)"/>
    <use xlink:href="#DejaVuSans-63" transform="translate(1460.611581 0.346875)"/>
    <use xlink:href="#DejaVuSans-6f" transform="translate(1515.59205 0.346875)"/>
    <use xlink:href="#DejaVuSans-6e" transform="translate(1576.77369 0.346875)"/>
    <use xlink:href="#DejaVuSans-73" transform="translate(1640.152596 0.346875)"/>
    <use xlink:href="#DejaVuSans-74" transform="translate(1692.252206 0.346875)"/>
   </g>
  </g>
 </g>
</svg>
