<?xml version="1.0" encoding="utf-8" standalone="no"?>
<!DOCTYPE svg PUBLIC "-//W3C//DTD SVG 1.1//EN"
  "http://www.w3.org/Graphics/SVG/1.1/DTD/svg11.dtd">
<svg xmlns:xlink="http://www.w3.org/1999/xlink" width="508.8pt" height="40.56pt" viewBox="0 0 508.8 40.56" xmlns="http://www.w3.org/2000/svg" version="1.1">
 <metadata>
  <rdf:RDF xmlns:dc="http://purl.org/dc/elements/1.1/" xmlns:cc="http://creativecommons.org/ns#" xmlns:rdf="http://www.w3.org/1999/02/22-rdf-syntax-ns#">
   <cc:Work>
    <dc:type rdf:resource="http://purl.org/dc/dcmitype/StillImage"/>
    <dc:date>2026-05-11T15:42:20.994059</dc:date>
    <dc:format>image/svg+xml</dc:format>
    <dc:creator>
     <cc:Agent>
      <dc:title>Matplotlib v3.10.7, https://matplotlib.org/</dc:title>
     </cc:Agent>
    </dc:creator>
   </cc:Work>
  </rdf:RDF>
 </metadata>
 <defs>
  <style type="text/css">*{stroke-linejoin: round; stroke-linecap: butt}</style>
 </defs>
 <g id="figure_1">
  <g id="patch_1">
   <path d="M 0 40.56 
L 508.8 40.56 
L 508.8 0 
L 0 0 
L 0 40.56 
z
" style="fill: none; opacity: 0"/>
  </g>
  <g id="text_1">
   <!-- $P(y_{\text{new}}|x_{\text{new}},D)=\int P(y_{\text{new}}|x_{\text{new}},\phi )\,P(\phi |D)\,d\phi$ -->
   <g transform="translate(3.6 29.52) scale(0.24 -0.24)">
    <defs>
     <path id="DejaVuSans-Oblique-50" d="M 1081 4666 
L 2541 4666 
Q 3178 4666 3512 4369 
Q 3847 4072 3847 3500 
Q 3847 2731 3353 2303 
Q 2859 1875 1966 1875 
L 1172 1875 
L 806 0 
L 172 0 
L 1081 4666 
z
M 1613 4147 
L 1275 2394 
L 2069 2394 
Q 2606 2394 2893 2669 
Q 3181 2944 3181 3456 
Q 3181 3784 2986 3965 
Q 2791 4147 2438 4147 
L 1613 4147 
z
" transform="scale(0.015625)"/>
     <path id="DejaVuSans-28" d="M 1984 4856 
Q 1566 4138 1362 3434 
Q 1159 2731 1159 2009 
Q 1159 1288 1364 580 
Q 1569 -128 1984 -844 
L 1484 -844 
Q 1016 -109 783 600 
Q 550 1309 550 2009 
Q 550 2706 781 3412 
Q 1013 4119 1484 4856 
L 1984 4856 
z
" transform="scale(0.015625)"/>
     <path id="DejaVuSans-Oblique-79" d="M 1588 -325 
Q 1188 -997 936 -1164 
Q 684 -1331 294 -1331 
L -159 -1331 
L -63 -850 
L 269 -850 
Q 509 -850 678 -719 
Q 847 -588 1056 -206 
L 1234 128 
L 459 3500 
L 1069 3500 
L 1650 819 
L 3256 3500 
L 3859 3500 
L 1588 -325 
z
" transform="scale(0.015625)"/>
     <path id="DejaVuSans-6e" d="M 3513 2113 
L 3513 0 
L 2938 0 
L 2938 2094 
Q 2938 2591 2744 2837 
Q 2550 3084 2163 3084 
Q 1697 3084 1428 2787 
Q 1159 2491 1159 1978 
L 1159 0 
L 581 0 
L 581 3500 
L 1159 3500 
L 1159 2956 
Q 1366 3272 1645 3428 
Q 1925 3584 2291 3584 
Q 2894 3584 3203 3211 
Q 3513 2838 3513 2113 
z
" transform="scale(0.015625)"/>
     <path id="DejaVuSans-65" d="M 3597 1894 
L 3597 1613 
L 953 1613 
Q 991 1019 1311 708 
Q 1631 397 2203 397 
Q 2534 397 2845 478 
Q 3156 559 3463 722 
L 3463 178 
Q 3153 47 2828 -22 
Q 2503 -91 2169 -91 
Q 1331 -91 842 396 
Q 353 884 353 1716 
Q 353 2575 817 3079 
Q 1281 3584 2069 3584 
Q 2775 3584 3186 3129 
Q 3597 2675 3597 1894 
z
M 3022 2063 
Q 3016 2534 2758 2815 
Q 2500 3097 2075 3097 
Q 1594 3097 1305 2825 
Q 1016 2553 972 2059 
L 3022 2063 
z
" transform="scale(0.015625)"/>
     <path id="DejaVuSans-77" d="M 269 3500 
L 844 3500 
L 1563 769 
L 2278 3500 
L 2956 3500 
L 3675 769 
L 4391 3500 
L 4966 3500 
L 4050 0 
L 3372 0 
L 2619 2869 
L 1863 0 
L 1184 0 
L 269 3500 
z
" transform="scale(0.015625)"/>
     <path id="DejaVuSans-7c" d="M 1344 4891 
L 1344 -1509 
L 813 -1509 
L 813 4891 
L 1344 4891 
z
" transform="scale(0.015625)"/>
     <path id="DejaVuSans-Oblique-78" d="M 3841 3500 
L 2234 1784 
L 3219 0 
L 2559 0 
L 1819 1388 
L 531 0 
L -166 0 
L 1556 1844 
L 641 3500 
L 1300 3500 
L 1972 2234 
L 3144 3500 
L 3841 3500 
z
" transform="scale(0.015625)"/>
     <path id="DejaVuSans-2c" d="M 750 794 
L 1409 794 
L 1409 256 
L 897 -744 
L 494 -744 
L 750 256 
L 750 794 
z
" transform="scale(0.015625)"/>
     <path id="DejaVuSans-Oblique-44" d="M 1081 4666 
L 2438 4666 
Q 3519 4666 4070 4208 
Q 4622 3750 4622 2847 
Q 4622 2250 4412 1698 
Q 4203 1147 3834 769 
Q 3463 381 2891 190 
Q 2319 0 1538 0 
L 172 0 
L 1081 4666 
z
M 1613 4147 
L 909 519 
L 1734 519 
Q 2794 519 3375 1128 
Q 3956 1738 3956 2847 
Q 3956 3519 3581 3833 
Q 3206 4147 2406 4147 
L 1613 4147 
z
" transform="scale(0.015625)"/>
     <path id="DejaVuSans-29" d="M 513 4856 
L 1013 4856 
Q 1481 4119 1714 3412 
Q 1947 2706 1947 2009 
Q 1947 1309 1714 600 
Q 1481 -109 1013 -844 
L 513 -844 
Q 928 -128 1133 580 
Q 1338 1288 1338 2009 
Q 1338 2731 1133 3434 
Q 928 4138 513 4856 
z
" transform="scale(0.015625)"/>
     <path id="DejaVuSans-3d" d="M 678 2906 
L 4684 2906 
L 4684 2381 
L 678 2381 
L 678 2906 
z
M 678 1631 
L 4684 1631 
L 4684 1100 
L 678 1100 
L 678 1631 
z
" transform="scale(0.015625)"/>
     <path id="DejaVuSansDisplay-222b" d="M 2134 5525 
Q 2172 6263 2528 6556 
Q 2884 6850 3218 6850 
Q 3553 6850 3833 6575 
Q 4113 6300 4200 5678 
L 3544 5613 
Q 3469 6188 3219 6188 
Q 2906 6188 2869 5413 
L 2581 -597 
Q 2547 -1334 2187 -1628 
Q 1828 -1922 1497 -1922 
Q 1163 -1922 883 -1647 
Q 603 -1372 516 -750 
L 1172 -684 
Q 1247 -1259 1497 -1259 
Q 1809 -1259 1847 -488 
L 2134 5525 
z
" transform="scale(0.015625)"/>
     <path id="DejaVuSans-Oblique-3d5" d="M 2991 4863 
L 2738 3572 
Q 3363 3572 3684 3094 
Q 4016 2606 3850 1747 
Q 3681 888 3159 400 
Q 2653 -78 2028 -78 
L 1784 -1331 
L 1213 -1331 
L 1456 -78 
Q 834 -78 509 400 
Q 178 888 347 1747 
Q 513 2606 1034 3094 
Q 1544 3572 2166 3572 
L 2419 4863 
L 2991 4863 
z
M 2128 434 
Q 2481 434 2784 756 
Q 3116 1116 3244 1747 
Q 3369 2372 3169 2738 
Q 2991 3059 2638 3059 
L 2128 434 
z
M 1556 434 
L 2066 3059 
Q 1716 3059 1413 2738 
Q 1072 2372 953 1747 
Q 834 1116 1028 756 
Q 1203 434 1556 434 
z
" transform="scale(0.015625)"/>
     <path id="DejaVuSans-Oblique-64" d="M 2675 525 
Q 2444 222 2128 65 
Q 1813 -91 1428 -91 
Q 903 -91 598 267 
Q 294 625 294 1247 
Q 294 1766 478 2236 
Q 663 2706 1013 3078 
Q 1244 3325 1534 3454 
Q 1825 3584 2144 3584 
Q 2481 3584 2739 3421 
Q 2997 3259 3138 2956 
L 3513 4863 
L 4091 4863 
L 3144 0 
L 2566 0 
L 2675 525 
z
M 891 1350 
Q 891 897 1095 644 
Q 1300 391 1663 391 
Q 1931 391 2161 520 
Q 2391 650 2566 903 
Q 2750 1166 2856 1509 
Q 2963 1853 2963 2188 
Q 2963 2622 2758 2865 
Q 2553 3109 2194 3109 
Q 1922 3109 1687 2981 
Q 1453 2853 1288 2613 
Q 1106 2353 998 2009 
Q 891 1666 891 1350 
z
" transform="scale(0.015625)"/>
    </defs>
    <use xlink:href="#DejaVuSans-Oblique-50" transform="translate(0 0.96875)"/>
    <use xlink:href="#DejaVuSans-28" transform="translate(60.302734 0.96875)"/>
    <use xlink:href="#DejaVuSans-Oblique-79" transform="translate(99.316406 0.96875)"/>
    <use xlink:href="#DejaVuSans-6e" transform="translate(158.496094 -15.4375) scale(0.7)"/>
    <use xlink:href="#DejaVuSans-65" transform="translate(202.861328 -15.4375) scale(0.7)"/>
    <use xlink:href="#DejaVuSans-77" transform="translate(245.927734 -15.4375) scale(0.7)"/>
    <use xlink:href="#DejaVuSans-7c" transform="translate(305.913086 0.96875)"/>
    <use xlink:href="#DejaVuSans-Oblique-78" transform="translate(339.604492 0.96875)"/>
    <use xlink:href="#DejaVuSans-6e" transform="translate(398.78418 -15.4375) scale(0.7)"/>
    <use xlink:href="#DejaVuSans-65" transform="translate(443.149414 -15.4375) scale(0.7)"/>
    <use xlink:href="#DejaVuSans-77" transform="translate(486.21582 -15.4375) scale(0.7)"/>
    <use xlink:href="#DejaVuSans-2c" transform="translate(546.201172 0.96875)"/>
    <use xlink:href="#DejaVuSans-Oblique-44" transform="translate(597.470703 0.96875)"/>
    <use xlink:href="#DejaVuSans-29" transform="translate(674.472656 0.96875)"/>
    <use xlink:href="#DejaVuSans-3d" transform="translate(732.96875 0.96875)"/>
    <use xlink:href="#DejaVuSansDisplay-222b" transform="translate(836.240234 0.96875)"/>
    <use xlink:href="#DejaVuSans-Oblique-50" transform="translate(909.873047 0.96875)"/>
    <use xlink:href="#DejaVuSans-28" transform="translate(970.175781 0.96875)"/>
    <use xlink:href="#DejaVuSans-Oblique-79" transform="translate(1009.189453 0.96875)"/>
    <use xlink:href="#DejaVuSans-6e" transform="translate(1068.369141 -15.4375) scale(0.7)"/>
    <use xlink:href="#DejaVuSans-65" transform="translate(1112.734375 -15.4375) scale(0.7)"/>
    <use xlink:href="#DejaVuSans-77" transform="translate(1155.800781 -15.4375) scale(0.7)"/>
    <use xlink:href="#DejaVuSans-7c" transform="translate(1215.786133 0.96875)"/>
    <use xlink:href="#DejaVuSans-Oblique-78" transform="translate(1249.477539 0.96875)"/>
    <use xlink:href="#DejaVuSans-6e" transform="translate(1308.657227 -15.4375) scale(0.7)"/>
    <use xlink:href="#DejaVuSans-65" transform="translate(1353.022461 -15.4375) scale(0.7)"/>
    <use xlink:href="#DejaVuSans-77" transform="translate(1396.088867 -15.4375) scale(0.7)"/>
    <use xlink:href="#DejaVuSans-2c" transform="translate(1456.074219 0.96875)"/>
    <use xlink:href="#DejaVuSans-Oblique-3d5" transform="translate(1507.34375 0.96875)"/>
    <use xlink:href="#DejaVuSans-29" transform="translate(1573.310547 0.96875)"/>
    <use xlink:href="#DejaVuSans-Oblique-50" transform="translate(1628.559895 0.96875)"/>
    <use xlink:href="#DejaVuSans-28" transform="translate(1688.862629 0.96875)"/>
    <use xlink:href="#DejaVuSans-Oblique-3d5" transform="translate(1727.876301 0.96875)"/>
    <use xlink:href="#DejaVuSans-7c" transform="translate(1793.843098 0.96875)"/>
    <use xlink:href="#DejaVuSans-Oblique-44" transform="translate(1827.534504 0.96875)"/>
    <use xlink:href="#DejaVuSans-29" transform="translate(1904.536458 0.96875)"/>
    <use xlink:href="#DejaVuSans-Oblique-64" transform="translate(1959.785806 0.96875)"/>
    <use xlink:href="#DejaVuSans-Oblique-3d5" transform="translate(2023.262368 0.96875)"/>
   </g>
  </g>
 </g>
</svg>
